<svg xmlns="http://www.w3.org/2000/svg" version="1.1" width="141pt" height="136pt" viewBox="0 0 141 136">
<path transform="matrix(1,0,0,1,-5.724365,-7.6601564)" d="M75.87711 31.164C49.987615 31.164002 29.000016 52.1516 29.000016 78.041118 29.000016 103.930629 49.987615 124.91823 75.87713 124.91823 101.76664 124.91823 122.75424 103.930629 122.75424 78.041118 122.72518 52.163644 101.754589 31.193057 75.87711 31.164004V31.164ZM75.87711 121.56986C51.83685 121.56986 32.348367 102.081378 32.348367 78.041118 32.348367 54.000856 51.836858 34.51237 75.87711 34.51237 99.91738 34.51237 119.40586 54.00086 119.40586 78.041118 119.378658 102.0701 99.90609 121.542659 75.877109 121.56986H75.87711Z" fill="#f67933"/>
<path transform="matrix(1,0,0,1,-2.4436036,-3.166504)" d="M128.61081 123.56365H91.39373C115.71055 114.54203 130.07262 89.39708 125.489688 63.86878 120.90676 38.340486 98.69523 19.761343 72.75882 19.761349 46.82241 19.761349 24.610873 38.340486 20.027956 63.868795 15.445035 89.39709 29.807085 114.54203 54.123918 123.56365H16.906832C16.25658 123.47868 15.615945 123.777919 15.263771 124.3311 14.911598 124.8843 14.911598 125.59136 15.263771 126.14456 15.615945 126.69775 16.25658 126.99698 16.906832 126.91202H128.61081C129.26107 126.99698 129.9017 126.69775 130.25388 126.14456 130.60605 125.59136 130.60605 124.8843 130.25388 124.3311 129.9017 123.777919 129.26107 123.47868 128.61083 123.56365H128.61081ZM22.533762 73.33817C22.53377 45.599424 45.020486 23.11271 72.759258 23.11271 100.49802 23.11271 122.984729 45.599424 122.984729 73.33819 122.984729 101.07696 100.49802 123.563678 72.759258 123.563678 45.033479 123.53232 22.565125 101.06395 22.53377 73.33817H22.533762ZM76.52615 15.369596C77.91309 15.369596 79.03743 14.24526 79.03743 12.858321 79.03743 11.471383 77.91309 10.347047 76.52615 10.347047 75.13922 10.347047 74.014888 11.471383 74.014888 12.858321 74.01627 14.244685 75.13979 15.368211 76.52616 15.3695969L76.52615 15.369596ZM76.52615 11.602684C77.21963 11.602684 77.78179 12.164852 77.78179 12.858321 77.78179 13.55179 77.21963 14.113958 76.52615 14.113958 75.83269 14.113958 75.270519 13.55179 75.270519 12.858321 75.27098 12.165043 75.83288 11.603145 76.52615 11.602685V11.602684ZM134.9593 57.433435C134.03469 57.433435 133.28513 58.182996 133.28513 59.107618 133.28513 60.03224 134.03469 60.7818 134.9593 60.7818 135.88394 60.7818 136.6335 60.03224 136.6335 59.107618 136.63259 58.18337 135.88356 57.434358 134.9593 57.433435ZM134.9593 59.94471C134.497 59.94471 134.12223 59.56993 134.12223 59.107618 134.12223 58.645307 134.497 58.270528 134.9593 58.270528 135.42163 58.270528 135.7964 58.645307 135.7964 59.107618 135.79596 59.569746 135.42144 59.944257 134.9593 59.944719V59.94471ZM111.26544 3.5799998C110.34082 3.5799998 109.59126 4.329557 109.59126 5.2541825 109.59126 6.1788079 110.34082 6.928365 111.26544 6.928365 112.19007 6.928365 112.93963 6.1788079 112.93963 5.2541825 112.93872 4.329935 112.1897 3.5809162 111.26544 3.5799995V3.5799998ZM111.26544 6.091274C110.80312 6.091274 110.42835 5.716495 110.42835 5.2541825 110.42835 4.7918698 110.80312 4.4170916 111.26544 4.4170916 111.72777 4.4170916 112.10254 4.7918698 112.10254 5.2541825 112.10207 5.7163016 111.72757 6.090809 111.26546 6.0912744L111.26544 6.091274ZM137.49404 13.346344C136.56941 13.346344 135.81986 14.095901 135.81986 15.020527 135.81986 15.945153 136.56941 16.69471 137.49404 16.69471 138.41866 16.69471 139.16822 15.945153 139.16822 15.020527 139.16732 14.096279 138.41829 13.34726 137.49404 13.346344ZM137.49404 15.857618C137.03173 15.857618 136.65694 15.482839 136.65694 15.020527 136.65694 14.558214 137.03173 14.183435 137.49404 14.183435 137.95636 14.183435 138.33113 14.558214 138.33113 15.020527 138.33068 15.482651 137.95616 15.8571619 137.49404 15.857619V15.857618ZM27.811625 26.181468C27.811625 25.256844 27.062067 24.507287 26.137442 24.507287 25.212817 24.507287 24.463259 25.256842 24.463259 26.181469 24.463259 27.106093 25.212815 27.85565 26.137442 27.85565 27.061686 27.85473 27.810704 27.105711 27.811625 26.181469V26.181468ZM25.30035 26.181468C25.30035 25.719155 25.675129 25.344376 26.137442 25.344376 26.599755 25.344376 26.974534 25.719155 26.974534 26.181468 26.974534 26.64378 26.599755 27.018559 26.137442 27.018559 25.67532 27.018097 25.300812 26.643589 25.30035 26.181469V26.181468Z" fill="#3e42c2"/>
<path transform="matrix(1,0,0,1,-1.2536621,-3.0859376)" d="M10.367832 57.362169 11.612587 55.724817 10.826558 55.279485 10.027136 57.112718H10.001186L9.189207 55.292879 8.389785 55.750764 9.621146 57.34961V57.375558L7.694999 57.12611V58.016778L9.633703 57.76816V57.79411L8.389785 59.39211 9.135633 59.86423 9.987792 58.01677H10.013742L10.799771 59.850839 11.625143 59.37955 10.367832 57.807497V57.780714L12.345042 58.01677V57.126104L10.367833 57.388116V57.362169H10.367832ZM11.434286 5.7245118 10.717736 6.644475 11.147164 6.9165298 11.6377 5.8525869H11.652768L12.105635 6.908996 12.581102 6.6369416 11.857018 5.7320458V5.716978L12.995462 5.852587V5.33945L11.857018 5.490964V5.475896L12.573568 4.532494 12.120702 4.2763445 11.661139 5.3319165H11.645234L11.178138 4.2838785 10.717737 4.547562 11.426754 5.4683625V5.48343L10.317608 5.3394505V5.852587L11.434287 5.709445V5.7245128L11.434286 5.7245118ZM55.91983 5.771389V4.8974659L53.98029 5.154453V5.128503L55.200769 3.5229617 54.429807 3.086 53.64629 4.8849089H53.62034L52.824266 3.098556 52.03991 3.548911 53.247835 5.1159465V5.1418964L51.35852 4.8974659V5.771389L53.26039 5.5269587V5.5529086L52.03991 7.119943 52.772367 7.5828549 53.607786 5.771389H53.632898L54.40386 7.5694615 55.213327 7.107387 53.98029 5.5654647V5.5395147L55.91983 5.771389ZM117.49041 30.503254 118.543468 29.117867 117.877979 28.741177 117.20244 30.292305H117.17985L116.49342 28.75206 115.81621 29.139634 116.85838 30.492375V30.514138L115.22941 30.303193V31.056576L116.86927 30.846467V30.869069L115.81621 32.22013 116.44822 32.619428 117.168949 31.056576H117.19071L117.85537 32.608545 118.554347 32.20925 117.49041 30.879948V30.857346L119.16292 31.056572V30.303189L117.49041 30.525017V30.503254Z" fill="#f67933"/>
<path transform="matrix(1,0,0,1,0,120.39722)" d="M1.6741827 0C1.8961929 0 2.1097537 .042479844 2.3148645 .12743955 2.5199753 .21239925 2.701023 .33337165 2.8580082 .4903567 3.0149933 .6473418 3.1359654 .8283897 3.220925 1.0335006 3.3058849 1.2386115 3.348365 1.4521722 3.3483654 1.6741827 3.348365 1.8961929 3.305885 2.1097537 3.2209254 2.3148645 3.1359657 2.5199753 3.0149933 2.701023 2.8580085 2.8580082 2.7010234 3.0149933 2.5199753 3.1359654 2.3148645 3.220925 2.1097537 3.3058849 1.8961929 3.348365 1.6741827 3.3483654 1.4521722 3.348365 1.2386115 3.305885 1.0335006 3.2209254 .8283897 3.1359657 .6473418 3.0149933 .4903567 2.8580085 .33337165 2.7010234 .21239925 2.5199753 .12743955 2.3148645 .042479844 2.1097537 0 1.8961929 0 1.6741827 0 1.4521722 .042479844 1.2386115 .12743955 1.0335006 .21239925 .8283897 .33337165 .6473418 .4903567 .4903567 .6473418 .33337165 .8283897 .21239925 1.0335006 .12743955 1.2386115 .042479844 1.4521722 0 1.6741827 0Z" fill="#3e42c2"/>
<path transform="matrix(1,0,0,1,-.97753909,-26.516846)" d="M10.185457 146.914H7.6741826C6.749557 146.914 5.9999997 147.66356 5.9999997 148.58818 5.9999997 149.5128 6.749557 150.26236 7.6741826 150.26236H10.185457C11.110083 150.26236 11.859639 149.5128 11.859639 148.58818 11.859639 147.66356 11.110083 146.914 10.185457 146.914ZM134.91207 146.914H132.40079C131.47617 146.914 130.72661 147.66356 130.72661 148.58818 130.72661 149.5128 131.47617 150.26236 132.40079 150.26236H134.91207C135.83669 150.26236 136.58625 149.5128 136.58625 148.58818 136.58625 147.66356 135.83669 146.914 134.91207 146.914Z" fill="#3e42c2"/>
<path transform="matrix(1,0,0,1,137.28296,120.39722)" d="M1.6741827 0C1.8961929 0 2.1097537 .042479844 2.3148645 .12743955 2.5199753 .21239925 2.701023 .33337165 2.8580082 .4903567 3.0149933 .6473418 3.1359654 .8283897 3.220925 1.0335006 3.3058849 1.2386115 3.348365 1.4521722 3.3483654 1.6741827 3.348365 1.8961929 3.305885 2.1097537 3.2209254 2.3148645 3.1359657 2.5199753 3.0149933 2.701023 2.8580085 2.8580082 2.7010234 3.0149933 2.5199753 3.1359654 2.3148645 3.220925 2.1097537 3.3058849 1.8961929 3.348365 1.6741827 3.3483654 1.4521722 3.348365 1.2386115 3.305885 1.0335006 3.2209254 .8283897 3.1359657 .6473418 3.0149933 .4903567 2.8580085 .33337165 2.7010234 .21239925 2.5199753 .12743955 2.3148645 .042479844 2.1097537 0 1.8961929 0 1.6741827 0 1.4521722 .042479844 1.2386115 .12743955 1.0335006 .21239925 .8283897 .33337165 .6473418 .4903567 .4903567 .6473418 .33337165 .8283897 .21239925 1.0335006 .12743955 1.2386115 .042479844 1.4521722 0 1.6741827 0Z" fill="#3e42c2"/>
<path transform="matrix(1,0,0,1,-7.8188478,-27.820069)" d="M106.72449 154.914H99.769939C98.8955 154.98178 98.220508 155.7111 98.220508 156.58818 98.220508 157.46526 98.8955 158.19458 99.769939 158.26236H106.72449C107.59894 158.19458 108.273929 157.46526 108.273929 156.58818 108.273929 155.7111 107.59894 154.98178 106.724498 154.914H106.72449ZM56.499017 154.914H49.54446C48.670019 154.98178 47.99503 155.7111 47.99503 156.58818 47.99503 157.46526 48.670019 158.19458 49.54446 158.26236H56.499017C57.37346 158.19458 58.04845 157.46526 58.04845 156.58818 58.04845 155.7111 57.37346 154.98178 56.499017 154.914ZM94.8763 154.914H61.39265C60.468027 154.914 59.718469 155.66356 59.718469 156.58818 59.718469 157.5128 60.468027 158.26236 61.39265 158.26236H74.735889V159.93656H68.08938C67.16476 159.93656 66.4152 160.68611 66.4152 161.61074 66.4152 162.53536 67.16476 163.28491 68.08938 163.28491H89.01666C89.941287 163.28491 90.69084 162.53536 90.69084 161.61074 90.69084 160.68611 89.941287 159.93656 89.01666 159.93656H81.533069V158.26236H94.8763C95.80093 158.26236 96.55048 157.5128 96.55048 156.58818 96.55048 155.66356 95.80093 154.914 94.8763 154.914Z" fill="#f67933"/>
<path transform="matrix(1,0,0,1,53.88379,40.68506)" d="M12.499432 37.990877V6.0000007H20.497153V37.990877H12.499432ZM16.49829 53.98632C19.811057 53.98632 22.496582 51.30078 22.496582 47.988016 22.496582 44.675264 19.811057 41.98973 16.49829 41.98973 13.185525 41.98973 10.500002 44.675264 10.500002 47.988016 10.500002 51.30078 13.185525 53.98632 16.49829 53.98632Z" fill="#f67933"/>
</svg>
