<svg viewBox="0 0 170.64 171.33" xmlns="http://www.w3.org/2000/svg"><path d="m136.25 47.14c-.85-1.03-2.02-1.65-3.25-1.85-.1-1.19-.59-2.33-1.42-3.21-6.24-6.6-12.81-13.2-19.51-19.64-.83-.79-1.84-1.25-2.9-1.41-.22-1.08-.76-2.07-1.58-2.84-6.05-5.68-12.37-11.36-18.77-16.89-1-.86-2.24-1.3-3.49-1.3s-2.48.43-3.49 1.3c-6.4 5.53-12.72 11.21-18.77 16.89-.82.77-1.36 1.76-1.58 2.84-1.06.16-2.08.62-2.9 1.41-6.71 6.44-13.28 13.04-19.52 19.64-.84.88-1.32 2.02-1.42 3.21-1.23.2-2.4.82-3.25 1.85-1.29 1.57-2.61 3.15-3.93 4.74-19.49 23.43-43.74 52.59-21.73 84.25 8.93 12.85 21.16 19.78 36.77 26.24.66.27 1.35.41 2.04.41 1.84 0 3.61-.96 4.6-2.62 1.35-2.29.81-5.22-1.26-6.88-.28-.23-.53-.46-.81-.69 1.67-1.45 2.33-3.82 1.5-5.96-1.12-2.89-1.59-5.81-1.57-8.74 1.01 18.61 16.47 33.44 35.33 33.44s34.32-14.83 35.33-33.44c.03 2.93-.45 5.85-1.57 8.74-.83 2.14-.18 4.51 1.5 5.96-.27.23-.53.47-.81.69-2.07 1.66-2.61 4.59-1.26 6.88.98 1.67 2.76 2.62 4.6 2.62.68 0 1.37-.13 2.04-.41 15.61-6.45 27.84-13.39 36.77-26.24 22.01-31.66-2.24-60.82-21.73-84.26-1.32-1.59-2.64-3.17-3.93-4.74z" fill="#fff"/><g fill="#2e3192"><path d="m108.37 26.29c-6.31 5.54-12.53 11.09-18.57 16.63l18.15 18.12c6.41-5.12 12.99-10.22 19.76-15.3-6.21-6.57-12.65-13.05-19.33-19.45z"/><path d="m132.13 50.53-20.15 14.72c3.12 3.69 6.24 7.38 9.36 11.08 7.53 8.92 13.62 18 17.85 27.86 8.07 18.81 1.38 39.29-16.09 53.26 14.63-6.05 26.08-12.34 34.43-24.35 21.04-30.26-5.06-57.85-25.4-82.56z"/><path d="m85.32 5.33c-6.39 5.52-12.59 11.1-18.61 16.74l18.61 16.59 18.61-16.59c-6.02-5.65-12.22-11.23-18.61-16.74z"/><path d="m13.11 133.09c8.35 12.01 19.8 18.3 34.43 24.35-17.47-13.97-24.16-34.45-16.09-53.26 4.23-9.86 10.32-18.95 17.85-27.86 3.12-3.69 6.24-7.38 9.36-11.08l-20.15-14.72c-20.33 24.71-46.43 52.3-25.4 82.56z"/><path d="m42.94 45.74c6.76 5.08 13.34 10.18 19.76 15.3l18.15-18.12c-6.04-5.54-12.26-11.09-18.57-16.63-6.68 6.4-13.12 12.88-19.33 19.45z"/></g><path d="m47.71 89.15c-17.1 24.66-18.13 34.94-1.12 59.41-9.29-23.93 15.9-47.49 34.39-64.42l-17.72-14.72c-6.21 7.39-11.18 13.43-15.55 19.74z" fill="#007538"/><path d="m85.32 47.37-17.71 17.63c6.05 4.9 11.94 9.82 17.71 14.76 5.76-4.93 11.66-9.85 17.71-14.76z" fill="#007538"/><path d="m122.93 89.15c-4.37-6.3-9.35-12.34-15.55-19.74l-17.72 14.72c18.49 16.93 43.68 40.5 34.39 64.42 17-24.46 15.98-34.75-1.12-59.41z" fill="#007538"/><path d="m115.37 135.94c0 16.6-13.45 30.05-30.05 30.05-16.6 0-30.05-13.45-30.05-30.05 0-3.06 0-20.46 30.05-41.12 0 0 30.05 18.96 30.05 41.12z" fill="#2e3192"/></svg>