<svg width="64" height="64" viewBox="0 0 64 64" fill="none" xmlns="http://www.w3.org/2000/svg">
<g clip-path="url(#clip0_987_91905)">
<path d="M61.44 13H2.56C1.14615 13 0 14.1522 0 15.5735V49.0296C0 50.451 1.14615 51.6032 2.56 51.6032H61.44C62.8538 51.6032 64 50.451 64 49.0296V15.5735C64 14.1522 62.8538 13 61.44 13Z" fill="#13A8E0"/>
<path d="M5.89185 26.8427L4.66522 23.7356L3.4456 26.8427H5.89185ZM32.9143 25.6054C32.668 25.7608 32.3768 25.766 32.0278 25.766H29.8507V24.0348H32.0574C32.3698 24.0348 32.6956 24.0494 32.9073 24.1754C33.1398 24.289 33.2836 24.5306 33.2836 24.8644C33.2836 25.2051 33.1468 25.4792 32.9143 25.6054ZM48.4457 26.8427L47.2055 23.7356L45.9721 26.8427H48.4457ZM19.4942 30.2058H17.657L17.6502 24.1016L15.0515 30.2058H13.478L10.8725 24.0962V30.2058H7.22748L6.53886 28.4673H2.80741L2.11178 30.2058H0.165319L3.37459 22.4118H6.03726L9.08529 29.7911V22.4118H12.0103L14.3557 27.6991L16.5102 22.4118H19.494L19.4942 30.2058ZM26.8167 30.2058H20.8299V22.4118H26.8167V24.0348H22.6221V25.4397H26.716V27.0373H22.6221V28.5938H26.8167V30.2058ZM35.2579 24.5109C35.2579 25.7535 34.46 26.3955 33.9951 26.5883C34.3872 26.7435 34.7222 27.0176 34.8816 27.2447C35.1346 27.6323 35.1783 27.9786 35.1783 28.6747V30.2058H33.3707L33.3639 29.2229C33.3639 28.7539 33.4071 28.0795 33.081 27.7045C32.8191 27.4304 32.42 27.3709 31.7748 27.3709H29.8509V30.2058H28.0589V22.4118H32.1809C33.0968 22.4118 33.7716 22.437 34.351 22.7851C34.918 23.1333 35.2579 23.6415 35.2579 24.5109ZM38.1259 30.2058H36.2973V22.4118H38.1259V30.2058ZM59.3404 30.2058H56.8008L53.4038 24.356V30.2058H49.754L49.0566 28.4673H45.3337L44.6571 30.2058H42.56C41.6889 30.2058 40.586 30.0055 39.9613 29.3437C39.3315 28.682 39.0038 27.7856 39.0038 26.3683C39.0038 25.2124 39.1997 24.1557 39.9699 23.3207C40.5493 22.6986 41.4566 22.4118 42.6916 22.4118H44.4266V24.0819H42.728C42.074 24.0819 41.7047 24.1829 41.349 24.5436C41.0435 24.8717 40.8338 25.4921 40.8338 26.309C40.8338 27.1441 40.9935 27.7461 41.3266 28.1394C41.6025 28.4478 42.1039 28.5414 42.5756 28.5414H43.3805L45.9063 22.4121H48.5916L51.6258 29.784V22.4121H54.3545L57.5048 27.8401V22.4121H59.3404V30.2058ZM0.144287 31.7366H3.20656L3.89699 30.0055H5.44272L6.13134 31.7366H12.1562V30.4131L12.6939 31.7423H15.8216L16.3594 30.3934V31.7366H31.3322L31.3252 28.895H31.6149C31.8177 28.9022 31.877 28.9218 31.877 29.2699V31.7366H39.621V31.0751C40.2456 31.423 41.2171 31.7366 42.4956 31.7366H45.7534L46.4507 30.0055H47.9964L48.6782 31.7366H54.9563V30.0922L55.9071 31.7366H60.938V20.8664H55.9591V22.1502L55.2619 20.8664H50.1529V22.1502L49.5127 20.8664H42.6118C41.4566 20.8664 40.4412 21.034 39.621 21.5011V20.8664H34.8587V21.5011C34.3368 21.0197 33.6256 20.8664 32.8347 20.8664H15.4364L14.2691 23.674L13.0703 20.8664H7.59022V22.1502L6.98822 20.8664H2.31463L0.144287 26.0347V31.7366Z" fill="white"/>
<path d="M63.9059 37.4856H60.6397C60.3136 37.4856 60.0969 37.4983 59.9144 37.6264C59.7253 37.7527 59.6525 37.94 59.6525 38.1873C59.6525 38.4814 59.8122 38.6815 60.0444 38.768C60.2335 38.8364 60.4366 38.8564 60.7351 38.8564L61.7064 38.8834C62.6865 38.9086 63.3408 39.0837 63.7397 39.5109C63.8123 39.5703 63.8559 39.6371 63.9059 39.7039V37.4856ZM63.9059 42.6252C63.4706 43.287 62.6223 43.6225 61.4739 43.6225H58.0129V41.9508H61.4599C61.8018 41.9508 62.0411 41.904 62.1852 41.7578C62.31 41.6372 62.3971 41.462 62.3971 41.2493C62.3971 41.0222 62.31 40.8419 62.1782 40.7338C62.0481 40.6148 61.8588 40.5607 61.5467 40.5607C59.864 40.5013 57.7646 40.6148 57.7646 38.1478C57.7646 37.0171 58.4553 35.8269 60.3359 35.8269H63.9059V34.2758H60.589C59.5881 34.2758 58.861 34.525 58.3461 34.9124V34.2758H53.4402C52.6557 34.2758 51.7348 34.478 51.2993 34.9124V34.2758H42.5387V34.9124C41.8415 34.3896 40.6651 34.2758 40.1221 34.2758H34.3436V34.9124C33.792 34.3571 32.5654 34.2758 31.8177 34.2758H25.3506L23.8706 35.9406L22.4846 34.2758H12.824V45.1536H22.3028L23.8277 43.4624L25.2642 45.1536L31.1069 45.159V42.6001H31.6814C32.4566 42.6125 33.3709 42.5801 34.1776 42.2176V45.1533H38.9968V42.3182H39.2293C39.526 42.3182 39.5552 42.3309 39.5552 42.6391V45.1531H54.1951C55.1246 45.1531 56.0961 44.9058 56.6341 44.457V45.1531H61.2779C62.2442 45.1531 63.1879 45.0123 63.9059 44.6517V42.6252ZM56.7571 39.5109C57.1061 39.8863 57.2931 40.3602 57.2931 41.1625C57.2931 42.8396 56.2852 43.6225 54.4778 43.6225H50.9872V41.9508H54.4638C54.8037 41.9508 55.0448 41.904 55.1958 41.7578C55.3191 41.6372 55.4075 41.462 55.4075 41.2493C55.4075 41.0222 55.3118 40.8419 55.1888 40.7338C55.0518 40.6148 54.8627 40.5607 54.5506 40.5607C52.8746 40.5013 50.7757 40.6148 50.7757 38.1478C50.7757 37.0171 51.4592 35.8269 53.338 35.8269H56.9308V37.4861H53.6433C53.3174 37.4861 53.1055 37.4988 52.9253 37.6269C52.729 37.7531 52.6562 37.9405 52.6562 38.1878C52.6562 38.4819 52.8228 38.6819 53.0483 38.7685C53.2374 38.8369 53.4405 38.8569 53.7458 38.8569L54.7105 38.8839C55.6834 38.9086 56.3512 39.0835 56.7571 39.5109ZM40.5857 39.0294C40.346 39.1773 40.0495 39.19 39.7008 39.19H37.5237V37.4391H39.7304C40.0495 37.4391 40.3689 37.4461 40.5857 37.5799C40.818 37.7061 40.9568 37.9475 40.9568 38.2811C40.9568 38.6147 40.818 38.8834 40.5857 39.0294ZM41.6681 39.9996C42.067 40.1526 42.3931 40.427 42.546 40.6541C42.799 41.0347 42.8357 41.3899 42.8429 42.077V43.6225H41.0437V42.6471C41.0437 42.1781 41.0871 41.4837 40.754 41.1212C40.4921 40.8419 40.0929 40.7751 39.4392 40.7751H37.5239V43.6225H35.7231V35.8266H39.8607C40.768 35.8266 41.4288 35.8682 42.017 36.1945C42.5826 36.5497 42.9383 37.0364 42.9383 37.9257C42.9381 39.17 42.1398 39.8049 41.6681 39.9996ZM43.932 35.8266H49.9134V37.4388H45.7168V38.8561H49.811V40.4467H45.7168V41.9978L49.9134 42.0049V43.6225H43.932V35.8266ZM31.8406 39.4243H29.5246V37.4391H31.8614C32.5084 37.4391 32.9575 37.7132 32.9575 38.3949C32.9575 39.0691 32.5292 39.4243 31.8406 39.4243ZM27.7396 42.9135L24.988 39.7379L27.7396 36.6633V42.9135ZM20.6338 41.9978H16.2275V40.4467H20.162V38.8561H16.2275V37.4388H20.7206L22.6809 39.7107L20.6338 41.9978ZM34.8816 38.3949C34.8816 40.5605 33.3273 41.0076 31.7607 41.0076H29.5246V43.6225H26.0412L23.8345 41.0417L21.5411 43.6225H14.4423V35.8266H21.6503L23.8553 38.382L26.1348 35.8266H31.8614C33.2836 35.8266 34.8816 36.2359 34.8816 38.3949Z" fill="white"/>
</g>
<defs>
<clipPath id="clip0_987_91905">
<rect width="64" height="38.6032" fill="white" transform="translate(0 13)"/>
</clipPath>
</defs>
</svg>
