<svg height="407" width="555" xmlns="http://www.w3.org/2000/svg"><g fill="#f00"><path d="m297.186 20.582c-.703.201-2.361.402-3.666.452-5.223.1-22.099 4.37-28.227 7.082-.552.251-2.109.904-3.516 1.457-3.666 1.406-13.36 6.027-14.867 7.132-.703.452-1.858 1.055-2.612 1.205-.753.201-1.356.552-1.356.753s-.402.502-.854.703c-.502.151-1.557.753-2.411 1.306-.804.552-2.009 1.205-2.662 1.507-.653.251-1.909 1.055-2.813 1.758s-1.808 1.256-1.959 1.256c-1.155 0-17.328 11.753-21.898 15.871-3.717 3.365-10.598 10.698-10.598 11.301 0 .151-.452.854-1.055 1.507-1.507 1.708-6.027 8.84-7.333 11.502-.552 1.256-1.657 3.466-2.361 4.972-2.461 5.023-3.466 10.497-3.214 16.876.301 6.278 1.708 9.543 5.977 13.862 4.47 4.47 9.242 6.429 16.775 6.831 5.173.251 8.89-.151 14.063-1.607 1.657-.452 3.867-1.004 4.922-1.306 1.055-.251 2.26-.653 2.762-.954 1.155-.603 7.634-3.516 7.936-3.516.904 0 11.502-6.479 21.296-13.008 6.479-4.319 12.155-8.086 12.657-8.337.452-.301 3.516-2.109 6.78-4.068 3.265-1.909 7.283-4.219 8.94-5.073s4.018-2.109 5.274-2.762c1.256-.603 3.616-1.708 5.274-2.31 1.657-.653 3.717-1.507 4.52-1.858.854-.352 2.059-.904 2.762-1.205 1.959-.804 6.379-1.607 10.698-1.909 9.342-.603 15.871 3.516 19.236 12.155.804 2.059.954 3.767.954 9.794 0 7.333-.653 11.351-2.612 16.072-.402.954-.954 2.31-1.256 3.014-2.511 6.027-7.684 14.666-13.611 22.501-5.625 7.534-17.73 20.04-25.716 26.62-2.762 2.31-5.826 4.822-6.78 5.625-2.109 1.758-4.571 3.516-7.283 5.324-1.105.703-2.913 1.909-4.018 2.712-3.114 2.109-11.401 6.529-16.072 8.538-1.356.603-3.214 1.406-4.119 1.808-.854.402-2.009.703-2.561.703-.502 0-1.657.251-2.561.552-3.265 1.155-6.58-1.055-6.58-4.42 0-4.119 1.959-6.73 14.314-18.985 13.36-13.26 14.817-15.218 14.817-20.241 0-5.173-2.461-8.689-7.986-11.502-2.411-1.256-3.315-1.406-7.534-1.406-4.922 0-7.785.703-11.351 2.863-.804.502-2.059 1.155-2.762 1.507s-1.356.753-1.507.904-1.155.904-2.26 1.758c-2.662 2.009-7.333 6.78-9.995 10.246-1.858 2.411-3.214 4.671-6.379 10.598-2.612 4.922-4.972 14.063-4.972 19.387 0 10.798 5.625 19.437 14.314 21.898 2.612.753 13.26.753 16.926.05 3.616-.753 13.059-3.666 13.661-4.219.301-.251.804-.452 1.205-.452 1.306 0 16.223-7.584 21.346-10.899 1.155-.753 2.461-1.607 2.963-1.909.452-.251 2.813-1.708 5.274-3.214 2.411-1.507 4.52-2.913 4.671-3.064.151-.201 1.858-1.457 3.767-2.762 1.959-1.356 4.219-2.913 5.023-3.466.854-.603 3.214-2.411 5.274-4.068 13.059-10.397 24.611-21.497 31.341-30.135 1.105-1.356 2.109-2.612 2.26-2.762.402-.301 3.817-5.223 6.178-8.94 1.055-1.557 2.662-4.319 3.566-6.128.954-1.808 2.26-4.269 2.913-5.525s2.059-4.52 3.164-7.283c1.055-2.762 2.109-5.475 2.31-6.027 1.406-3.566 3.566-12.757 4.52-19.337 1.055-7.433.251-19.638-1.808-26.368-.854-2.762-1.055-3.265-2.913-7.283-4.018-8.639-10.447-16.474-17.83-21.597-1.004-.703-2.26-1.657-2.813-2.21-1.808-1.607-10.999-5.726-16.374-7.283-2.863-.854-7.132-1.758-9.493-2.109-5.42-.707-18.428-1.058-20.085-.455z"/><path d="m442.79 268.947c-.151.1-2.461.552-5.223 1.004-2.762.402-7.283 1.155-10.045 1.657l-5.023.854v46.208c0 50.175-.1 48.066 2.863 54.344 1.004 2.16 2.411 4.018 4.571 5.977 5.324 4.872 10.296 6.379 20.894 6.429 9.041 0 8.689.352 8.488-7.986l-.151-6.027-3.867-.352c-6.881-.603-10.196-3.365-10.949-9.091-.201-1.708-.352-23.204-.301-47.714.048-42.44-.052-46.508-1.257-45.303z"/><path d="m303.715 269.951c-11.15 1.657-14.867 2.361-15.319 2.913-.352.402-.402 16.424-.251 47.061.251 42.792.352 46.66 1.155 48.719 1.909 4.872 2.913 6.58 5.475 9.141 5.274 5.274 12.004 7.433 23.054 7.433 6.128 0 6.981-.1 7.383-.904.502-.954.753-9.694.352-11.703-.301-1.256-.502-1.306-4.269-1.607-4.771-.301-7.584-1.909-9.543-5.374l-1.256-2.26-.151-26.017c-.1-19.387 0-26.218.452-26.77s2.16-.703 7.534-.703c8.287 0 7.584.804 7.383-8.79l-.151-6.529-7.032-.251c-3.867-.151-7.333-.452-7.634-.653-.502-.301-.653-3.365-.653-12.456v-12.004l-1.105.05c-.653.051-3.063.353-5.424.704z"/><path d="m129.683 292.603c-3.767.352-12.808 2.511-15.57 3.717-.552.251-1.557.603-2.26.804-2.21.603-9.543 4.269-9.543 4.771 0 .251.452 1.406.954 2.612 3.315 7.283 4.571 9.894 4.822 9.894.151 0 .653-.201 1.155-.452 2.561-1.306 5.675-2.562 8.137-3.315 1.507-.452 3.315-1.055 4.018-1.306 2.813-1.005 10.296-1.507 13.762-.954 6.831 1.105 9.342 4.269 9.744 12.355.201 4.47.201 4.571-.954 4.872-.653.201-5.274.352-10.246.352-11.954 0-15.62.703-23.355 4.47-6.63 3.214-11.552 9.292-13.912 17.127-1.205 4.169-1.055 11.954.301 16.072 4.52 13.661 15.269 21.647 30.236 22.451 13.611.753 27.624-3.315 36.614-10.547l3.265-2.662.151-26.569c.151-30.788.1-31.843-3.616-39.377-1.657-3.415-7.232-8.84-10.698-10.346-1.607-.753-3.365-1.507-3.918-1.758-3.768-1.658-13.311-2.763-19.087-2.211zm14.817 48.418c.301.402.502 6.379.502 13.611 0 14.264.201 13.36-3.516 15.319-1.406.753-2.963.904-7.835.954h-6.077l-2.511-1.708c-1.356-.904-2.963-2.411-3.516-3.265-3.717-5.424-3.466-15.118.452-19.889 1.155-1.457 5.575-4.52 6.379-4.52.502 0 1.055-.201 1.356-.452.703-.753 3.014-.954 8.89-.854 4.218.05 5.524.201 5.876.804z"/><path d="m254.996 293.809c-9.995 2.361-17.981 6.63-26.017 13.963l-2.109 1.909v36.665 37.519c0 .804.753.854 10.949.753l10.899-.151.151-35.007.1-34.957 1.909-1.507c2.26-1.808 3.365-2.361 6.278-3.365 3.466-1.155 8.89-1.708 12.958-1.256 2.009.201 3.918.301 4.219.151.352-.1 1.256-1.808 2.059-3.817.753-2.009 1.959-4.621 2.562-5.826 1.657-3.164 1.507-3.968-.703-4.47-1.055-.251-2.963-.703-4.319-1.005-3.567-.905-14.466-.654-18.936.401z"/><path d="m364.237 293.909c-1.657.251-3.214.703-3.466.954-.301.251-.804.452-1.205.452s-2.21.703-3.968 1.607c-3.867 1.909-9.794 7.383-12.305 11.451-2.21 3.566-4.771 8.89-5.173 10.798-.201.804-.502 1.959-.753 2.511-.201.552-.804 2.712-1.306 4.771-1.356 5.424-1.356 22.802-.05 27.875 1.205 4.671 3.918 11.803 4.42 11.803.251 0 .452.251.452.552 0 1.909 5.977 9.493 10.196 12.908 1.858 1.507 6.027 3.666 9.141 4.721 3.365 1.155 10.798 2.411 14.113 2.411 7.132 0 19.99-3.064 24.259-5.776 1.004-.603 2.361-1.306 3.064-1.507 1.507-.452 4.822-2.511 5.223-3.214.452-.703-5.173-12.104-5.927-12.104-.352 0-1.256.452-1.959 1.004s-1.557 1.005-1.959 1.005c-.352 0-1.105.301-1.657.703-.552.352-3.164 1.406-5.776 2.31-4.47 1.557-5.223 1.657-11.803 1.708-6.228 0-7.283-.1-9.292-1.055-7.032-3.365-11.05-11.853-11.05-23.305 0-2.461.05-4.52.151-4.571.05-.1 11.2-.251 24.711-.402l24.61-.251-.151-5.023c-.301-9.844-2.913-23.104-5.173-26.117-.201-.301-.904-1.557-1.557-2.813-2.712-5.374-8.438-9.995-15.218-12.255-4.972-1.703-14.063-2.206-20.592-1.151zm10.798 15.972c2.109.552 6.529 4.118 6.529 5.223 0 .301.352 1.205.753 1.959 1.155 2.26 2.059 9.694 1.256 10.648-.502.653-2.461.753-12.607.753h-12.004l-.301-1.256c-.653-2.561 1.105-9.442 3.114-12.104 2.21-2.963 4.169-4.47 7.082-5.324 1.607-.452 3.164-.753 3.516-.653.302.101 1.507.452 2.662.754z"/><path d="m191.21 258.55c-3.817 1.959-4.972 2.913-6.63 5.374-1.607 2.461-1.657 2.662-1.657 7.785v5.324l1.909 2.612c2.26 3.064 3.767 4.169 7.082 5.324 4.47 1.457 8.337.904 12.808-1.909 5.374-3.415 7.232-12.155 3.968-18.583-1.155-2.26-2.16-3.315-5.173-5.223-2.714-1.759-9.595-2.16-12.307-.704z"/><path d="m203.515 294.813c-.804.251-3.064.703-5.023.954-1.909.251-5.424.753-7.785 1.105-2.361.301-4.42.753-4.671.904-.452.402-.502 85.735-.1 86.488.201.251 4.671.452 10.547.452 10.246 0 10.296 0 10.547-1.155.151-.603.201-20.894.151-45.052-.151-43.546-.151-43.947-1.155-44.048-.552-.05-1.657.101-2.511.352z"/></g></svg>