<svg height="135.46" width="140.63" xmlns="http://www.w3.org/2000/svg"><path d="m71.15 23.5a46.88 46.88 0 1 0 46.88 46.88 46.88 46.88 0 0 0 -46.88-46.88zm0 90.41a43.53 43.53 0 1 1 43.53-43.53 43.53 43.53 0 0 1 -43.53 43.53z" fill="#0bceb2"/><path d="m96.77 49.1-39.62 38.98-11.57-12.16a1.67 1.67 0 1 0 -2.43 2.31l12.74 13.39a1.67 1.67 0 0 0 1.18.52h.03a1.67 1.67 0 0 0 1.17-.48l40.83-40.18a1.67 1.67 0 1 0 -2.35-2.39z" fill="#3e42c2"/><path d="m126.17 120.4h-37.22a53.57 53.57 0 1 0 -37.27 0h-37.22a1.69 1.69 0 1 0 0 3.35h111.7a1.69 1.69 0 1 0 0-3.35zm-106.08-50.23a50.22 50.22 0 1 1 50.22 50.23 50.22 50.22 0 0 1 -50.22-50.23zm53.99-57.97a2.51 2.51 0 1 0 -2.51-2.51 2.51 2.51 0 0 0 2.51 2.51zm0-3.76a1.26 1.26 0 1 1 -1.26 1.26 1.26 1.26 0 0 1 1.26-1.27zm58.43 45.83a1.67 1.67 0 1 0 1.67 1.67 1.67 1.67 0 0 0 -1.67-1.67zm0 2.51a.84.84 0 1 1 .84-.84.84.84 0 0 1 -.84.84zm-23.69-56.37a1.67 1.67 0 1 0 1.67 1.67 1.67 1.67 0 0 0 -1.67-1.67zm0 2.51a.84.84 0 1 1 .84-.84.84.84 0 0 1 -.84.84zm26.23 7.26a1.67 1.67 0 1 0 1.67 1.67 1.67 1.67 0 0 0 -1.67-1.67zm0 2.51a.84.84 0 1 1 .84-.84.84.84 0 0 1 -.84.84zm-109.68 10.32a1.67 1.67 0 1 0 -1.67 1.67 1.67 1.67 0 0 0 1.67-1.67zm-2.51 0a.84.84 0 1 1 .84.84.84.84 0 0 1 -.84-.84z" fill="#3e42c2"/><path d="m9.11 54.28 1.25-1.64-.79-.44-.8 1.83h-.02l-.81-1.82-.8.46 1.23 1.6v.03l-1.93-.25v.89l1.94-.25v.03l-1.24 1.6.75.47.85-1.85h.03l.79 1.83.82-.47-1.26-1.57v-.03l1.98.24v-.89l-1.98.26v-.03zm1.07-51.64-.72.92.43.27.49-1.06h.01l.45 1.06.47-.27-.72-.9.01-.03 1.15.14v-.52l-1.14.15v-.01l.72-.94-.45-.26-.46 1.06h-.02l-.47-1.05-.46.26.71.92v.01l-1.11-.14v.51l1.12-.14v.01zm44.49.05v-.88l-1.94.26v-.03l1.22-1.6-.77-.44-.78 1.8h-.03l-.8-1.79-.78.45 1.21 1.57v.03l-1.9-.25v.87l1.9-.24v.03l-1.21 1.56.73.46.83-1.81h.03l.77 1.8.81-.46-1.23-1.54v-.03zm61.57 24.72 1.05-1.38-.67-.38-.68 1.55h-.02l-.69-1.54-.68.39 1.04 1.35v.02l-1.63-.21v.75l1.64-.21v.02l-1.05 1.35.63.4.72-1.56h.02l.67 1.55.7-.4-1.05-1.32v-.02l1.67.2v-.76l-1.67.22z" fill="#0bceb2"/><g fill="#3e42c2"><path d="m0 122.07a1.67 1.67 0 1 1 3.35 0 1.67 1.67 0 1 1 -3.35 0"/><path d="m9.21 120.4h-2.51a1.67 1.67 0 1 0 0 3.35h2.51a1.67 1.67 0 1 0 0-3.35zm124.72 0h-2.51a1.67 1.67 0 1 0 0 3.35h2.51a1.67 1.67 0 1 0 0-3.35z"/><path d="m137.29 122.07a1.67 1.67 0 1 1 3.35 0 1.67 1.67 0 1 1 -3.35 0"/></g><path d="m98.9 127.09h-6.95a1.68 1.68 0 0 0 0 3.35h6.95a1.68 1.68 0 0 0 0-3.35zm-50.22 0h-6.96a1.68 1.68 0 0 0 0 3.35h6.96a1.68 1.68 0 0 0 0-3.35zm38.38 0h-33.49a1.67 1.67 0 1 0 0 3.35h13.35v1.67l-6.65.01a1.67 1.67 0 1 0 0 3.35l20.93-.01a1.67 1.67 0 0 0 0-3.35l-7.49.01v-1.67l13.35-.01a1.67 1.67 0 1 0 0-3.35z" fill="#0bceb2"/></svg>