<svg width="111" height="111" viewBox="0 0 111 111" fill="none" xmlns="http://www.w3.org/2000/svg">
<path d="M79.825 106.47C82.3404 106.467 84.7519 105.466 86.5305 103.688C88.3092 101.909 89.3098 99.4974 89.313 96.982V13.488C89.3098 10.9726 88.3092 8.56114 86.5305 6.78248C84.7519 5.00382 82.3404 4.00318 79.825 4H30.488C27.9726 4.00318 25.5611 5.00382 23.7825 6.78248C22.0038 8.56114 21.0032 10.9726 21 13.488V96.982C21.0032 99.4974 22.0038 101.909 23.7825 103.688C25.5611 105.466 27.9726 106.467 30.488 106.47H79.825ZM72.96 7.8L70.918 11.886C70.5772 12.8131 69.9894 13.6292 69.218 14.2462C68.4467 14.8631 67.5213 15.2573 66.542 15.386H43.771C42.7917 15.256 41.8667 14.8605 41.0962 14.2423C40.3257 13.6241 39.7391 12.8068 39.4 11.879L37.353 7.8H72.96ZM30.488 7.8H33.11L36 13.575C36.6404 15.1433 37.7084 16.5002 39.0823 17.4911C40.4562 18.4821 42.0808 19.0673 43.771 19.18H66.542C68.2332 19.0693 69.8594 18.4857 71.235 17.4955C72.6105 16.5054 73.6802 15.1487 74.322 13.58L77.2 7.8H79.822C81.3319 7.8 82.7799 8.3998 83.8476 9.46744C84.9152 10.5351 85.515 11.9831 85.515 13.493V87.494H24.8V13.488C24.8013 11.9799 25.401 10.5339 26.4674 9.46744C27.5339 8.40102 28.9799 7.80132 30.488 7.8ZM24.8 96.982V91.289H85.518V96.982C85.518 98.4919 84.9182 99.9399 83.8506 101.008C82.7829 102.075 81.3349 102.675 79.825 102.675H30.488C28.979 102.674 27.5322 102.073 26.4657 101.006C25.3991 99.9383 24.8 98.491 24.8 96.982Z" fill="#2E3192"/>
<path d="M51.362 98.876H58.952C59.4559 98.876 59.9392 98.6758 60.2955 98.3195C60.6518 97.9632 60.852 97.4799 60.852 96.976C60.852 96.4721 60.6518 95.9888 60.2955 95.6325C59.9392 95.2762 59.4559 95.076 58.952 95.076H51.362C50.8581 95.076 50.3748 95.2762 50.0185 95.6325C49.6622 95.9888 49.462 96.4721 49.462 96.976C49.462 97.4799 49.6622 97.9632 50.0185 98.3195C50.3748 98.6758 50.8581 98.876 51.362 98.876ZM33.422 83.492C33.7339 83.6506 34.0836 83.7199 34.4325 83.6924C34.7813 83.6649 35.1158 83.5416 35.399 83.336L44.72 76.556L54.041 83.336C54.3654 83.5715 54.7561 83.6983 55.157 83.6983C55.5579 83.6983 55.9485 83.5715 56.273 83.336L65.594 76.556L74.915 83.336C75.1983 83.5408 75.5327 83.6635 75.8812 83.6905C76.2297 83.7175 76.579 83.6478 76.8905 83.4891C77.202 83.3304 77.4637 83.0888 77.6467 82.791C77.8298 82.4932 77.9271 82.1506 77.928 81.801V28.669C77.928 27.1591 77.3282 25.7111 76.2605 24.6435C75.1929 23.5758 73.7449 22.976 72.235 22.976H38.079C36.5691 22.976 35.1211 23.5758 34.0534 24.6435C32.9858 25.7111 32.386 27.1591 32.386 28.669V81.801C32.3862 82.1509 32.4831 82.494 32.6659 82.7924C32.8487 83.0908 33.1103 83.3329 33.422 83.492ZM36.186 28.669C36.186 28.1651 36.3862 27.6818 36.7425 27.3255C37.0988 26.9692 37.5821 26.769 38.086 26.769H72.235C72.7389 26.769 73.2222 26.9692 73.5785 27.3255C73.9348 27.6818 74.135 28.1651 74.135 28.669V78.076L66.712 72.676C66.3875 72.4405 65.9969 72.3137 65.596 72.3137C65.1951 72.3137 64.8045 72.4405 64.48 72.676L55.159 79.456L45.836 72.676C45.5115 72.4405 45.1209 72.3137 44.72 72.3137C44.3191 72.3137 43.9284 72.4405 43.604 72.676L36.186 78.076V28.669Z" fill="#4E52D4"/>
<path d="M43.774 59.031H66.543C67.0469 59.031 67.5302 58.8308 67.8865 58.4745C68.2428 58.1182 68.443 57.6349 68.443 57.131C68.443 56.6271 68.2428 56.1438 67.8865 55.7875C67.5302 55.4312 67.0469 55.231 66.543 55.231H43.774C43.2701 55.231 42.7868 55.4312 42.4305 55.7875C42.0742 56.1438 41.874 56.6271 41.874 57.131C41.874 57.6349 42.0742 58.1182 42.4305 58.4745C42.7868 58.8308 43.2701 59.031 43.774 59.031ZM66.543 66.623C67.0469 66.623 67.5302 66.4228 67.8865 66.0665C68.2428 65.7102 68.443 65.2269 68.443 64.723C68.443 64.2191 68.2428 63.7358 67.8865 63.3795C67.5302 63.0232 67.0469 62.823 66.543 62.823H43.774C43.2701 62.823 42.7868 63.0232 42.4305 63.3795C42.0742 63.7358 41.874 64.2191 41.874 64.723C41.874 65.2269 42.0742 65.7102 42.4305 66.0665C42.7868 66.4228 43.2701 66.623 43.774 66.623H66.543ZM57.055 43.85H66.543C67.0469 43.85 67.5302 43.6498 67.8865 43.2935C68.2428 42.9372 68.443 42.4539 68.443 41.95C68.443 41.4461 68.2428 40.9628 67.8865 40.6065C67.5302 40.2502 67.0469 40.05 66.543 40.05H57.055C56.8055 40.05 56.5584 40.0991 56.3279 40.1946C56.0974 40.2901 55.888 40.4301 55.7115 40.6065C55.5351 40.7829 55.3951 40.9924 55.2997 41.2229C55.2042 41.4534 55.155 41.7005 55.155 41.95C55.155 42.1995 55.2042 42.4466 55.2997 42.6771C55.3951 42.9076 55.5351 43.1171 55.7115 43.2935C55.888 43.4699 56.0974 43.6099 56.3279 43.7054C56.5584 43.8008 56.8055 43.85 57.055 43.85ZM57.055 36.26H66.543C67.0469 36.26 67.5302 36.0598 67.8865 35.7035C68.2428 35.3472 68.443 34.8639 68.443 34.36C68.443 33.8561 68.2428 33.3728 67.8865 33.0165C67.5302 32.6602 67.0469 32.46 66.543 32.46H57.055C56.8055 32.46 56.5584 32.5091 56.3279 32.6046C56.0974 32.7001 55.888 32.8401 55.7115 33.0165C55.5351 33.1929 55.3951 33.4024 55.2997 33.6329C55.2042 33.8634 55.155 34.1105 55.155 34.36C55.155 34.6095 55.2042 34.8566 55.2997 35.0871C55.3951 35.3176 55.5351 35.5271 55.7115 35.7035C55.888 35.8799 56.0974 36.0199 56.3279 36.1154C56.5584 36.2108 56.8055 36.26 57.055 36.26ZM57.055 51.441H66.543C67.0469 51.441 67.5302 51.2408 67.8865 50.8845C68.2428 50.5282 68.443 50.0449 68.443 49.541C68.443 49.0371 68.2428 48.5538 67.8865 48.1975C67.5302 47.8412 67.0469 47.641 66.543 47.641H57.055C56.8055 47.641 56.5584 47.6901 56.3279 47.7856C56.0974 47.8811 55.888 48.0211 55.7115 48.1975C55.5351 48.3739 55.3951 48.5834 55.2997 48.8139C55.2042 49.0444 55.155 49.2915 55.155 49.541C55.155 49.7905 55.2042 50.0376 55.2997 50.2681C55.3951 50.4986 55.5351 50.7081 55.7115 50.8845C55.888 51.0609 56.0974 51.2009 56.3279 51.2964C56.5584 51.3918 56.8055 51.441 57.055 51.441Z" fill="#4E52D4"/>
<path d="M43.1611 42.49C43.1611 41.649 43.1611 40.811 43.1611 39.971C43.1611 39.817 43.1311 39.765 42.9721 39.78C42.3901 39.793 41.8061 39.78 41.2221 39.78C40.9569 39.78 40.7025 39.6747 40.515 39.4871C40.3275 39.2996 40.2221 39.0452 40.2221 38.78C40.2221 38.5148 40.3275 38.2604 40.515 38.0729C40.7025 37.8854 40.9569 37.78 41.2221 37.78C41.8061 37.78 42.3901 37.768 42.9721 37.78C43.1251 37.791 43.1661 37.754 43.1661 37.59C43.1541 36.319 43.1611 35.061 43.1611 33.802C43.1628 33.6707 43.1386 33.5403 43.0899 33.4183C43.0413 33.2964 42.969 33.1852 42.8774 33.0911C42.7857 32.997 42.6765 32.9219 42.5558 32.8701C42.4351 32.8183 42.3054 32.7907 42.1741 32.789C42.0428 32.7873 41.9124 32.8115 41.7904 32.8602C41.6684 32.9088 41.5572 32.9811 41.4632 33.0727C41.3691 33.1644 41.294 33.2736 41.2422 33.3943C41.1904 33.515 41.1628 33.6447 41.1611 33.776C41.1531 34.0412 41.0402 34.2924 40.847 34.4743C40.6538 34.6562 40.3963 34.754 40.1311 34.746C39.8659 34.7381 39.6147 34.6251 39.4328 34.4319C39.2509 34.2387 39.1531 33.9812 39.1611 33.716C39.1822 32.9708 39.4801 32.2602 39.9966 31.7226C40.513 31.185 41.2112 30.859 41.9549 30.8081C42.6987 30.7571 43.4347 30.9849 44.0197 31.4471C44.6046 31.9093 44.9966 32.5727 45.1191 33.308C45.1482 33.5006 45.1623 33.6952 45.1611 33.89C45.1611 35.098 45.1611 36.333 45.1611 37.568C45.1611 37.744 45.2041 37.795 45.3901 37.784C46.6421 37.773 47.9001 37.79 49.1611 37.79C49.4083 37.7885 49.6473 37.8786 49.832 38.043C50.0167 38.2074 50.1339 38.4343 50.1611 38.68C50.1842 38.9284 50.1155 39.1767 49.9682 39.3781C49.8208 39.5794 49.6049 39.7199 49.3611 39.773C49.2616 39.785 49.1613 39.7897 49.0611 39.787C47.8381 39.787 46.6131 39.787 45.3881 39.773C45.1991 39.773 45.1591 39.825 45.1611 40.017C45.1691 41.585 45.1611 43.123 45.1611 44.688C45.1613 45.4253 45.4225 46.1388 45.8984 46.702C46.3743 47.2651 47.0342 47.6417 47.7611 47.765C48.4193 47.8406 49.0843 47.7 49.6556 47.3645C50.2269 47.029 50.6735 46.5167 50.9281 45.905C51.0041 45.689 50.8281 45.753 50.7561 45.753C50.2902 45.6574 49.8734 45.3995 49.5799 45.0252C49.2864 44.651 49.1352 44.1848 49.1534 43.7095C49.1715 43.2342 49.3577 42.7809 49.6789 42.4301C50 42.0793 50.4353 41.8539 50.9071 41.794C51.3877 41.7202 51.8785 41.8312 52.2806 42.1047C52.6827 42.3782 52.9662 42.7939 53.0741 43.268C53.5451 46.082 52.4281 48.833 49.3071 49.634C48.6502 49.7881 47.9689 49.8073 47.3043 49.6906C46.6397 49.574 46.0057 49.3237 45.4406 48.9551C44.8755 48.5864 44.391 48.107 44.0164 47.5458C43.6417 46.9846 43.3848 46.3533 43.2611 45.69C43.1626 44.946 43.1291 44.1948 43.1611 43.445C43.1541 43.132 43.1611 42.814 43.1611 42.49Z" fill="#4E52D4" stroke="#3E42C2" stroke-width="0.8"/>
</svg>
