<svg fill="none" height="95" viewBox="0 0 79 95" width="79" xmlns="http://www.w3.org/2000/svg"><path d="m57 2h-52c-1.65685 0-3 1.34315-3 3v85c0 1.6569 1.34315 3 3 3h52c1.6569 0 3-1.3431 3-3v-85c0-1.65685-1.3431-3-3-3z" fill="#7b7ee8"/><path d="m8.26099 8.26099h45.43501v78.47801h-45.43501z" fill="#f8f9f9"/><path d="m39.239 33.044h-4.13v14.456h-8.257v-14.456h-4.13l8.261-10.326zm-2.065-20.653h-12.392c-1.0954 0-2.1458-.4351-2.9204-1.2097-.7745-.7745-1.2096-1.82497-1.2096-2.92031h20.652c0 .54236-.1068 1.0794-.3144 1.58048-.2076.50103-.5118.95633-.8953 1.33983s-.8388.6878-1.3398.8953c-.5011.2076-1.0382.3144-1.5805.3144z" fill="#7b7ee8"/><path d="m62 43c7.732 0 14-6.4919 14-14.5s-6.268-14.5-14-14.5-14 6.4919-14 14.5 6.268 14.5 14 14.5z" fill="#7b7ee8"/><path d="m59.891 35.113c-1.115 0-1.177-.31-5.6-4.729-.3843-.3899-.5988-.9159-.5968-1.4634.002-.5474.2204-1.0718.6075-1.4589s.9115-.6054 1.4589-.6074 1.0734.2125 1.4634.5967l2.667 2.68 6.795-6.818c.3899-.3842.9159-.5987 1.4633-.5967s1.0719.2203 1.4589.6074c.3871.3871.6055.9115.6075 1.4589.002.5475-.2125 1.0735-.5967 1.4634l-8.262 8.267c-.1929.1916-.4217.3432-.6732.4461-.2516.103-.521.1553-.7928.1539z" fill="#f8f9f9"/><path d="m61.957 12.391v-4.13c0-2.19026-.8698-4.29087-2.4182-5.84-1.5483-1.549119-3.6485-2.41993947-5.8388-2.421h-45.439c-2.19095 0-4.29217.870353-5.84141 2.41959-1.549237 1.54924-2.41959 3.65046-2.41959 5.84141v78.478c0 2.191.870353 4.2922 2.41959 5.8414 1.54924 1.5492 3.65046 2.4196 5.84141 2.4196h45.439c2.191 0 4.2922-.8704 5.8414-2.4196s2.4196-3.6504 2.4196-5.8414v-41.3c4.3595-.0339 8.5289-1.7895 11.5996-4.8842 3.0708-3.0947 4.7939-7.2777 4.7939-11.6373s-1.7231-8.5426-4.7939-11.6373c-3.0707-3.0947-7.2401-4.8503-11.5996-4.8842zm-4.13 74.348c0 1.0953-.4351 2.1458-1.2096 2.9203-.7746.7746-1.8251 1.2097-2.9204 1.2097h-45.436c-1.09534 0-2.14583-.4351-2.92035-1.2097-.77453-.7745-1.20965-1.825-1.20965-2.9203v-78.478c0-1.09534.43512-2.14583 1.20965-2.92035.77452-.77453 1.82501-1.20965 2.92035-1.20965h45.439c1.0953 0 2.1458.43512 2.9203 1.20965.7746.77452 1.2097 1.82501 1.2097 2.92035v4.647c-3.5538.9101-6.7036 2.977-8.9529 5.875-2.2494 2.8979-3.4703 6.462-3.4703 10.1305s1.2209 7.2326 3.4703 10.1305c2.2493 2.898 5.3991 4.9649 8.9529 5.875zm4.13-45.439c-2.4509 0-4.8467-.7268-6.8845-2.0885-2.0378-1.3618-3.6259-3.2972-4.5637-5.5616-.9377-2.2644-1.1829-4.756-.7044-7.1597.4784-2.4038 1.6589-4.6116 3.3923-6.3444 1.7333-1.7327 3.9415-2.9125 6.3454-3.3902s4.8954-.2317 7.1595.7068c2.2641.9384 4.199 2.5272 5.5601 4.5654 1.361 2.0383 2.0871 4.4343 2.0863 6.8852-.0011 3.2856-1.307 6.4363-3.6307 8.7592-2.3236 2.3229-5.4747 3.6278-8.7603 3.6278z" fill="#2e3192"/><path d="m31 72c9.3888 0 17-7.3873 17-16.5s-7.6112-16.5-17-16.5-17 7.3873-17 16.5 7.6112 16.5 17 16.5z" fill="#3e42c2"/><path d="m35.109 82.608h-8.261c-.5477 0-1.073-.2176-1.4602-.6048-.3873-.3873-.6048-.9125-.6048-1.4602s.2175-1.0729.6048-1.4602c.3872-.3872.9125-.6048 1.4602-.6048h8.261c.5476 0 1.0729.2176 1.4601.6048.3873.3873.6049.9125.6049 1.4602s-.2176 1.0729-.6049 1.4602c-.3872.3872-.9125.6048-1.4601.6048z" fill="#7b7ee8"/><path d="m27.196 57.22c0-.837 0-1.671 0-2.508 0-.153-.03-.205-.188-.191-.58.013-1.161 0-1.742 0-.1394.0147-.2803-.0001-.4136-.0434s-.256-.1141-.3602-.2079c-.1041-.0938-.1874-.2084-.2444-.3364-.0571-.1281-.0865-.2667-.0865-.4068 0-.1402.0294-.2788.0865-.4068.057-.128.1403-.2427.2444-.3364.1042-.0938.2269-.1646.3602-.2079s.2742-.0581.4136-.0434c.581 0 1.163-.012 1.742 0 .152.011.193-.026.193-.189-.008-1.273-.002-2.521-.005-3.773.0056-.133-.0156-.2657-.0622-.3904-.0466-.1246-.1178-.2386-.2093-.3353-.0914-.0967-.2014-.174-.3233-.2274s-.2532-.0818-.3863-.0836c-.1331-.0017-.2651.0233-.3884.0735-.1232.0502-.2352.1246-.3291.2188-.094.0943-.1681.2064-.218.3298s-.0745.2555-.0724.3886c.0096.1394-.0102.2793-.058.4106-.0479.1313-.1227.2511-.2197.3517s-.214.1798-.3434.2324c-.1295.0526-.2685.0775-.4082.0731s-.2769-.0381-.4028-.0988c-.1258-.0607-.2376-.1471-.328-.2536-.0904-.1066-.1575-.2309-.1969-.365-.0395-.134-.0503-.2749-.032-.4134.0174-.7441.3122-1.4549.8266-1.9929s1.2112-.8644 1.9537-.9152c.7426-.0509 1.4774.1776 2.0603.6404.5828.4629.9717 1.1269 1.0904 1.8617.0281.1923.0412.3866.039.581v3.661c0 .176.042.226.228.215 1.253-.012 2.505 0 3.757 0 .246-.0019.4838.0878.6674.2515.1835.1638.2996.3899.3256.6345.0229.2478-.0459.4954-.1933.6959-.1475.2005-.3633.34-.6067.3921-.0995.012-.1998.0167-.3.014-1.218 0-2.436 0-3.656-.014-.189 0-.228.052-.226.243.008 1.561 0 3.092 0 4.649-.0014.7369.259 1.4504.7349 2.0131.4758.5627 1.1362.938 1.8631 1.0589.6552.0754 1.3172-.0644 1.886-.3983s1.0135-.8438 1.267-1.4527c.076-.215-.1-.151-.171-.151-.4619-.0973-.8745-.3547-1.1649-.7269-.2903-.3722-.4397-.8351-.4216-1.3068s.2024-.9218.5204-1.2707.7491-.574 1.2171-.6356c.4784-.0735.9669.0369 1.3671.3091.4003.2722.6825.6859.7899 1.1579.469 2.8-.643 5.539-3.75 6.337-.6546.1547-1.3337.1749-1.9963.0593s-1.2949-.3645-1.8584-.7317c-.5636-.3672-1.0467-.845-1.4201-1.4044-.3734-.5595-.6293-1.1889-.7522-1.8502-.0982-.7404-.1317-1.4879-.1-2.234-.002-.316.001-.632.001-.951z" fill="#fff" stroke="#fff" stroke-width=".8"/></svg>