<svg fill="none" height="18" viewBox="0 0 18 18" width="18" xmlns="http://www.w3.org/2000/svg"><path d="m2.04305 17.319c-.29863.001-.59082-.0868-.83946-.2522-.248647-.1654-.442546-.401-.557085-.6768s-.144559-.5793-.086243-.8722.202346-.5618.413788-.7727l5.96799-5.96505-5.96799-5.96503c-.140355-.13999-.251718-.30629-.327698-.48938s-.115097-.37934-.115097-.57757c0-.19824.039117-.39455.115097-.57764.07598-.183096.187343-.349393.327698-.489381.13999-.140355.30629-.251718.48938-.327698s.37939-.115113.57762-.115113.39451.039133.57761.115113c.18309.07598.34939.187343.48938.327698l5.966 5.963991 5.96496-5.96802c.2643-.288168.63-.462607 1.0203-.486755s.7747.103912 1.0725.3573.4858.612365.5244 1.001465c.0387.3891-.075.778-.3172 1.08502-.0598.0732-.1268.14022-.2.20001l-5.938 5.94397 5.973 5.96707c.1333.1555.234.3362.2964.5313.0623.1951.085.4007.0666.6047-.0188.1978-.0767.39-.1705.5653-.0937.1752-.2213.3301-.3755.4557-.2706.2211-.6094.3418-.959.3418-.3495 0-.6883-.1207-.959-.3418l-.0299-.029-5.96506-5.9651-5.965 5.9651c-.13984.1416-.30647.2539-.49017.3305-.1837.0765-.3808.1158-.57982.1154z" fill="#d63025"/></svg>