<svg fill="none" height="13" viewBox="0 0 18 13" width="18" xmlns="http://www.w3.org/2000/svg"><g fill="#fff"><path d="m16.7691 5.21704h-15.65116c-.617416 0-1.11794.50052-1.11794 1.11794s.500524 1.11795 1.11794 1.11795h15.65116c.6175 0 1.118-.50053 1.118-1.11795s-.5005-1.11794-1.118-1.11794z"/><path d="m1.11794 2.23589h15.65116c.6175 0 1.118-.50053 1.118-1.11795 0-.617416-.5005-1.11794-1.118-1.11794h-15.65116c-.617416 0-1.11794.500524-1.11794 1.11794 0 .61742.500524 1.11795 1.11794 1.11795z"/><path d="m16.7691 10.4342h-15.65116c-.617416 0-1.11794.5005-1.11794 1.1179 0 .6175.500524 1.118 1.11794 1.118h15.65116c.6175 0 1.118-.5005 1.118-1.118 0-.6174-.5005-1.1179-1.118-1.1179z"/></g></svg>