<svg width="88" height="77" viewBox="0 0 88 77" fill="none" xmlns="http://www.w3.org/2000/svg">
<path d="M39.1899 43.293C36.0185 43.293 32.9182 42.3526 30.2813 40.5906C27.6443 38.8286 25.5891 36.3242 24.3754 33.3941C23.1618 30.4641 22.8443 27.2399 23.4631 24.1294C24.0819 21.0189 25.6092 18.1617 27.8518 15.9192C30.0945 13.6767 32.9517 12.1496 36.0623 11.531C39.1728 10.9124 42.397 11.2301 45.327 12.4439C48.257 13.6577 50.7612 15.7131 52.523 18.3502C54.2849 20.9873 55.2251 24.0876 55.2249 27.259C55.2123 31.5078 53.5188 35.5789 50.5144 38.5831C47.5099 41.5874 43.4387 43.2806 39.1899 43.293ZM39.1899 14.43C36.6529 14.43 34.1727 15.1824 32.0632 16.5919C29.9537 18.0014 28.3095 20.0048 27.3385 22.3487C26.3676 24.6927 26.1135 27.2719 26.6084 29.7603C27.1033 32.2486 28.3249 34.5344 30.1188 36.3284C31.9128 38.1225 34.1984 39.3443 36.6867 39.8394C39.175 40.3345 41.7543 40.0806 44.0983 39.1098C46.4423 38.1391 48.4459 36.495 49.8556 34.3856C51.2652 32.2762 52.0177 29.7961 52.0179 27.259C52.0079 23.8599 50.6532 20.6029 48.2496 18.1993C45.8461 15.7958 42.5891 14.4411 39.1899 14.431V14.43ZM39.1899 76.966C34.0003 76.99 28.8609 75.9494 24.0893 73.9086C19.3177 71.8678 15.0153 68.8702 11.4479 65.101L10.6479 64.301L11.1289 63.339C13.4966 57.8624 17.415 53.1984 22.4012 49.9218C27.3874 46.6452 33.2235 44.8992 39.1899 44.8992C45.1564 44.8992 50.9925 46.6452 55.9787 49.9218C60.9649 53.1984 64.8833 57.8624 67.2509 63.339L67.7319 64.301L66.9319 65.101C63.3646 68.8702 59.0622 71.8678 54.2906 73.9086C49.519 75.9494 44.3796 76.99 39.1899 76.966ZM14.4959 63.658C21.0846 70.1322 29.9523 73.7599 39.1894 73.7599C48.4266 73.7599 57.2943 70.1322 63.8829 63.658C61.6526 59.0007 58.1506 55.069 53.7812 52.3169C49.4119 49.5648 44.3533 48.1045 39.1894 48.1045C34.0256 48.1045 28.967 49.5648 24.5976 52.3169C20.2283 55.069 16.7263 59.0007 14.4959 63.658Z" fill="#F90000"/>
<path d="M13.2131 66.865L11.6061 65.1C4.61547 58.0052 0.699669 48.4431 0.706063 38.483C0.714118 30.6498 3.11 23.0052 7.57422 16.5686C12.0384 10.132 18.3588 5.20926 25.6926 2.4569C33.0263 -0.295451 41.0249 -0.746646 48.6216 1.16348C56.2184 3.07361 63.0523 7.25428 68.2121 13.148C68.4885 13.4671 68.627 13.8829 68.5969 14.304C68.5668 14.7251 68.3706 15.117 68.0516 15.3935C67.7325 15.67 67.3167 15.8084 66.8956 15.7783C66.4745 15.7482 66.0826 15.5521 65.8061 15.233C61.0697 9.83775 54.8024 6.0131 47.8385 4.26823C40.8745 2.52335 33.5443 2.94102 26.8236 5.46564C20.1029 7.99026 14.3106 12.5021 10.2177 18.4004C6.12494 24.2987 3.92579 31.3038 3.91306 38.483C3.88937 46.8239 6.84642 54.8989 12.2511 61.252C14.8145 56.3216 18.682 52.1892 23.432 49.3052C28.1821 46.4211 33.6325 44.896 39.1896 44.896C44.7466 44.896 50.1971 46.4211 54.9471 49.3052C59.6972 52.1892 63.5646 56.3216 66.1281 61.252C67.6986 59.4437 69.0444 57.4519 70.1361 55.32C70.2365 55.1222 70.3759 54.9468 70.5457 54.804C70.7155 54.6613 70.9123 54.5542 71.1244 54.4893C71.3365 54.4243 71.5595 54.4027 71.7802 54.4259C72.0008 54.449 72.2145 54.5164 72.4085 54.6239C72.6025 54.7315 72.7728 54.877 72.9093 55.0519C73.0458 55.2268 73.1457 55.4273 73.203 55.6416C73.2603 55.8559 73.2738 56.0796 73.2427 56.2992C73.2116 56.5189 73.1366 56.73 73.0221 56.92C71.3762 59.9613 69.3267 62.7661 66.9291 65.258L65.3291 67.022L64.3671 64.777C62.2574 59.8422 58.7488 55.6332 54.2745 52.6696C49.8001 49.7059 44.5559 48.1174 39.1891 48.1C33.8596 48.0995 28.6474 49.6651 24.2002 52.6021C19.7531 55.5392 16.267 59.7182 14.1751 64.62L13.2131 66.865Z" fill="#F90000"/>
<path d="M82.483 49.708H63.241C62.6061 49.7195 61.9753 49.603 61.3865 49.3653C60.7976 49.1276 60.2627 48.7736 59.8137 48.3245C59.3648 47.8755 59.0109 47.3405 58.7733 46.7516C58.5357 46.1627 58.4193 45.5319 58.431 44.897V25.655C58.4194 25.0202 58.536 24.3895 58.7736 23.8008C59.0113 23.212 59.3651 22.6771 59.8141 22.2282C60.2631 21.7792 60.7979 21.4253 61.3867 21.1877C61.9755 20.95 62.6061 20.8335 63.241 20.845H82.483C83.1178 20.8335 83.7484 20.95 84.3372 21.1877C84.926 21.4253 85.4609 21.7792 85.9098 22.2282C86.3588 22.6771 86.7127 23.212 86.9503 23.8008C87.188 24.3895 87.3045 25.0202 87.293 25.655V44.897C87.3046 45.5319 87.1882 46.1627 86.9506 46.7516C86.713 47.3405 86.3592 47.8755 85.9102 48.3245C85.4612 48.7736 84.9263 49.1276 84.3375 49.3653C83.7486 49.603 83.1179 49.7195 82.483 49.708ZM63.241 24.052C63.0276 24.0397 62.8141 24.0726 62.6144 24.1486C62.4147 24.2247 62.2333 24.3421 62.0822 24.4932C61.9311 24.6443 61.8136 24.8257 61.7376 25.0254C61.6616 25.2251 61.6286 25.4387 61.641 25.652V44.897C61.6286 45.1104 61.6616 45.3239 61.7376 45.5236C61.8136 45.7233 61.9311 45.9047 62.0822 46.0558C62.2333 46.2069 62.4147 46.3244 62.6144 46.4004C62.8141 46.4764 63.0276 46.5094 63.241 46.497H82.483C82.6963 46.5094 82.9099 46.4764 83.1096 46.4004C83.3093 46.3244 83.4907 46.2069 83.6418 46.0558C83.7929 45.9047 83.9103 45.7233 83.9864 45.5236C84.0624 45.3239 84.0953 45.1104 84.083 44.897V25.655C84.0953 25.4417 84.0624 25.2281 83.9864 25.0284C83.9103 24.8287 83.7929 24.6473 83.6418 24.4962C83.4907 24.3451 83.3093 24.2277 83.1096 24.1516C82.9099 24.0756 82.6963 24.0427 82.483 24.055L63.241 24.052Z" fill="#F90000"/>
<path d="M77.352 41.37C77.1413 41.3758 76.9318 41.3358 76.7381 41.2528C76.5444 41.1697 76.371 41.0456 76.23 40.889L67.09 31.749C66.7922 31.4513 66.625 31.0475 66.625 30.6265C66.625 30.2055 66.7922 29.8017 67.09 29.504C67.3877 29.2063 67.7914 29.0391 68.2125 29.0391C68.6335 29.0391 69.0372 29.2063 69.335 29.504L78.475 38.644C78.627 38.7888 78.748 38.9629 78.8307 39.1559C78.9134 39.3488 78.9561 39.5566 78.9561 39.7665C78.9561 39.9764 78.9134 40.1842 78.8307 40.3771C78.748 40.5701 78.627 40.7442 78.475 40.889C78.3338 41.0458 78.1602 41.1699 77.9663 41.253C77.7724 41.336 77.5628 41.376 77.352 41.37Z" fill="#F90000"/>
<path d="M68.369 41.37C68.1583 41.3758 67.9489 41.3358 67.7551 41.2528C67.5614 41.1697 67.3881 41.0456 67.247 40.889C67.095 40.7442 66.9739 40.5701 66.8912 40.3771C66.8085 40.1842 66.7659 39.9764 66.7659 39.7665C66.7659 39.5566 66.8085 39.3488 66.8912 39.1559C66.9739 38.9629 67.095 38.7888 67.247 38.644L76.387 29.504C76.6847 29.2063 77.0885 29.0391 77.5095 29.0391C77.9305 29.0391 78.3343 29.2063 78.632 29.504C78.9297 29.8017 79.0969 30.2055 79.0969 30.6265C79.0969 31.0475 78.9297 31.4513 78.632 31.749L69.492 40.889C69.1888 41.1802 68.79 41.3512 68.37 41.37H68.369Z" fill="#F90000"/>
</svg>
