<svg width="181" height="181" viewBox="0 0 181 181" fill="none" xmlns="http://www.w3.org/2000/svg">
<g clip-path="url(#clip0_430_45564)">
<path d="M90.5 181C140.482 181 181 140.482 181 90.5C181 40.5182 120.5 49.5 70 100.5C21 107 8 31 0 90.5C0 140.482 40.5182 181 90.5 181Z" fill="#E2E3FF"/>
<path d="M66.3953 115.458C66.3944 115.458 66.3934 115.458 66.3924 115.458L59.5302 115.36C59.4095 115.358 59.3136 115.259 59.3156 115.139L59.3601 112.042C58.4145 111.756 57.5016 111.363 56.6441 110.872L54.4236 113.03C54.3821 113.071 54.3326 113.093 54.2684 113.091C54.211 113.09 54.1556 113.067 54.115 113.025L49.3319 108.104C49.2478 108.017 49.2498 107.879 49.3359 107.795L51.5573 105.637C51.0905 104.764 50.7235 103.842 50.4654 102.888L47.3686 102.844C47.3112 102.843 47.2558 102.819 47.2153 102.777C47.1747 102.736 47.153 102.68 47.154 102.622L47.2519 95.7599C47.2539 95.6392 47.3488 95.5453 47.4734 95.5453L50.5702 95.5898C50.857 94.6442 51.2497 93.7313 51.7403 92.8738L49.5821 90.6533C49.4981 90.5673 49.5 90.4288 49.5861 90.3447L54.5077 85.5616C54.5492 85.5211 54.6106 85.5003 54.663 85.5003C54.7204 85.5013 54.7757 85.525 54.8163 85.5665L56.9744 87.787C57.8468 87.3212 58.7696 86.9542 59.7231 86.6951L59.7676 83.5983C59.7686 83.5409 59.7923 83.4855 59.8339 83.445C59.8754 83.4044 59.9318 83.3856 59.9891 83.3837L66.8513 83.4816C66.972 83.4836 67.0679 83.5825 67.0659 83.7031L67.0214 86.7999C67.967 87.0858 68.8799 87.4794 69.7374 87.97L71.9579 85.8118C71.9994 85.7713 72.0617 85.7515 72.1132 85.7505C72.1705 85.7515 72.2259 85.7752 72.2665 85.8168L77.0486 90.7384C77.1327 90.8244 77.1307 90.9629 77.0447 91.047L74.8232 93.2051C75.2901 94.0765 75.656 94.9993 75.9152 95.9538L79.0119 95.9983C79.0693 95.9993 79.1247 96.023 79.1653 96.0645C79.2058 96.1061 79.2276 96.1615 79.2266 96.2198L79.1287 103.082C79.1267 103.203 79.0327 103.296 78.9071 103.297L75.8103 103.252C75.5245 104.198 75.1308 105.111 74.6403 105.968L76.7984 108.189C76.839 108.23 76.8607 108.286 76.8597 108.344C76.8587 108.402 76.835 108.457 76.7935 108.497L71.8718 113.28C71.7858 113.364 71.6473 113.362 71.5632 113.276L69.4051 111.056C68.5337 111.522 67.6109 111.889 66.6565 112.148L66.612 115.245C66.611 115.302 66.5872 115.357 66.5457 115.398C66.5071 115.436 66.4527 115.458 66.3953 115.458ZM59.7547 114.927L66.1807 115.019L66.2242 111.975C66.2262 111.877 66.2925 111.792 66.3874 111.767C67.4171 111.501 68.4111 111.106 69.3418 110.593C69.4278 110.546 69.5347 110.561 69.6039 110.632L71.7255 112.814L76.3345 108.336L74.213 106.153C74.1447 106.083 74.1319 105.975 74.1813 105.89C74.7214 104.974 75.1447 103.992 75.4394 102.97C75.4671 102.876 75.5443 102.812 75.6521 102.813L78.6964 102.857L78.7884 96.4305L75.7441 96.387C75.6461 96.386 75.5611 96.3187 75.5364 96.2238C75.2713 95.1942 74.8757 94.2001 74.3623 93.2694C74.3148 93.1834 74.3307 93.0766 74.4009 93.0073L76.5838 90.8858L72.1053 86.2767L69.9224 88.3983C69.8512 88.4665 69.7443 88.4794 69.6593 88.4299C68.7434 87.8899 67.7603 87.4666 66.7396 87.1718C66.6446 87.1441 66.5803 87.0571 66.5823 86.9592L66.6258 83.9148L60.1998 83.8228L60.1563 86.8672C60.1543 86.9651 60.088 87.0502 59.9931 87.0749C58.9645 87.34 57.9704 87.7356 57.0387 88.2489C56.9527 88.2964 56.8459 88.2806 56.7776 88.2103L54.6561 86.0275L50.047 90.506L52.1686 92.6888C52.2368 92.7591 52.2497 92.8669 52.2002 92.9519C51.6602 93.8678 51.2368 94.85 50.9421 95.8717C50.9144 95.9656 50.8244 96.028 50.7295 96.0289L47.6851 95.9854L47.5931 102.411L50.6375 102.455C50.7354 102.456 50.8205 102.523 50.8452 102.618C51.1102 103.647 51.5059 104.641 52.0192 105.572C52.0667 105.659 52.0509 105.765 51.9806 105.835L49.7978 107.956L54.2763 112.565L56.4591 110.444C56.5304 110.375 56.6372 110.363 56.7222 110.412C57.6381 110.952 58.6203 111.375 59.642 111.67C59.7369 111.698 59.8012 111.785 59.7992 111.883L59.7547 114.927ZM63.1918 106.778C61.271 106.778 59.3532 106.033 57.9121 104.551C55.0833 101.64 55.1506 96.9705 58.0614 94.1418C59.4719 92.7709 61.3313 92.0311 63.2966 92.0608C65.2629 92.0885 67.0996 92.8807 68.4704 94.2911C71.2992 97.202 71.2319 101.871 68.3221 104.7C66.8919 106.088 65.0413 106.778 63.1918 106.778ZM63.1878 92.496C61.3758 92.496 59.6667 93.1893 58.3651 94.4543C55.6263 97.1149 55.564 101.508 58.2246 104.246C60.8862 106.985 65.2787 107.047 68.0164 104.387C70.7552 101.725 70.8175 97.3325 68.1569 94.5948C66.8671 93.2684 65.1392 92.5227 63.2897 92.497C63.2551 92.497 63.2214 92.496 63.1878 92.496ZM68.1678 104.544H68.1697H68.1678Z" fill="#C6C7F7"/>
<path d="M49.9649 63.0632C50.0984 64.3203 50.2211 65.4992 50.3546 66.6762C50.3734 66.8424 50.3328 66.9275 50.1864 67.0076C48.2182 68.0876 46.1451 68.8779 43.9335 69.2953C43.7634 69.3279 43.6823 69.2716 43.5953 69.139C42.9573 68.1717 42.3124 67.2094 41.6705 66.244C41.5954 66.1313 41.5321 66.0472 41.3629 66.0601C39.8684 66.1708 38.3799 66.0937 36.9002 65.8642C36.6747 65.8296 36.5501 65.8939 36.4156 66.064C35.7282 66.9304 35.025 67.784 34.3356 68.6494C34.2021 68.8166 34.0755 68.8591 33.8638 68.7978C31.7719 68.1945 29.8304 67.2717 28.0095 66.0848C27.8028 65.9503 27.7454 65.8138 27.7968 65.5665C28.0233 64.4845 28.2221 63.3965 28.4407 62.3134C28.4793 62.1226 28.4526 61.9871 28.2983 61.8515C27.1797 60.8684 26.1866 59.7686 25.3103 58.5649C25.2114 58.4284 25.1056 58.4096 24.9523 58.4264C23.8178 58.551 22.6823 58.6638 21.5489 58.7904C21.3342 58.8141 21.2215 58.7449 21.1186 58.553C20.088 56.6391 19.3165 54.6333 18.8962 52.4959C18.8507 52.2645 18.9081 52.1458 19.093 52.0232C20.0445 51.3941 20.9891 50.7522 21.9376 50.1192C22.0533 50.042 22.1245 49.9758 22.1156 49.8086C22.0355 48.4121 22.0414 47.0165 22.2719 45.6328C22.3391 45.2263 22.264 44.9642 21.9158 44.702C21.089 44.0789 20.3066 43.3975 19.4995 42.7486C19.3452 42.624 19.3185 42.5043 19.3719 42.3174C19.9772 40.2364 20.8862 38.2978 22.0741 36.4868C22.2185 36.2663 22.3579 36.1921 22.6319 36.2514C23.713 36.4819 24.8009 36.6777 25.885 36.8953C26.0709 36.9329 26.1975 36.8943 26.3221 36.7519C27.3072 35.6224 28.415 34.6264 29.6227 33.7392C29.6939 33.6868 29.7493 33.5513 29.7404 33.4613C29.6266 32.308 29.5079 31.1557 29.3704 30.0054C29.3437 29.7819 29.4169 29.682 29.5999 29.5801C31.5187 28.5149 33.5562 27.779 35.7054 27.3409C35.9023 27.3003 36.0121 27.3528 36.1189 27.512C36.7578 28.4674 37.4076 29.4169 38.0456 30.3734C38.1445 30.5217 38.2404 30.5662 38.4264 30.5583C39.8051 30.499 41.1849 30.4822 42.5488 30.7275C42.9474 30.7987 43.2016 30.7186 43.4578 30.3783C44.0799 29.5515 44.7604 28.7671 45.4082 27.9591C45.5299 27.8067 45.6496 27.7632 45.8365 27.8176C47.9858 28.4437 49.9837 29.3912 51.8481 30.6266C51.9984 30.7255 51.9678 30.8402 51.942 30.9688C51.7264 32.0528 51.5187 33.1388 51.2892 34.2209C51.2309 34.4948 51.2873 34.6659 51.5019 34.8549C52.5731 35.7974 53.5384 36.8399 54.3682 38.0031C54.483 38.1633 54.5927 38.2236 54.8005 38.1979C55.925 38.0634 57.0516 37.9546 58.1762 37.8231C58.3839 37.7983 58.4867 37.8567 58.5866 38.0387C59.6499 39.9684 60.4006 42.0088 60.8318 44.1699C60.8714 44.3658 60.8348 44.4736 60.6706 44.5814C59.7043 45.2213 58.7419 45.8672 57.7855 46.521C57.7024 46.5783 57.6134 46.7089 57.6183 46.8009C57.6974 48.2963 57.6599 49.7849 57.4165 51.2645C57.3809 51.4841 57.4393 51.6176 57.6124 51.7561C58.4778 52.4455 59.3294 53.1507 60.1919 53.843C60.3551 53.9746 60.4154 54.0982 60.3521 54.3119C59.725 56.4225 58.8181 58.3997 57.5867 60.2275C57.4769 60.3907 57.3631 60.4303 57.1693 60.3907C56.0862 60.1682 54.9993 59.9664 53.9162 59.7429C53.6719 59.6924 53.5127 59.7458 53.3465 59.9347C52.3871 61.0277 51.3051 61.988 50.1399 62.8555C50.0559 62.9178 49.9995 63.0206 49.9649 63.0632ZM39.8447 37.6391C33.9845 37.643 29.2013 42.4262 29.1944 48.2894C29.1875 54.1912 33.9607 58.9783 39.8526 58.9793C45.7613 58.9803 50.5306 54.2031 50.5316 48.2815C50.5336 42.4173 45.7307 37.6351 39.8447 37.6391Z" fill="#C6C7F7"/>
<path d="M121.812 19.3137H49.2933V156.125H121.812V19.3137Z" fill="#7B7EE8"/>
<path d="M118.423 164.421H52.1794C47.423 164.421 43.5527 160.552 43.5527 155.795V18.3434C43.5527 13.5869 47.422 9.71667 52.1794 9.71667H118.423C123.18 9.71667 127.05 13.5859 127.05 18.3434V155.796C127.049 160.552 123.18 164.421 118.423 164.421ZM52.1794 10.1529C47.6633 10.1529 43.9889 13.8273 43.9889 18.3434V155.796C43.9889 160.312 47.6633 163.986 52.1794 163.986H118.423C122.94 163.986 126.614 160.312 126.614 155.796V18.3434C126.614 13.8273 122.94 10.1529 118.423 10.1529H52.1794Z" fill="#363E44"/>
<path d="M116.496 29.4803H54.1852V69.1598H116.496V29.4803Z" fill="#C6C7F7"/>
<path d="M121.874 19.012H49.3962V25.1907H121.874V19.012Z" fill="#C6C7F7"/>
<path d="M116.257 77.3424H54.1852V109.754H116.257V77.3424Z" fill="#C6C7F7"/>
<path d="M116.257 118.708H54.1852V151.12H116.257V118.708Z" fill="#C6C7F7"/>
<path d="M54.121 23.2274C54.8032 23.2274 55.3563 22.6743 55.3563 21.9921C55.3563 21.3098 54.8032 20.7567 54.121 20.7567C53.4387 20.7567 52.8856 21.3098 52.8856 21.9921C52.8856 22.6743 53.4387 23.2274 54.121 23.2274Z" fill="#7B7EE8"/>
<path d="M58.8458 23.3006C59.528 23.3006 60.0811 22.7475 60.0811 22.0652C60.0811 21.383 59.528 20.8299 58.8458 20.8299C58.1635 20.8299 57.6104 21.383 57.6104 22.0652C57.6104 22.7475 58.1635 23.3006 58.8458 23.3006Z" fill="#7B7EE8"/>
<path d="M63.5706 23.3006C64.2528 23.3006 64.8059 22.7475 64.8059 22.0652C64.8059 21.383 64.2528 20.8299 63.5706 20.8299C62.8883 20.8299 62.3352 21.383 62.3352 22.0652C62.3352 22.7475 62.8883 23.3006 63.5706 23.3006Z" fill="#7B7EE8"/>
<path d="M148.763 5.46069H118.414V36.5413H148.763V5.46069Z" fill="#3E42C2"/>
<path d="M122.551 29.2311C129.863 29.2311 137.175 29.2311 144.488 29.2311C141.249 18.4353 139.201 15.7045 137.858 15.8529C135.918 16.0675 135.341 22.3036 132.675 22.4816C131.073 22.5885 130.432 20.3917 128.819 20.3126C127.43 20.2434 125.361 21.7428 122.551 29.2311Z" fill="#7B7EE8"/>
<path d="M129.601 16.8172C131.165 16.8172 132.434 15.549 132.434 13.9845C132.434 12.42 131.165 11.1518 129.601 11.1518C128.036 11.1518 126.768 12.42 126.768 13.9845C126.768 15.549 128.036 16.8172 129.601 16.8172Z" fill="#7B7EE8"/>
<path d="M114.166 39.3116H51.4297V76.3108H114.166V39.3116Z" fill="#3E42C2"/>
<path d="M89.156 61.4955C92.6678 57.9837 92.6678 52.2899 89.156 48.7781C85.6442 45.2663 79.9504 45.2663 76.4386 48.7781C72.9268 52.2899 72.9268 57.9837 76.4386 61.4955C79.9504 65.0073 85.6442 65.0073 89.156 61.4955Z" fill="#C6C7F7"/>
<path d="M88.0965 55.1368L79.6291 50.2478V60.0258L88.0965 55.1368Z" fill="#F67933"/>
<path d="M110.117 70.5258H54.4177V72.9391H110.117V70.5258Z" fill="#C6C7F7"/>
<path d="M117.013 73.4237H54.2763C54.1556 73.4237 54.0587 73.3258 54.0587 73.2062V36.207C54.0587 36.0863 54.1566 35.9894 54.2763 35.9894H117.013C117.134 35.9894 117.231 36.0873 117.231 36.207V73.2062C117.231 73.3258 117.134 73.4237 117.013 73.4237ZM54.4938 72.9876H116.794V36.4246H54.4938V72.9876Z" fill="#363E44"/>
<path d="M131.566 124.067H66.336V169.601H131.566V124.067Z" fill="#F67933"/>
<path d="M134.155 167.231H68.9234C68.8027 167.231 68.7058 167.133 68.7058 167.014V121.48C68.7058 121.359 68.8037 121.262 68.9234 121.262H134.154C134.274 121.262 134.371 121.36 134.371 121.48V167.014C134.372 167.133 134.274 167.231 134.155 167.231ZM69.142 166.795H133.936V121.697H69.142V166.795Z" fill="#363E44"/>
<path d="M120.578 155.877H72.9717C72.851 155.877 72.7541 155.779 72.7541 155.659C72.7541 155.539 72.852 155.441 72.9717 155.441H120.577C120.697 155.441 120.794 155.539 120.794 155.659C120.794 155.779 120.697 155.877 120.578 155.877Z" fill="#C6C7F7"/>
<path d="M126.36 162.241H96.5541C96.4334 162.241 96.3365 162.143 96.3365 162.024C96.3365 161.903 96.4344 161.806 96.5541 161.806H126.361C126.481 161.806 126.578 161.904 126.578 162.024C126.578 162.143 126.48 162.241 126.36 162.241Z" fill="#C6C7F7"/>
<path d="M90.0529 162.241H72.9717C72.851 162.241 72.7541 162.143 72.7541 162.024C72.7541 161.903 72.852 161.806 72.9717 161.806H90.0529C90.1736 161.806 90.2705 161.904 90.2705 162.024C90.2715 162.143 90.1736 162.241 90.0529 162.241Z" fill="#C6C7F7"/>
<path d="M126.522 143.701H72.9717C72.851 143.701 72.7541 143.603 72.7541 143.484C72.7541 143.363 72.852 143.266 72.9717 143.266H126.522C126.643 143.266 126.74 143.364 126.74 143.484C126.741 143.603 126.643 143.701 126.522 143.701Z" fill="#C6C7F7"/>
<path d="M126.36 150.065H103.413C103.293 150.065 103.196 149.967 103.196 149.847C103.196 149.728 103.294 149.63 103.413 149.63H126.36C126.48 149.63 126.577 149.728 126.577 149.847C126.577 149.967 126.48 150.065 126.36 150.065Z" fill="#C6C7F7"/>
<path d="M96.9131 150.065H72.9717C72.851 150.065 72.7541 149.967 72.7541 149.847C72.7541 149.728 72.852 149.63 72.9717 149.63H96.9121C97.0328 149.63 97.1297 149.728 97.1297 149.847C97.1297 149.967 97.0338 150.065 96.9131 150.065Z" fill="#C6C7F7"/>
<path d="M120.578 131.525H82.1186C81.9979 131.525 81.901 131.427 81.901 131.307C81.901 131.186 81.9989 131.09 82.1186 131.09H120.578C120.698 131.09 120.795 131.187 120.795 131.307C120.795 131.428 120.697 131.525 120.578 131.525Z" fill="#C6C7F7"/>
<path d="M126.36 137.889H110.273C110.152 137.889 110.055 137.792 110.055 137.672C110.055 137.551 110.153 137.454 110.273 137.454H126.36C126.48 137.454 126.577 137.552 126.577 137.672C126.578 137.792 126.48 137.889 126.36 137.889Z" fill="#C6C7F7"/>
<path d="M103.772 137.889H72.9717C72.851 137.889 72.7541 137.792 72.7541 137.672C72.7541 137.551 72.852 137.454 72.9717 137.454H103.772C103.893 137.454 103.99 137.552 103.99 137.672C103.991 137.792 103.893 137.889 103.772 137.889Z" fill="#C6C7F7"/>
<path d="M59.7248 90.0418L59.6663 106.383L87.2743 106.482L87.3327 90.1406L59.7248 90.0418Z" fill="#C6C7F7"/>
<path d="M73.5196 97.9438C72.5048 97.9438 71.49 97.6609 70.587 97.0962L61.1186 91.1726C61.0168 91.1083 60.9851 90.9738 61.0494 90.8719C61.1137 90.7701 61.2472 90.7384 61.3501 90.8027L70.8185 96.7263C72.4712 97.7608 74.5295 97.7678 76.1901 96.7451L86.0165 90.6939C86.1184 90.6306 86.2529 90.6633 86.3162 90.7651C86.3795 90.868 86.3469 91.0025 86.245 91.0648L76.4186 97.116C75.5235 97.6688 74.5215 97.9438 73.5196 97.9438Z" fill="#00B858"/>
<path d="M171.406 42.2956L170.548 42.7249C170.261 42.3441 169.947 41.992 169.612 41.6686L170.14 40.8674L167.427 39.0762L166.897 39.8793C166.464 39.6954 166.016 39.547 165.559 39.4333L165.616 38.4729L162.372 38.277L162.315 39.2354C161.852 39.2928 161.39 39.3868 160.933 39.5183L160.503 38.6588L157.596 40.1118L158.026 40.9713C157.646 41.2571 157.294 41.5706 156.971 41.9069L156.169 41.3778L154.379 44.0898L155.182 44.62C154.999 45.0532 154.85 45.5002 154.737 45.9572L153.777 45.8998L153.583 49.144L154.541 49.2013C154.599 49.6642 154.693 50.1261 154.825 50.584L153.967 51.0133L155.422 53.9212L156.28 53.4919C156.567 53.8727 156.881 54.2248 157.216 54.5482L156.688 55.3494L159.401 57.1406L159.931 56.3375C160.364 56.5214 160.812 56.6698 161.269 56.7835L161.212 57.7439L164.456 57.9398L164.513 56.9814C164.976 56.924 165.438 56.83 165.895 56.6985L166.325 57.558L169.232 56.105L168.802 55.2455C169.182 54.9597 169.534 54.6462 169.857 54.3099L170.658 54.839L172.449 52.127L171.645 51.5969C171.828 51.1636 171.978 50.7166 172.091 50.2596L173.051 50.317L173.245 47.0728L172.286 47.0155C172.229 46.5526 172.135 46.0907 172.002 45.6328L172.861 45.2035L171.406 42.2956ZM169.657 47.6811C169.827 49.3289 169.277 50.9817 168.153 52.1982C164.336 56.3315 157.748 54.1348 157.171 48.5357C157.001 46.8879 157.552 45.2352 158.676 44.0186C162.493 39.8843 169.081 42.082 169.657 47.6811Z" fill="#C6C7F7"/>
<path d="M163.43 55.4364C160.74 55.4364 158.145 53.9509 156.861 51.3842C155.251 48.1658 156.252 44.1818 159.19 42.1156C159.289 42.0464 159.425 42.0701 159.494 42.169C159.563 42.2679 159.539 42.4035 159.44 42.4727C156.678 44.4152 155.736 48.1618 157.251 51.1884C158.951 54.5878 163.1 55.9715 166.498 54.2733C169.306 52.8698 170.811 49.7473 170.157 46.6792C170.132 46.5615 170.207 46.4458 170.325 46.4201C170.442 46.3953 170.558 46.4705 170.584 46.5882C171.28 49.8502 169.679 53.1705 166.694 54.663C165.646 55.1882 164.53 55.4364 163.43 55.4364Z" fill="#F2F3FF"/>
<path d="M54.9696 9.04012L54.0666 9.49113C53.7659 9.09155 53.4355 8.72065 53.0824 8.38041L53.6383 7.53871L50.7868 5.65552L50.23 6.49919C49.774 6.30633 49.3042 6.14906 48.8235 6.03038L48.8838 5.02152L45.4735 4.8158L45.4132 5.82267C44.9266 5.883 44.4409 5.98092 43.9602 6.12038L43.5082 5.21736L40.453 6.74448L40.905 7.64751C40.5054 7.94818 40.1355 8.27754 39.7953 8.63064L38.9536 8.07478L37.0724 10.9253L37.916 11.4821C37.7232 11.9381 37.5669 12.4079 37.4482 12.8886L36.4393 12.8283L36.2356 16.2386L37.2425 16.2989C37.3028 16.7855 37.4017 17.2712 37.5412 17.7519L36.6381 18.2029L38.1673 21.2591L39.0703 20.8081C39.371 21.2077 39.7013 21.5786 40.0544 21.9188L39.4985 22.7605L42.35 24.6437L42.9069 23.8C43.3628 23.9929 43.8327 24.1502 44.3133 24.2688L44.253 25.2777L47.6633 25.4834L47.7237 24.4766C48.2103 24.4162 48.6959 24.3183 49.1766 24.1788L49.6286 25.0819L52.6838 23.5547L52.2318 22.6517C52.6314 22.351 53.0013 22.0217 53.3416 21.6686L54.1833 22.2244L56.0645 19.3739L55.2208 18.8171C55.4137 18.3611 55.57 17.8913 55.6886 17.4106L56.6975 17.471L56.9012 14.0606L55.8944 14.0003C55.834 13.5137 55.7351 13.0281 55.5957 12.5474L56.4987 12.0963L54.9696 9.04012ZM53.1309 14.7016C53.3089 16.4334 52.7303 18.1712 51.5494 19.4501C47.5367 23.7951 40.6122 21.4856 40.0059 15.5996C39.8279 13.8678 40.4065 12.13 41.5875 10.8511C45.6001 6.50612 52.5246 8.8156 53.1309 14.7016Z" fill="#C6C7F7"/>
<path d="M46.5852 22.8416C43.7614 22.8416 41.0375 21.2819 39.6904 18.5886C38.0001 15.2109 39.0515 11.0282 42.1344 8.86111C42.2333 8.79188 42.3688 8.81562 42.438 8.91452C42.5073 9.01343 42.4835 9.14893 42.3846 9.21817C39.4758 11.2626 38.4857 15.208 40.0791 18.3938C41.8693 21.9732 46.2371 23.4291 49.8145 21.6409C52.7709 20.1632 54.3544 16.8756 53.666 13.6462C53.6413 13.5285 53.7164 13.4128 53.8341 13.3871C53.9489 13.3624 54.0675 13.4375 54.0923 13.5552C54.8222 16.9794 53.1428 20.4639 50.0094 22.0306C48.9105 22.5805 47.7395 22.8416 46.5852 22.8416Z" fill="#F2F3FF"/>
</g>
<defs>
<clipPath id="clip0_430_45564">
<rect width="181" height="181" fill="white"/>
</clipPath>
</defs>
</svg>
