<svg fill="none" height="68" viewBox="0 0 68 68" width="68" xmlns="http://www.w3.org/2000/svg"><path d="m68 34c0-18.7777-15.2223-34-34-34s-34 15.2223-34 34 15.2223 34 34 34 34-15.2223 34-34z" fill="#cdceef"/><g fill="#002581"><path d="m40.0642 17.6318c-1.717 1.5111-3.4094 3.0223-5.0537 4.5258l4.9385 4.931c1.7453-1.3934 3.5372-2.7814 5.3758-4.1641-1.69-1.785-3.4435-3.5492-5.2606-5.2927z"/><path d="m46.5308 24.2307-5.4834 4.0053 2.55 3.0138c1.9874 2.2717 3.6248 4.8271 4.8582 7.582 2.1958 5.1188.3778 10.692-4.3794 14.4925 3.9827-1.6462 7.0966-3.3575 9.3698-6.6263 5.7205-8.2336-1.3798-15.7438-6.9152-22.4673z"/><path d="m33.7912 11.9312c-1.7391 1.501-3.4271 3.0196-5.0641 4.5559l5.0641 4.5154 5.0641-4.5154c-1.6377-1.5356-3.3257-3.0543-5.0641-4.5559z"/><path d="m14.1421 46.6999c2.2733 3.2697 5.3834 4.9801 9.3699 6.6262-4.7544-3.8004-6.5753-9.3736-4.3794-14.4925 1.2334-2.7548 2.8708-5.3102 4.8582-7.582l2.55-3.0137-5.4835-4.0054c-5.5372 6.7216-12.63946 14.2318-6.9152 22.4674z"/><path d="m22.2588 22.9273c1.8404 1.3852 3.6323 2.7732 5.3758 4.1641l4.9385-4.931c-1.6443-1.5111-3.3368-3.0175-5.0538-4.5258-1.8171 1.7422-3.5706 3.5065-5.2605 5.2927z"/></g><path d="m23.5564 34.7395c-4.6542 6.7103-4.9319 9.5077-.306 16.1651-2.5273-6.511 4.3284-12.9229 9.3585-17.5318l-4.8167-4.0053c-1.6933 2.0126-3.0458 3.6559-4.2358 5.372z" fill="#006329"/><path d="m33.7913 23.3693-4.8167 4.7987c1.6452 1.3336 3.2508 2.6722 4.8167 4.0158 1.5684-1.343 3.1739-2.6816 4.8166-4.0158z" fill="#006329"/><path d="m44.0272 34.7395c-1.19-1.7161-2.5433-3.3585-4.232-5.3711l-4.8167 4.0054c5.0301 4.6079 11.8868 11.0198 9.3585 17.5317 4.6221-6.6583 4.3445-9.4557-.3098-16.166z" fill="#006329"/><path d="m41.9692 47.4734c0 2.1687-.8615 4.2486-2.3949 5.782-1.5335 1.5335-3.6134 2.395-5.7821 2.395-2.1686 0-4.2485-.8615-5.782-2.395-1.5335-1.5334-2.395-3.6133-2.395-5.782 0-.832 0-5.5722 8.177-11.1907.001 0 8.177 5.1605 8.177 11.1907z" fill="#002581"/></svg>