<svg fill="none" height="23" viewBox="0 0 58 23" width="58" xmlns="http://www.w3.org/2000/svg"><g fill="#fff"><path d="m33.8076 20.2747c-.2654.1437-.5429.2708-.834.3843-.291.112-.6454.1695-1.0631.1695-.7857 0-1.4101-.2406-1.873-.7218-.4645-.4812-.6952-1.1666-.6952-2.0564 0-.8791.2081-1.56.6273-2.0412.4177-.4812 1.0194-.7218 1.8051-.7218.3982 0 .7465.062 1.0481.1846.3001.1226.5836.2709.8491.4449.1734-.112.3257-.2663.4584-.46s.1991-.4237.1991-.69c0-.4812-.2579-.8746-.7722-1.1818-.5157-.3072-1.2411-.46-2.1791-.46-.6635 0-1.2848.1074-1.8654.3223s-1.0889.5326-1.5217.9518c-.4328.4191-.7751.9336-1.0239 1.5419-.2504.6083-.374 1.3119-.374 2.1093 0 .8595.1297 1.5979.3906 2.2168.2593.6189.6137 1.1303 1.0631 1.5343.4479.4041.9742.7037 1.5759.8973.6018.1937 1.2442.2921 1.9273.2921.9486 0 1.6544-.1453 2.1188-.4373.4645-.2921.6953-.6461.6953-1.0668 0-.2663-.0483-.4993-.1448-.6976-.1026-.1997-.2383-.3707-.4117-.5144z"/><path d="m41.2995 15.7399c-.3212-.23-.7087-.401-1.1627-.5145-.4539-.112-.9561-.1695-1.5065-.1695-.3574 0-.7374.0257-1.1401.0772-.4026.0514-.7525.1331-1.0481.2451-.2654.1135-.4614.2482-.5881.4071-.1282.1588-.1915.3707-.1915.637 0 .2043.0452.401.1372.5901.092.1892.2036.3299.3363.4222.2956-.1226.6273-.2255.9938-.3072.3664-.0817.7435-.1225 1.131-.1225.4901 0 .8641.0635 1.1235.1921s.3906.3405.3906.6371v.1074l-2.0042.2149c-.8777.0923-1.5246.3268-1.9424.7066-.4177.3783-.6273.92-.6273 1.6267 0 .4191.0844.7883.2518 1.1046.1689.3177.4072.578.7194.7823.3106.2042.6831.3586 1.1159.46.4328.1029.9199.1528 1.4598.1528 1.2034 0 2.1354-.1997 2.799-.5992.2035-.1226.38-.2678.5278-.4373s.2217-.3859.2217-.6522v-3.4379c0-.4812-.0875-.8973-.2594-1.2514-.1689-.3495-.4163-.6415-.7375-.8715zm-1.505 5.1477c-.1025.0621-.2579.1105-.466.1453-.2096.0363-.3996.0529-.573.0529-.3771 0-.6455-.0635-.8023-.1921-.1584-.1271-.2368-.2936-.2368-.4994 0-.2042.092-.3586.276-.46s.4177-.1634.7042-.1846l1.1009-.0923v1.2302z"/><path d="m46.8959 18.0489-.4735-.1074c-.2851-.0621-.4796-.1271-.5806-.1998-.1026-.0711-.1523-.1634-.1523-.2769 0-.1634.0919-.2845.2759-.3601.184-.0772.4434-.115.7797-.115.1629 0 .3438.0151.5429.0454.199.0302.3951.0696.5881.115.1931.0454.3725.0968.5354.1528.1628.056.285.1105.3664.1604.1327-.112.2413-.2527.3288-.4222.086-.1694.1297-.3707.1297-.6067 0-.2452-.0709-.457-.2142-.6371-.1432-.1785-.3363-.3253-.5806-.4373s-.5323-.1967-.8641-.2527c-.3317-.056-.6861-.0847-1.0631-.0847-.4992 0-.9561.056-1.3694.1695-.4132.1134-.7675.2708-1.0631.4751s-.5248.46-.6877.7672c-.1629.3071-.2443.6491-.2443 1.0274 0 .696.2172 1.2302.65 1.6039.4328.3738 1.0933.6477 1.98.8202l.4585.0923c.285.0514.4901.118.6123.1997.1221.0817.1839.1937.1839.3374 0 .1529-.0844.277-.2518.3677-.1689.0923-.4102.1377-.7269.1377-.4992 0-.941-.0635-1.3225-.1921-.3831-.1271-.7209-.2739-1.0165-.4373-.1432.1135-.2654.2527-.3664.4221-.1026.1695-.1523.3753-.1523.6219 0 .2664.0739.4964.2216.69.1478.1952.3514.3556.6123.4827.2594.1272.5731.2225.941.2845.3665.0621.7646.0923 1.1929.0923 1.131 0 1.9876-.2194 2.5697-.6597.5806-.4403.8717-1.0486.8717-1.8264 0-.6234-.2066-1.1334-.6198-1.5268-.4163-.3873-1.113-.6975-2.0917-.923z"/><path d="m56.9108 15.9395c-.5655-.5069-1.3542-.7596-2.3631-.7596-.3257 0-.6243.0333-.8943.0999-.2699.0666-.472.1256-.6047.177v-1.504c0-.2558-.0332-.4631-.0995-.622-.0664-.1588-.1599-.2844-.2835-.3752-.1222-.0923-.273-.1528-.4509-.1846-.178-.0303-.3801-.0454-.6048-.0454s-.4463.0181-.665.0529c-.2187.0364-.3846.0636-.4977.0848v8.9004c0 .2557.0332.463.0996.6219.0663.1589.1598.2845.2835.3752.1221.0924.2729.1529.4509.1847.1779.0302.38.0453.6047.0453.2338 0 .4615-.0151.6801-.0453.2187-.0303.3801-.0621.4811-.0923v-5.3702c.1116-.0712.2594-.1332.4434-.1847.184-.0514.377-.0771.5806-.0771.3061 0 .5625.0847.7721.2527.2081.1695.3137.463.3137.8821v3.4062c0 .2557.0331.463.0995.6219.0663.1589.1598.2844.2835.3752.1222.0923.273.1529.4509.1846.178.0303.38.0454.6047.0454.2338 0 .4615-.0151.6802-.0454.2186-.0302.38-.062.481-.0923v-4.6484c.0031-1.0032-.2789-1.7568-.846-2.2637z"/><path d="m33.1802 1.82031h-5.1636c-.4448 0-.7962.13013-1.0541.38888s-.3875.61283-.3875 1.0577v6.76831c0 .2694.0316.4873.0934.6537.0619.1665.1554.2951.279.3889.1237.0938.276.1589.457.1952.1809.0363.3906.0545.6273.0545.2383 0 .4781-.0151.7209-.0469s.4207-.0621.5353-.0938v-3.28359h2.713c.2896 0 .5188-.08474.6907-.25724.1704-.17099.2564-.45395.2564-.84737 0-.2073-.0287-.40401-.086-.59164-.0573-.18612-.1267-.33744-.2096-.45092h-3.3961v-1.75678h3.2558c.2896 0 .5188-.08625.6907-.25724.1704-.17098.2564-.45848.2564-.86401 0-.2073-.0287-.40704-.086-.59921-.0558-.19066-.1206-.34349-.193-.45849z"/><path d="m36.0802 0c-.4343 0-.7827.134671-1.0466.404013s-.3951.602237-.3951.995657.1312.72632.3951.99566.6123.40401 1.0466.40401.7827-.13467 1.0466-.40401.3951-.60072.3951-.99566c0-.39493-.1312-.726315-.3951-.995657-.2624-.269342-.6123-.404013-1.0466-.404013z"/><path d="m36.9488 3.84338c-.1236-.09382-.2759-.15586-.4569-.18612-.181-.03178-.3846-.04691-.6123-.04691s-.4524.01816-.6741.05448c-.2232.03631-.3906.06506-.5037.08625v6.33252c0 .2588.0332.4691.1011.6295.0678.1604.1629.2875.2865.3813.1237.0938.276.1559.457.1862.1809.0317.3845.0469.6122.0469s.4524-.0182.6741-.0545.3906-.0651.5037-.0863v-6.33253c0-.25875-.0332-.46908-.101-.63099-.0664-.15888-.1629-.28599-.2866-.3798z"/><path d="m43.4304 3.71023c-.2895-.19217-.6816-.2875-1.1778-.2875-.3001 0-.6002.0227-.8988.0696-.3001.04691-.5896.11198-.8686.1952-.279.08323-.5399.17855-.7827.2875s-.4479.23152-.6122.36619c-.1659.13467-.2926.2875-.3801.45848-.0874.17099-.1312.37678-.1312.61434v4.66806c0 .2588.0332.4691.1011.6295.0663.1604.1629.2875.2865.3813.1237.0938.276.1559.4569.1861.181.0318.3846.047.6123.047.2383 0 .4675-.0152.6907-.047.2217-.0317.3846-.062.4886-.0938v-5.30359c.1342-.06204.2971-.11651.4886-.16342s.3951-.09079.6123-.13165c.2171-.04085.4388-.07263.6665-.09381.2278-.02119.4494-.03178.6666-.03178.0618-.11348.1131-.24059.1553-.38131.0407-.14073.0619-.28296.0619-.42823-.0016-.43427-.1463-.74901-.4359-.94118z"/><path d="m48.9046 6.31749-.4811-.10895c-.2895-.06204-.4855-.13013-.5896-.20276s-.1553-.16494-.1553-.27994c0-.16644.0935-.2875.279-.36618.1855-.07717.4494-.11651.7902-.11651.1659 0 .3483.01513.5504.0469.2021.03178.4012.06961.5972.11652s.377.09835.5429.15585.2895.11198.3725.16342c.1342-.11348.2458-.25723.3333-.42822.0874-.17099.1312-.37526.1312-.61434 0-.24816-.0724-.46454-.2172-.64612s-.3408-.32987-.5896-.44336c-.2489-.11348-.5399-.19973-.8762-.25723s-.6952-.08474-1.0783-.08474c-.5067 0-.9696.0575-1.3874.17099-.4192.115-.7781.27539-1.0782.4827-.3001.2073-.5324.46605-.6983.77776-.1658.31171-.2488.65822-.2488 1.04256 0 .70514.2202 1.24685.659 1.62665.4389.37829 1.1085.65671 2.0088.83224l.4644.09381c.2896.05145.4962.11954.6198.20276.1237.08323.1855.19671.1855.34198 0 .15585-.0859.27993-.2563.37375-.1704.09381-.4163.14072-.736.14072-.5067 0-.9531-.06506-1.3406-.1952-.3876-.13013-.7314-.2769-1.0315-.44335-.1448.11349-.2685.25724-.3725.42822-.1041.17099-.1553.38132-.1553.63099 0 .26939.0754.50389.2247.70059s.3574.3601.6198.4903c.2639.1301.5821.2254.9531.2875.3724.062.7751.0938 1.2094.0938 1.1476 0 2.0163-.2225 2.6044-.6688.5897-.4464.8837-1.06378.8837-1.85214 0-.6325-.2096-1.14849-.6273-1.54796-.4117-.4025-1.1175-.71572-2.1098-.94421z"/><path d="m57.3859 9.10162c-.1236.04237-.2684.07566-.4343.10138-.1659.02573-.3257.03934-.4811.03934-.3106 0-.5504-.0575-.7208-.17098-.1704-.11349-.2564-.30566-.2564-.575v-2.34994h1.4115c.2685 0 .4826-.08019.644-.24059.1598-.16039.2398-.42217.2398-.78533 0-.2073-.0287-.39644-.086-.56743s-.1161-.31323-.1779-.42823h-2.0314v-.99565c0-.51902-.1267-.85796-.38-1.01836-.2534-.16039-.6078-.24059-1.0617-.24059-.2382 0-.4629.01816-.6741.05447-.2126.03632-.3755.06961-.4886.10138v6.65941c0 .93362.2458 1.6085.7359 2.0231.4902.4146 1.1914.6219 2.1008.6219.7449 0 1.2637-.1241 1.5578-.3737.294-.2497.4418-.5705.4418-.96544 0-.19671-.0332-.36619-.101-.5054-.0649-.14223-.1448-.26934-.2383-.38434z"/><path d="m14.684 3.02332c-.8988.79289-1.7856 1.58579-2.6466 2.37868l2.5863 2.59053c.9138-.73237 1.8518-1.46171 2.8155-2.18803-.8852-.93967-1.8036-1.86572-2.7552-2.78118z"/><path d="m18.0711 6.48987-2.8713 2.1048c.4448.52809.8897 1.05618 1.3331 1.58423 1.0737 1.2756 1.9423 2.5739 2.5441 3.9842 1.1506 2.6904.196 5.6183-2.2938 7.6157 2.0856-.8655 3.7159-1.7643 4.9072-3.4818 2.9965-4.3291-.7223-8.2754-3.6193-11.80713z"/><path d="m11.3995.0272217c-.9109.7883553-1.79459 1.5857883-2.65267 2.3938183l2.65267 2.37263 2.6511-2.37263c-.8565-.80803-1.7403-1.605463-2.6511-2.3938183z"/><path d="m1.10854 18.2955c1.18985 1.7175 2.82156 2.6163 4.90719 3.4818-2.48979-1.9974-3.44287-4.9253-2.29374-7.6157.60322-1.4088 1.47035-2.7086 2.54408-3.9842.44487-.52806.88824-1.05615 1.33311-1.58424l-2.87132-2.10329c-2.89696 3.53173-6.61732 7.47803-3.61932 11.80563z"/><path d="m5.35974 5.8045c.96364.72632 1.90165 1.45566 2.81553 2.18803l2.58633-2.59053c-.86113-.79289-1.74786-1.58579-2.64665-2.37868-.95158.91546-1.86998 1.84151-2.75521 2.78118z"/><path d="m6.03831 12.0114c-2.43701 3.5256-2.58329 4.9964-.15985 8.4948-1.32407-3.4212 2.26659-6.791 4.90114-9.2121l-2.52446-2.10477c-.88372 1.05767-1.5925 1.92017-2.21683 2.82207z"/><path d="m11.3995 6.03748-2.52297 2.52092c.86109.70059 1.70257 1.40421 2.52297 2.1093.8219-.70509 1.6619-1.40871 2.523-2.1093z"/><path d="m16.7591 12.0114c-.6229-.9019-1.3316-1.7644-2.2169-2.82207l-2.5244 2.10477c2.6345 2.4211 6.2252 5.7909 4.9011 9.2121 2.4235-3.4984 2.2787-4.9692-.1598-8.4948z"/><path d="m15.6824 18.7026c0 2.3727-1.9168 4.2974-4.2829 4.2974-2.36462 0-4.28286-1.9232-4.28286-4.2974 0-.4373 0-2.9264 4.28286-5.8801 0 0 4.2829 2.7116 4.2829 5.8801z"/></g></svg>