<svg height="24.506" width="61.783" xmlns="http://www.w3.org/2000/svg"><path d="m36.144 21.602a7.756 7.756 0 0 1 -.891.409 3.166 3.166 0 0 1 -1.136.18 2.658 2.658 0 0 1 -2-.769 3.022 3.022 0 0 1 -.744-2.191 3.2 3.2 0 0 1 .67-2.175 2.423 2.423 0 0 1 1.929-.768 2.955 2.955 0 0 1 1.12.2 5.312 5.312 0 0 1 .907.474 1.752 1.752 0 0 0 .491-.491 1.271 1.271 0 0 0 .212-.736 1.444 1.444 0 0 0 -.826-1.259 4.59 4.59 0 0 0 -2.33-.49 5.722 5.722 0 0 0 -1.995.343 4.609 4.609 0 0 0 -1.627 1.014 4.773 4.773 0 0 0 -1.1 1.643 5.864 5.864 0 0 0 -.4 2.248 6.065 6.065 0 0 0 .417 2.362 4.507 4.507 0 0 0 1.137 1.635 4.589 4.589 0 0 0 1.684.956 6.682 6.682 0 0 0 2.06.311 4.352 4.352 0 0 0 2.265-.466 1.34 1.34 0 0 0 .744-1.136 1.678 1.678 0 0 0 -.155-.744 1.627 1.627 0 0 0 -.432-.55z" fill="#006329"/><path d="m44.154 16.77a3.609 3.609 0 0 0 -1.243-.548 6.718 6.718 0 0 0 -1.61-.18 9.717 9.717 0 0 0 -1.218.082 4.914 4.914 0 0 0 -1.12.261 1.583 1.583 0 0 0 -.629.433 1.048 1.048 0 0 0 -.2.678 1.421 1.421 0 0 0 .147.63 1.129 1.129 0 0 0 .36.45 6.447 6.447 0 0 1 1.063-.327 5.568 5.568 0 0 1 1.21-.131 2.808 2.808 0 0 1 1.2.2.7.7 0 0 1 .417.679v.114l-2.142.229a3.616 3.616 0 0 0 -2.077.752 2.214 2.214 0 0 0 -.67 1.733 2.467 2.467 0 0 0 .27 1.177 2.249 2.249 0 0 0 .768.834 3.7 3.7 0 0 0 1.194.491 6.843 6.843 0 0 0 1.561.163 5.843 5.843 0 0 0 2.992-.638 2.368 2.368 0 0 0 .564-.466 1.015 1.015 0 0 0 .237-.695v-3.662a2.984 2.984 0 0 0 -.278-1.333 2.473 2.473 0 0 0 -.796-.926zm-1.611 5.486a1.493 1.493 0 0 1 -.5.155 3.663 3.663 0 0 1 -.613.057 1.385 1.385 0 0 1 -.858-.2.65.65 0 0 1 -.253-.531.528.528 0 0 1 .294-.491 1.815 1.815 0 0 1 .752-.2l1.177-.1z" fill="#006329"/><path d="m50.137 19.231-.507-.115a1.874 1.874 0 0 1 -.621-.213.345.345 0 0 1 -.164-.294.407.407 0 0 1 .294-.384 2.242 2.242 0 0 1 .834-.123 3.868 3.868 0 0 1 .581.049q.319.049.629.123t.572.163a2.029 2.029 0 0 1 .393.172 1.452 1.452 0 0 0 .351-.45 1.393 1.393 0 0 0 .139-.646 1.054 1.054 0 0 0 -.229-.678 1.67 1.67 0 0 0 -.621-.466 3.714 3.714 0 0 0 -.924-.27 6.843 6.843 0 0 0 -1.136-.09 5.58 5.58 0 0 0 -1.463.18 3.7 3.7 0 0 0 -1.136.507 2.256 2.256 0 0 0 -1 1.913 2.129 2.129 0 0 0 .695 1.709 4.59 4.59 0 0 0 2.117.875l.49.1a1.821 1.821 0 0 1 .654.213.41.41 0 0 1 .2.36.44.44 0 0 1 -.27.392 1.651 1.651 0 0 1 -.777.147 4.466 4.466 0 0 1 -1.414-.2 6.5 6.5 0 0 1 -1.087-.466 1.656 1.656 0 0 0 -.392.45 1.254 1.254 0 0 0 -.164.662 1.177 1.177 0 0 0 .237.736 1.8 1.8 0 0 0 .654.515 3.648 3.648 0 0 0 1.006.3 7.763 7.763 0 0 0 1.275.1 4.518 4.518 0 0 0 2.747-.7 2.3 2.3 0 0 0 .932-1.946 2.145 2.145 0 0 0 -.662-1.627 4.826 4.826 0 0 0 -2.233-.998z" fill="#006329"/><path d="m60.844 16.983a3.664 3.664 0 0 0 -2.526-.809 4.016 4.016 0 0 0 -.957.106 5.864 5.864 0 0 0 -.646.188v-1.6a1.738 1.738 0 0 0 -.106-.662.943.943 0 0 0 -.3-.4 1.1 1.1 0 0 0 -.482-.2 3.841 3.841 0 0 0 -.646-.049 4.426 4.426 0 0 0 -.711.057q-.352.058-.531.09v9.483a1.728 1.728 0 0 0 .106.662.942.942 0 0 0 .3.4 1.1 1.1 0 0 0 .482.2 3.843 3.843 0 0 0 .646.049 5.264 5.264 0 0 0 .728-.049 3.763 3.763 0 0 0 .515-.1v-5.722a1.78 1.78 0 0 1 .474-.2 2.312 2.312 0 0 1 .621-.082 1.275 1.275 0 0 1 .826.27 1.146 1.146 0 0 1 .335.94v3.63a1.731 1.731 0 0 0 .106.662.942.942 0 0 0 .3.4 1.1 1.1 0 0 0 .482.2 3.842 3.842 0 0 0 .646.049 5.26 5.26 0 0 0 .727-.049 3.771 3.771 0 0 0 .515-.1v-4.954a3.065 3.065 0 0 0 -.904-2.41z" fill="#006329"/><g fill="#002581"><path d="m35.474 1.94h-5.521a1.431 1.431 0 0 0 -1.542 1.542v7.211a2.021 2.021 0 0 0 .1.7.9.9 0 0 0 .3.414 1.192 1.192 0 0 0 .489.207 3.472 3.472 0 0 0 .671.058 6.074 6.074 0 0 0 .771-.05 4.592 4.592 0 0 0 .572-.1v-3.5h2.9a1 1 0 0 0 .738-.273 1.244 1.244 0 0 0 .273-.9 2.15 2.15 0 0 0 -.091-.63 1.636 1.636 0 0 0 -.224-.481h-3.631v-1.873h3.481a1 1 0 0 0 .738-.274 1.271 1.271 0 0 0 .274-.92 2.235 2.235 0 0 0 -.091-.638 1.976 1.976 0 0 0 -.207-.493z"/><path d="m38.575 0a1.5 1.5 0 0 0 -1.119.431 1.543 1.543 0 0 0 0 2.122 1.668 1.668 0 0 0 2.238 0 1.543 1.543 0 0 0 0-2.122 1.5 1.5 0 0 0 -1.119-.431z"/><path d="m39.503 4.095a1.118 1.118 0 0 0 -.489-.2 3.912 3.912 0 0 0 -.655-.05 4.476 4.476 0 0 0 -.721.058q-.357.058-.539.091v6.747a1.754 1.754 0 0 0 .108.671.956.956 0 0 0 .307.406 1.115 1.115 0 0 0 .489.2 3.906 3.906 0 0 0 .655.049 4.5 4.5 0 0 0 .721-.058q.356-.058.539-.091v-6.747a1.763 1.763 0 0 0 -.108-.672.958.958 0 0 0 -.307-.404z"/><path d="m46.432 3.954a2.262 2.262 0 0 0 -1.26-.307 6.25 6.25 0 0 0 -.962.075 7.1 7.1 0 0 0 -.928.207 6.793 6.793 0 0 0 -.837.307 2.934 2.934 0 0 0 -.655.39 1.537 1.537 0 0 0 -.406.489 1.414 1.414 0 0 0 -.141.655v4.973a1.753 1.753 0 0 0 .108.671.954.954 0 0 0 .307.406 1.115 1.115 0 0 0 .489.2 3.911 3.911 0 0 0 .655.049 5.357 5.357 0 0 0 .738-.049 3.813 3.813 0 0 0 .522-.1v-5.653a2.884 2.884 0 0 1 .522-.174q.307-.075.655-.141t.713-.1q.364-.033.713-.033a2.088 2.088 0 0 0 .166-.406 1.6 1.6 0 0 0 .066-.456 1.113 1.113 0 0 0 -.465-1.003z"/><path d="m52.285 6.731-.514-.116a1.9 1.9 0 0 1 -.63-.216.35.35 0 0 1 -.166-.3.412.412 0 0 1 .3-.39 2.27 2.27 0 0 1 .845-.124 3.9 3.9 0 0 1 .589.05q.323.05.638.124t.58.166a2.049 2.049 0 0 1 .4.174 1.474 1.474 0 0 0 .356-.456 1.417 1.417 0 0 0 .141-.655 1.068 1.068 0 0 0 -.232-.688 1.7 1.7 0 0 0 -.63-.472 3.762 3.762 0 0 0 -.937-.274 6.948 6.948 0 0 0 -1.152-.091 5.661 5.661 0 0 0 -1.484.182 3.746 3.746 0 0 0 -1.152.514 2.287 2.287 0 0 0 -1.011 1.94 2.158 2.158 0 0 0 .7 1.733 4.652 4.652 0 0 0 2.147.887l.5.1a1.849 1.849 0 0 1 .663.215.417.417 0 0 1 .2.365.447.447 0 0 1 -.274.4 1.674 1.674 0 0 1 -.787.149 4.526 4.526 0 0 1 -1.434-.207 6.571 6.571 0 0 1 -1.1-.472 1.674 1.674 0 0 0 -.4.456 1.272 1.272 0 0 0 -.166.672 1.193 1.193 0 0 0 .24.746 1.823 1.823 0 0 0 .663.522 3.7 3.7 0 0 0 1.019.307 7.888 7.888 0 0 0 1.293.1 4.581 4.581 0 0 0 2.785-.713 2.333 2.333 0 0 0 .945-1.973 2.174 2.174 0 0 0 -.671-1.649 4.895 4.895 0 0 0 -2.264-1.006z"/><path d="m61.353 9.699a2.842 2.842 0 0 1 -.464.108 3.317 3.317 0 0 1 -.514.041 1.382 1.382 0 0 1 -.771-.182.682.682 0 0 1 -.273-.613v-2.5h1.509a.93.93 0 0 0 .688-.257 1.15 1.15 0 0 0 .257-.837 1.911 1.911 0 0 0 -.091-.605 2.854 2.854 0 0 0 -.191-.456h-2.172v-1.061a1.2 1.2 0 0 0 -.406-1.086 2.123 2.123 0 0 0 -1.136-.257 4.3 4.3 0 0 0 -.721.058q-.34.058-.522.108v7.1a2.67 2.67 0 0 0 .788 2.155 3.394 3.394 0 0 0 2.246.663 2.638 2.638 0 0 0 1.666-.4 1.282 1.282 0 0 0 .473-1.028 1.232 1.232 0 0 0 -.108-.539 2.03 2.03 0 0 0 -.258-.412z"/><path d="m15.7 3.219c-.961.845-1.909 1.689-2.83 2.534l2.765 2.76q1.466-1.17 3.01-2.331-1.421-1.497-2.945-2.963z"/><path d="m19.316 6.915-3.07 2.242 1.425 1.688a16.994 16.994 0 0 1 2.72 4.245c1.229 2.866.21 5.986-2.452 8.114a10.866 10.866 0 0 0 5.246-3.71c3.208-4.61-.769-8.815-3.869-12.579z"/><path d="m12.186.028q-1.46 1.26-2.835 2.551l2.835 2.528 2.835-2.528q-1.375-1.29-2.835-2.551z"/><path d="m1.186 19.494a10.866 10.866 0 0 0 5.246 3.71c-2.662-2.128-3.681-5.248-2.452-8.114a17 17 0 0 1 2.72-4.245l1.425-1.688-3.07-2.242c-3.098 3.764-7.074 7.969-3.869 12.579z"/><path d="m5.73 6.185q1.546 1.161 3.01 2.331l2.765-2.76c-.921-.845-1.868-1.689-2.829-2.534q-1.527 1.463-2.946 2.963z"/></g><path d="m6.456 12.799c-2.606 3.757-2.761 5.323-.171 9.051-1.415-3.645 2.423-7.235 5.24-9.815l-2.7-2.242c-.945 1.125-1.702 2.046-2.369 3.006z" fill="#006329"/><path d="m12.185 6.433-2.7 2.687q1.382 1.12 2.7 2.248 1.317-1.128 2.7-2.248z" fill="#006329"/><path d="m17.917 12.799c-.666-.961-1.424-1.881-2.37-3.007l-2.7 2.242c2.816 2.58 6.655 6.17 5.24 9.815 2.591-3.727 2.436-5.293-.17-9.05z" fill="#006329"/><path d="m16.768 19.928a4.578 4.578 0 0 1 -4.578 4.578 4.578 4.578 0 0 1 -4.578-4.578c0-.466 0-3.117 4.578-6.266-.004 0 4.578 2.889 4.578 6.266z" fill="#002581"/></svg>