<svg height="72" width="72" xmlns="http://www.w3.org/2000/svg"><path d="m36 0a36 36 0 0 1 36 36 36 36 0 0 1 -36 36 36 36 0 0 1 -36-36 36 36 0 0 1 36-36z" fill="#cdceef"/><g fill="#002581"><path d="m42.421 18.669c-1.818 1.6-3.61 3.2-5.351 4.792l5.229 5.221q2.772-2.213 5.692-4.409-2.684-2.835-5.57-5.604z"/><path d="m49.268 25.656-5.806 4.241 2.7 3.191a32.139 32.139 0 0 1 5.144 8.028c2.325 5.42.4 11.321-4.637 15.345 4.217-1.743 7.514-3.555 9.921-7.016 6.057-8.718-1.461-16.67-7.322-23.789z"/><path d="m35.779 12.633q-2.762 2.384-5.362 4.824l5.362 4.781 5.362-4.781q-2.601-2.439-5.362-4.824z"/><path d="m14.974 49.447c2.407 3.462 5.7 5.273 9.921 7.016-5.034-4.024-6.962-9.925-4.637-15.345a32.14 32.14 0 0 1 5.144-8.028l2.7-3.191-5.806-4.241c-5.863 7.117-13.383 15.069-7.322 23.789z"/><path d="m23.568 24.276q2.923 2.2 5.692 4.409l5.229-5.221c-1.741-1.6-3.533-3.195-5.351-4.792q-2.886 2.767-5.57 5.604z"/></g><path d="m24.942 36.783c-4.928 7.105-5.222 10.067-.324 17.116-2.676-6.894 4.583-13.683 9.909-18.563l-5.1-4.241c-1.793 2.131-3.225 3.871-4.485 5.688z" fill="#006329"/><path d="m35.779 24.744-5.1 5.081q2.613 2.118 5.1 4.252 2.491-2.133 5.1-4.252z" fill="#006329"/><path d="m46.617 36.783c-1.26-1.817-2.693-3.556-4.481-5.687l-5.1 4.241c5.326 4.879 12.586 11.668 9.909 18.563 4.894-7.05 4.6-10.012-.328-17.117z" fill="#006329"/><path d="m44.438 50.266a8.658 8.658 0 0 1 -8.658 8.658 8.658 8.658 0 0 1 -8.658-8.658c0-.881 0-5.9 8.658-11.849.001 0 8.658 5.464 8.658 11.849z" fill="#002581"/></svg>