<svg height="407" width="555" xmlns="http://www.w3.org/2000/svg"><path d="m257.59 112.57c3.88-.97 9.97 2.97 15.32-.8 5.44-3.84 3.93-10.58 5.78-15.92 8.16-23.6 23.86-39.78 47.01-48.93 18.13-7.17 36.6-10.6 55.93-5.42 4.65 1.24 9.09 2.86 13.01 5.71 9.03 6.59 9.21 15.79.25 22.56-6.82 5.16-14.74 8.21-22.74 10.97-20.94 7.23-42.78 11.05-64.04 17.06-5.41 1.53-10.67 3.57-16 5.39-2.37.81-3.8 2.34-4.82 4.79-3.84 9.27-3.67 10.05 5.4 13.92 9.26 3.94 16.45 10.93 23.77 17.31 25.35 22.1 45.2 48.32 56 80.62 3.98 11.9 4.82 24.21 3.47 36.62-1.73 15.84-10.37 25.6-23.52 26.79-6.7.6-12.86-1.62-18.72-4.56-17.81-8.94-29.5-23.77-38.68-40.86-16.77-31.21-21.91-64.98-21.74-99.9.04-7.71-2.14-9.84-10.03-9.02-10.39 1.08-17.57 8.03-24.73 14.6-15.73 14.41-28.15 31.75-41.97 47.86-7.08 8.26-14.33 16.3-25.69 18.8-10.76 2.36-21.14 2.18-28.44-7.3-7.4-9.6-7.5-20.5-2.48-31.33 5.26-11.34 14.29-19.41 24.18-26.59 27.33-19.84 57.6-31.48 93.48-32.37z" fill="#02a7ea"/><g fill="#1f1f1f"><path d="m178.88 337.73c0-4.54-.01-9.09 0-13.63 0-1.66 1.39-3.87 2.31-2.44 2.89 4.47 4.9 1.1 7.43.05 3.21-1.34 6.8-1.34 8.93 1.57 2.31 3.14 3.52 2.01 5.69.06 3.18-2.85 7.04-3.15 10.9-1.33 3.52 1.66 3.78 4.95 3.78 8.3 0 6.92.08 13.85 0 20.77-.02 1.51.82 4.01-1.93 3.9-2.54-.1-1.85-2.5-1.87-4.08-.06-5.84.06-11.68 0-17.53-.04-3.78.93-8.39-4.89-8.8-3.98-.28-8.7 4.98-8.78 9.53-.11 5.62.01 11.25-.05 16.88-.02 1.61.58 3.97-1.94 4.04-2.57.06-2.04-2.31-2.05-3.93-.06-5.84.06-11.69-.05-17.53-.07-3.73 1.03-8.96-4.75-8.77-4.82.16-8.36 3.89-8.8 8.89-.51 5.8-.08 11.67-.17 17.52-.02 1.55.66 3.97-2.1 3.78-2.12-.15-1.62-2.22-1.64-3.63-.06-4.54-.02-9.09-.02-13.63.01.01.01.01 0 .01z"/><path d="m124.81 352.87c-5.39 2.93-10.43 3.78-15.29.86-6.4-3.84-6.73-26.6-.48-30.79 3.17-2.13 6.88-2.26 10.63-1.73 2.41.34 4.46 3.2 7.47.3 1.27-1.23 2.1 1.25 2.09 2.82-.04 11.01.04 22.03-.16 33.03-.08 4.41-2.19 7.97-6.48 9.59-4.92 1.86-9.78 1.08-14.4-1.26-1.08-.55-1.62-1.41-.89-2.6.47-.78 1.15-1.34 2.11-1.02 1.02.33 1.97.87 2.99 1.22 8.69 2.97 13.19-.56 12.41-10.42zm.63-14.36c-.07 0-.14 0-.22-.01 0-1.95.13-3.91-.02-5.84-.41-5.15-3.48-7.96-8.44-8.05-4.84-.09-7.5 2.76-7.97 7.63-.43 4.54-.59 9.05.25 13.57.83 4.46 3.76 6.15 7.9 6.01 4.06-.14 7.15-2.01 8.03-6.21.48-2.29.33-4.73.47-7.1z"/><path d="m173.84 341.43c0 2.6.14 5.21-.04 7.8-.19 2.71 1.67 8.02-4.68 4.06-.76-.47-2.63.98-4.03 1.38-4.78 1.35-9.54 1.72-13.37-2.18-3.67-3.73-3.13-8.55-1.79-12.86 1.52-4.9 6.26-5.43 10.65-5.9 1.07-.11 2.21.14 3.24-.1 2.06-.49 5.47 1.05 5.74-2.35.26-3.24-1.73-5.71-5.19-6.53-2.9-.69-5.58.04-8.22 1.14-1.27.53-2.59.89-3.31-.69-.99-2.17.82-2.45 2.2-3.04 10.76-4.61 18.76.53 18.83 12.14.02 2.38 0 4.77 0 7.15-.02-.02-.03-.02-.03-.02zm-8.76-4.35c-9 .13-11.91 2.25-11.92 8-.01 4.65 2.53 6.65 6.78 6.79 6.03.2 9.85-3.87 10.13-9.73.22-4.39-1.3-6.01-4.99-5.06z"/><path d="m313.62 353.11v10.74c0 1.37-.22 2.69-1.88 2.87-1.87.2-2-1.26-2.01-2.57-.03-13.41-.04-26.81-.03-40.22 0-1.11.83-2.86 1.47-2.37 4.55 3.53 8.56-2.08 12.9-.51 1.2.43 2.58.41 3.77.88 6.41 2.5 9.38 17.07 5.56 27.01-2.34 6.09-9.42 8.19-17.1 5.08-.76-.31-1.54-.53-2.68-.91zm16.86-14.91c0-9.75-2.23-13.55-8.05-13.73-6.03-.18-8.79 4.14-8.79 13.72.01 9.34 2.48 13.44 8.23 13.62 6.41.2 8.61-3.29 8.61-13.61z"/><path d="m439.11 340.19c-1.3-.01-2.65-.24-3.89.04-2.26.51-6.04-1.79-6.49 2.08-.46 4.02 1.21 7.86 5.73 9.06 3.86 1.02 7.74.63 11.39-1.21 1.31-.66 2.57-.71 3.1.95.41 1.28-.6 1.88-1.51 2.51-9.32 6.34-21.9.47-22.75-10.72-.24-3.23-.23-6.51.02-9.74.75-9.66 6.16-13.67 15.84-11.93 7.21 1.3 11.3 8.63 9.49 16.59-.45 2-1.47 2.38-3.13 2.37-2.59.01-5.19.01-7.8 0zm-2.01-3.11c2.65-2.34 8.5 3.23 8.75-4.11.17-4.84-3.55-8.39-8.51-8.47-5.23-.09-9.09 3.56-8.71 8.94.47 6.58 5.89 1.41 8.47 3.64z"/><path d="m237.18 340.22c-1.3 0-2.66-.25-3.88.05-2.33.58-6.28-2.04-6.63 2.66-.3 3.99 1.44 7.23 5.61 8.42 3.66 1.05 7.3.6 10.79-.86 1.45-.61 3.08-1.42 3.74.62.64 1.97-1.32 2.36-2.64 2.98-11.71 5.5-21.48-.68-21.51-13.6-.01-2.16.04-4.33-.01-6.49-.12-5.04.78-9.76 6-11.84 5.25-2.09 10.75-2.15 15.38 1.56 4.71 3.77 3.53 9.39 3.6 14.5.02 1.72-1.24 2.02-2.66 2-2.6-.01-5.19 0-7.79 0zm-2.96-3.59c9.36 0 9.36 0 9.39-3.59.04-5.02-3.34-8.38-8.52-8.49-5.07-.1-8.58 3.27-8.51 8.41.1 6.9 5.59 2.08 7.64 3.67z"/><path d="m280.36 338.45c0-4.76-.03-9.52.01-14.27.02-2.09 2.49-3.88 2.94-2.37 1.97 6.65 4.26 1.07 5.86.3 6.98-3.34 14.42.15 14.95 7.74.51 7.32.17 14.7.16 22.06 0 1.52-.04 3.34-2.26 3.08-2.17-.25-1.67-2.18-1.68-3.59-.05-5.84.04-11.68-.04-17.52-.06-4.51-.37-9.02-6.47-9.27-4.15-.17-9.43 5.1-9.6 9.75-.2 5.62.01 11.25-.09 16.87-.03 1.5.82 3.97-2.03 3.78-2.04-.14-1.76-2.08-1.76-3.57 0-4.34.01-8.67.01-12.99z"/><path d="m265.61 340.2c-1.3 0-2.67-.27-3.88.06-2.3.61-6.21-2.15-6.61 2.57-.37 4.35 1.61 7.61 6.1 8.66 3.68.86 7.31.38 10.76-1.26 1.23-.59 2.61-.92 3.29.69.69 1.64-.73 2.21-1.83 2.86-10.65 6.26-22.32-.21-22.44-12.43-.02-2.38.03-4.76 0-7.14-.05-5.01.77-9.76 5.96-11.93 5.24-2.2 10.69-2.24 15.41 1.35 4.91 3.73 3.45 9.38 3.58 14.46.06 2.15-1.62 2.18-3.19 2.18-2.38-.01-4.76 0-7.15 0 0-.03 0-.05 0-.07zm-2.33-3.11c2.58-2.45 8.5 3.28 8.74-4.13.17-5.03-3.37-8.46-8.49-8.54-4.92-.07-8.57 3.56-8.47 8.58.14 6.95 5.67 1.94 8.22 4.09z"/><path d="m392.81 338.45c0 13.57-4.09 17.97-15.67 16.85-.43-.04-.87-.02-1.29-.11-4.61-1.07-8.64-3.79-8.57-8.46.12-8.04-3.99-17.45 4.31-23.61 4.97-3.68 11.3-3.27 16.59.03 5.69 3.54 4.64 9.72 4.63 15.3zm-4-.17c0-10.19-2.53-13.96-9.24-13.78-5.59.15-8.56 3.73-8.71 10.49-.29 12.74 1.4 16.27 8 16.8 7.37.58 9.95-2.91 9.95-13.51z"/><path d="m342.29 325.59c3.74-2.14 5.75-4.16 8.73-4.52 6.07-.74 10.61 1.94 11.12 7.95.66 7.73.39 15.54.47 23.31.01 1.32-.26 2.72-2.01 2.7-1.82-.02-1.84-1.48-1.85-2.78-.02-6.27.06-12.55-.02-18.82-.05-4.33-.69-8.49-6.28-8.84-4.27-.26-9.5 4.94-9.59 9.48-.11 5.41.01 10.82-.03 16.23-.01 1.57.75 3.76-2.12 3.67-2.37-.08-1.85-1.97-1.86-3.35-.03-12.11-.02-24.23.04-36.35.01-1.37-.52-3.35 1.91-3.28 2.71.08 1.35 2.21 1.41 3.39.18 3.37.08 6.76.08 11.21z"/><path d="m396.76 338.13c.01-4.55.02-9.1 0-13.64-.01-1.9 1.66-4.4 2.53-2.79 2.91 5.39 4.91.81 7.13-.06 6.65-2.61 13.45 1.14 13.76 8.08.33 7.35.11 14.72.08 22.08-.01 1.44.29 3.39-2.04 3.17-1.68-.16-1.6-1.78-1.61-3.06-.02-5.85.08-11.7-.03-17.54-.08-4.64-.04-9.61-6.64-9.76-4.52-.1-9.18 5.34-9.26 10.6-.07 4.76.1 9.53-.06 14.29-.07 1.94 1.2 5.22-1.79 5.37-3.19.16-1.97-3.16-2.06-5.06-.13-3.88-.01-7.78-.01-11.68z"/><path d="m139.84 325.86c1.15-1.07 2.12-2.24 3.34-3.04 1.77-1.16 4.34-2.86 5.65-.45 1.78 3.26-1.9 2.68-3.52 3.63-3.87 2.27-6.68 5.3-6.57 10.26.12 5.17.08 10.35.03 15.52-.01 1.43.23 3.34-2.06 3.21-1.74-.1-1.69-1.65-1.69-2.94-.02-9.27-.02-18.54 0-27.81 0-1.24-.2-2.83 1.71-2.8 2.75.04 1.37 3.22 3.11 4.42z"/></g></svg>