<svg width="64" height="64" viewBox="0 0 64 64" fill="none" xmlns="http://www.w3.org/2000/svg">
<g clip-path="url(#clip0_988_91924)">
<path d="M63.5802 32.1111C63.5832 42.9858 55.1224 51.8031 44.6827 51.806C34.2428 51.8087 25.7784 42.9958 25.7756 32.1211C25.7756 32.1176 25.7756 32.1147 25.7756 32.1111C25.7729 21.2367 34.2337 12.4189 44.6729 12.416C55.1128 12.4131 63.5775 21.2264 63.5802 32.1011C63.5802 32.1044 63.5802 32.1076 63.5802 32.1111Z" fill="#FF9900"/>
<path d="M19.2003 12.4211C8.82245 12.4898 0.419678 21.2847 0.419678 32.1111C0.419678 42.9798 8.88794 51.8009 19.3221 51.8009C24.2191 51.8009 28.6829 49.8569 32.0419 46.6707C32.0419 46.6707 32.0412 46.6702 32.0404 46.6698H32.0444C32.7322 46.0169 33.3737 45.3124 33.9634 44.5613H30.0907C29.5736 43.9107 29.1036 43.2327 28.6814 42.5331H35.3605C35.7667 41.856 36.1345 41.1529 36.4609 40.4247H27.5787C27.276 39.7487 27.0132 39.0573 26.7887 38.356H37.2517C37.8823 36.3933 38.2245 34.2936 38.2245 32.1109C38.2245 30.6638 38.0739 29.2529 37.7889 27.8944H26.2339C26.377 27.1953 26.5577 26.5047 26.7732 25.826H37.2399C37.0059 25.1038 36.7341 24.4 36.425 23.7178H27.5777C27.8968 23.0076 28.2584 22.3167 28.6622 21.6496H35.3364C34.8922 20.9124 34.4007 20.2082 33.8693 19.5411H30.1481C30.7235 18.8358 31.3569 18.1716 32.0444 17.5522C28.6853 14.3656 24.2202 12.4211 19.3221 12.4211C19.2813 12.4211 19.241 12.4209 19.2003 12.4211Z" fill="#CC0000"/>
<path d="M61.6839 42.4044C61.7867 42.4044 61.8868 42.4322 61.9845 42.4869C62.0826 42.5416 62.1581 42.6204 62.2127 42.7229C62.2674 42.8242 62.2947 42.9311 62.2947 43.0418C62.2947 43.1511 62.2676 43.2569 62.2138 43.3582C62.1603 43.4593 62.0847 43.5382 61.9875 43.5944C61.8913 43.6498 61.7895 43.6778 61.6837 43.6778C61.5779 43.6778 61.4763 43.6498 61.3795 43.5944C61.2824 43.538 61.2073 43.4596 61.1527 43.3582C61.0989 43.2569 61.0723 43.1511 61.0723 43.0418C61.0723 42.9311 61.0994 42.8242 61.1542 42.7229C61.2092 42.6204 61.2852 42.5422 61.3827 42.4869C61.4812 42.4322 61.5813 42.4044 61.6839 42.4044ZM61.6839 42.51C61.5983 42.51 61.5147 42.5331 61.433 42.5791C61.3519 42.6251 61.2886 42.6902 61.2429 42.7764C61.1966 42.8613 61.1736 42.9493 61.1736 43.0418C61.1736 43.1333 61.1962 43.2218 61.2408 43.3058C61.2865 43.3896 61.3496 43.4553 61.4302 43.5024C61.5115 43.5493 61.5958 43.5724 61.6837 43.5724C61.772 43.5724 61.8565 43.5493 61.9373 43.5024C62.018 43.4553 62.0809 43.3896 62.1259 43.3058C62.1705 43.2218 62.1927 43.1336 62.1927 43.0418C62.1927 42.9493 62.1701 42.8611 62.1242 42.7764C62.0788 42.6902 62.0152 42.6251 61.9335 42.5791C61.8526 42.5329 61.7694 42.51 61.6839 42.51ZM61.4159 43.3933V42.7084H61.6425C61.7193 42.7084 61.7752 42.7147 61.8098 42.728C61.8443 42.7407 61.8718 42.7622 61.8925 42.794C61.9128 42.8253 61.9233 42.8587 61.9233 42.8942C61.9233 42.9444 61.9062 42.988 61.8716 43.0249C61.8379 43.0618 61.7921 43.0829 61.7353 43.0873C61.7586 43.0973 61.7771 43.11 61.7916 43.1238C61.8183 43.1504 61.8503 43.1956 61.8887 43.2593L61.9687 43.3933H61.8394L61.7814 43.2856C61.7355 43.2007 61.6986 43.1478 61.6702 43.126C61.6508 43.1107 61.6225 43.1027 61.5855 43.1027H61.523V43.394H61.4164M61.5222 43.0078H61.651C61.7125 43.0078 61.7541 42.998 61.7765 42.9791C61.7991 42.9596 61.8104 42.9347 61.8104 42.9031C61.8104 42.8827 61.8053 42.8644 61.7944 42.8489C61.7833 42.8327 61.7684 42.8211 61.749 42.8129C61.73 42.8051 61.6946 42.8007 61.6429 42.8007H61.5226V43.0078" fill="#FCB340"/>
<path d="M25.5948 37.76L25.8465 35.9778C25.7089 35.9778 25.5067 36.0398 25.3279 36.0398C24.6273 36.0398 24.5399 35.6498 24.5949 35.3649L25.2853 31.7804H26.3502L26.5697 29.7575H25.566L25.7704 28.5318H23.6707C23.6264 28.578 22.4829 35.4255 22.4829 36.2598C22.4829 37.4942 23.1481 38.0435 24.0863 38.0349C24.8206 38.0284 25.393 37.8167 25.5948 37.76Z" fill="#000066"/>
<path d="M26.2319 34.3627C26.2319 37.3253 28.1091 38.0291 29.7086 38.0291C31.1851 38.0291 31.9593 37.6727 31.9593 37.6727L32.3139 35.6504C32.3139 35.6504 31.0663 36.1789 30.0523 36.1789C27.891 36.1789 28.2699 34.5002 28.2699 34.5002L32.422 34.5133C32.422 34.5133 32.6863 33.1553 32.6863 32.6018C32.6863 31.2202 31.9638 29.5242 29.7541 29.5242C27.7304 29.5247 26.2319 31.796 26.2319 34.3627ZM29.7617 31.4015C30.8975 31.4015 30.688 32.7313 30.688 32.8391H28.4536C28.4536 32.7013 28.6646 31.4015 29.7617 31.4015Z" fill="#000066"/>
<path d="M42.5059 37.7593L42.8663 35.474C42.8663 35.474 41.8781 35.9898 41.2008 35.9898C39.7729 35.9898 39.2001 34.8542 39.2001 33.634C39.2001 31.1591 40.4285 29.7973 41.796 29.7973C42.8217 29.7973 43.6445 30.3971 43.6445 30.3971L43.973 28.1764C43.973 28.1764 43.0015 27.4455 41.9557 27.4413C38.8101 27.4284 37.0103 29.7098 37.0103 33.6535C37.0103 36.2675 38.3432 38.0464 40.7449 38.0464C41.4239 38.0464 42.5059 37.7593 42.5059 37.7593Z" fill="#000066"/>
<path d="M14.5251 29.5569C13.145 29.5569 12.0873 30.0189 12.0873 30.0189L11.795 31.8249C11.795 31.8249 12.6682 31.4553 13.9883 31.4553C14.7378 31.4553 15.286 31.5431 15.286 32.1775C15.286 32.5629 15.219 32.7051 15.219 32.7051C15.219 32.7051 14.6277 32.6538 14.3538 32.6538C12.389 32.6538 10.7849 33.4275 10.7849 35.7604C10.7849 37.5989 11.9845 38.0204 12.728 38.0204C14.1481 38.0204 14.7102 37.0864 14.7427 37.0838L14.7262 37.8589H16.4984L17.289 32.0855C17.289 29.6355 15.2376 29.5569 14.5251 29.5569ZM14.8318 34.2449C14.8705 34.5973 14.7444 36.264 13.5322 36.264C12.9072 36.264 12.7448 35.7662 12.7448 35.4724C12.7448 34.8982 13.0441 34.2095 14.5187 34.2095C14.8621 34.2095 14.774 34.2353 14.8318 34.2449Z" fill="#000066"/>
<path d="M19.1726 37.9778C19.626 37.9778 22.2173 38.098 22.2173 35.3124C22.2173 32.7078 19.8186 33.2227 19.8186 32.176C19.8186 31.6555 20.2096 31.4915 20.9245 31.4915C21.208 31.4915 22.2999 31.5855 22.2999 31.5855L22.5535 29.7344C22.5535 29.7344 21.847 29.5698 20.6967 29.5698C19.2078 29.5698 17.6966 30.1889 17.6966 32.3071C17.6966 34.7075 20.2165 34.4664 20.2165 35.4775C20.2165 36.1524 19.5125 36.208 18.9697 36.208C18.0309 36.208 17.1856 35.8722 17.1826 35.8884L16.9141 37.7207C16.9629 37.7362 17.4845 37.9778 19.1726 37.9778Z" fill="#000066"/>
<path d="M59.107 27.8775L58.7432 30.7018C58.7432 30.7018 57.9853 29.6118 56.7993 29.6118C54.5681 29.6118 53.4182 31.928 53.4182 34.5887C53.4182 36.3064 54.2383 37.9902 55.914 37.9902C57.1195 37.9902 57.7879 37.1144 57.7879 37.1144L57.6994 37.8622H59.6574L61.1949 27.8929L59.107 27.8775ZM58.2425 33.3667C58.2425 34.474 57.716 35.9533 56.6253 35.9533C55.9008 35.9533 55.5611 35.3198 55.5611 34.3258C55.5611 32.7002 56.262 31.628 57.1466 31.628C57.8707 31.628 58.2425 32.1458 58.2425 33.3667Z" fill="#000066"/>
<path d="M3.6278 37.8704L4.85298 30.3438L5.03303 37.8704H6.41948L9.00615 30.3438L7.86034 37.8704H9.92071L11.5073 27.8878L8.23431 27.8618L6.28743 33.9738L6.2341 27.8878H3.23463L1.62524 37.8704H3.6278Z" fill="#000066"/>
<path d="M34.6363 37.8847C35.2221 34.4147 35.4308 31.6742 37.1391 32.2418C37.3845 30.8987 37.9692 29.7307 38.2363 29.1622C38.2363 29.1622 38.1518 29.0313 37.6238 29.0313C36.7225 29.0313 35.5191 30.9367 35.5191 30.9367L35.6989 29.7587H33.8246L32.5693 37.8844L34.6363 37.8847Z" fill="#000066"/>
<path d="M46.7213 29.5569C45.3406 29.5569 44.2829 30.0189 44.2829 30.0189L43.9909 31.8249C43.9909 31.8249 44.8645 31.4553 46.184 31.4553C46.9336 31.4553 47.4816 31.5431 47.4816 32.1775C47.4816 32.5629 47.4149 32.7051 47.4149 32.7051C47.4149 32.7051 46.8237 32.6538 46.5498 32.6538C44.5848 32.6538 42.981 33.4275 42.981 35.7604C42.981 37.5989 44.1803 38.0204 44.9238 38.0204C46.3435 38.0204 46.9061 37.0864 46.9383 37.0838L46.9216 37.8589H48.6942L49.4846 32.0855C49.4849 29.6355 47.4334 29.5569 46.7213 29.5569ZM47.0277 34.2449C47.0661 34.5973 46.94 36.264 45.7281 36.264C45.1026 36.264 44.9404 35.7662 44.9404 35.4724C44.9404 34.8982 45.2395 34.2095 46.7143 34.2095C47.058 34.2095 46.9701 34.2353 47.0277 34.2449Z" fill="#000066"/>
<path d="M51.5247 37.8846C51.8464 35.3318 52.4418 31.7478 54.0273 32.2418C54.2724 30.8986 54.036 30.9022 53.5083 30.9022C52.6063 30.9022 52.4066 30.9364 52.4066 30.9364L52.5867 29.7584H50.7125L49.4573 37.8844L51.5247 37.8846Z" fill="#000066"/>
<path d="M26.1194 37.1242L26.3713 35.3422C26.2337 35.3422 26.0313 35.4036 25.8527 35.4036C25.1521 35.4036 25.0749 35.0156 25.1195 34.7287L25.6855 31.0927H26.7502L27.0073 29.1216H26.0033L26.2077 27.8958H24.1951C24.1508 27.942 23.0071 34.7898 23.0071 35.6236C23.0071 36.858 23.6725 37.4078 24.6107 37.3989C25.3454 37.3924 25.9176 37.1807 26.1194 37.1242Z" fill="white"/>
<path d="M26.7571 33.7267C26.7571 36.6893 28.6344 37.3933 30.2338 37.3933C31.71 37.3933 32.3596 37.0496 32.3596 37.0496L32.7142 35.0276C32.7142 35.0276 31.5912 35.5429 30.577 35.5429C28.416 35.5429 28.7944 33.8644 28.7944 33.8644H32.8844C32.8844 33.8644 33.1485 32.506 33.1485 31.9524C33.1485 30.5711 32.4885 28.888 30.2788 28.888C28.2551 28.8884 26.7571 31.1598 26.7571 33.7267ZM30.2865 30.7656C31.4223 30.7656 31.2128 32.0951 31.2128 32.2027H28.9783C28.9783 32.0653 29.1895 30.7656 30.2865 30.7656Z" fill="white"/>
<path d="M43.031 37.1233L43.3911 34.8378C43.3911 34.8378 42.4036 35.3536 41.7258 35.3536C40.2982 35.3536 39.7256 34.218 39.7256 32.998C39.7256 30.5231 40.954 29.1616 42.3215 29.1616C43.347 29.1616 44.17 29.7613 44.17 29.7613L44.4985 27.5407C44.4985 27.5407 43.2781 27.0262 42.2319 27.0262C39.9085 27.0262 37.6482 29.1258 37.6482 33.0689C37.6482 35.6836 38.8687 37.4104 41.2704 37.4104C41.9494 37.4107 43.031 37.1233 43.031 37.1233Z" fill="white"/>
<path d="M15.0502 28.9207C13.6701 28.9207 12.6122 29.3827 12.6122 29.3827L12.3202 31.1887C12.3202 31.1887 13.1933 30.8191 14.5132 30.8191C15.2627 30.8191 15.8109 30.9069 15.8109 31.5413C15.8109 31.9267 15.7437 32.0689 15.7437 32.0689C15.7437 32.0689 15.1526 32.0173 14.8789 32.0173C13.1383 32.0173 11.3098 32.7911 11.3098 35.124C11.3098 36.9622 12.5094 37.384 13.2529 37.384C14.6728 37.384 15.2849 36.4242 15.3175 36.4213L15.2511 37.2224H17.0233L17.8139 31.4489C17.8139 28.9996 15.7627 28.9207 15.0502 28.9207ZM15.4813 33.6216C15.5197 33.9742 15.2691 35.6273 14.0573 35.6273C13.4323 35.6273 13.2697 35.13 13.2697 34.8358C13.2697 34.262 13.569 33.5731 15.0438 33.5731C15.3868 33.5736 15.4235 33.6118 15.4813 33.6216Z" fill="white"/>
<path d="M19.6973 37.3418C20.1506 37.3418 22.7422 37.4618 22.7422 34.6762C22.7422 32.072 20.3433 32.5864 20.3433 31.5402C20.3433 31.0193 20.7343 30.8553 21.449 30.8553C21.7327 30.8553 22.8244 30.9493 22.8244 30.9493L23.0782 29.0982C23.0782 29.0982 22.3717 28.9336 21.2214 28.9336C19.7325 28.9336 18.2213 29.5527 18.2213 31.6709C18.2213 34.0711 20.7412 33.8302 20.7412 34.8413C20.7412 35.5162 20.0372 35.5711 19.4946 35.5711C18.5558 35.5711 17.7103 35.2356 17.7073 35.2516L17.439 37.084C17.4876 37.0996 18.009 37.3418 19.6973 37.3418Z" fill="white"/>
<path d="M59.7018 27.2596L59.2677 30.0656C59.2677 30.0656 58.5102 28.9756 57.3242 28.9756C55.4802 28.9756 53.9431 31.2916 53.9431 33.9527C53.9431 35.6704 54.763 37.3536 56.4389 37.3536C57.6444 37.3536 58.3128 36.478 58.3128 36.478L58.2243 37.2258H60.1818L61.7193 27.2562L59.7018 27.2596ZM58.7672 32.7307C58.7672 33.838 58.2409 35.3171 57.1497 35.3171C56.4255 35.3171 56.0861 34.6838 56.0861 33.6898C56.0861 32.0644 56.7868 30.992 57.6711 30.992C58.3956 30.9918 58.7672 31.5102 58.7672 32.7307Z" fill="white"/>
<path d="M4.15288 37.2344L5.37806 29.7078L5.5579 37.2344H6.94456L9.53123 29.7078L8.38542 37.2344H10.4458L12.0326 27.2516H8.84643L6.86222 33.3767L6.75896 27.2516H3.822L2.2124 37.2344H4.15288Z" fill="white"/>
<path d="M35.1613 37.2482C35.7471 33.778 35.8557 30.9602 37.2536 31.476C37.4983 30.1329 37.7345 29.6133 38.0016 29.0449C38.0016 29.0449 37.8763 29.0176 37.6135 29.0176C36.7122 29.0176 36.0445 30.3002 36.0445 30.3002L36.2239 29.1222H34.3499L33.0945 37.2482H35.1613Z" fill="white"/>
<path d="M47.6747 28.9207C46.2947 28.9207 45.2368 29.3827 45.2368 29.3827L44.9449 31.1887C44.9449 31.1887 45.8181 30.8191 47.138 30.8191C47.8874 30.8191 48.4353 30.9069 48.4353 31.5413C48.4353 31.9267 48.3685 32.0689 48.3685 32.0689C48.3685 32.0689 47.7773 32.0173 47.5034 32.0173C45.7631 32.0173 43.9346 32.7911 43.9346 35.124C43.9346 36.9622 45.1339 37.384 45.8774 37.384C47.2973 37.384 47.9094 36.4242 47.9418 36.4213L47.8759 37.2224C47.8759 37.2224 49.6474 37.2224 49.6481 37.2224L50.4385 31.4489C50.4387 28.9996 48.3873 28.9207 47.6747 28.9207ZM48.1065 33.6216C48.1449 33.9742 47.894 35.6273 46.6819 35.6273C46.0568 35.6273 45.8947 35.13 45.8947 34.8358C45.8947 34.262 46.194 33.5731 47.6685 33.5731C48.0116 33.5736 48.0481 33.6118 48.1065 33.6216Z" fill="white"/>
<path d="M52.0583 37.2482C52.6443 33.778 52.7529 30.9602 54.1504 31.476C54.3955 30.1329 54.6319 29.6133 54.8988 29.0449C54.8988 29.0449 54.7736 29.0176 54.5107 29.0176C53.6094 29.0176 52.9417 30.3002 52.9417 30.3002L53.1211 29.1222H51.2472L49.9917 37.2482H52.0583Z" fill="white"/>
<path d="M61.6758 35.9944C61.778 35.9944 61.8787 36.0218 61.9757 36.0773C62.0736 36.1311 62.1498 36.2102 62.2044 36.3127C62.2592 36.4144 62.2861 36.5204 62.2861 36.6313C62.2861 36.7409 62.2592 36.8467 62.2053 36.9478C62.1517 37.0489 62.0764 37.1282 61.9794 37.184C61.8825 37.2396 61.7809 37.2676 61.6756 37.2676C61.5693 37.2676 61.4678 37.2396 61.3707 37.184C61.2739 37.1278 61.1988 37.0489 61.145 36.9478C61.0904 36.8467 61.0637 36.7409 61.0637 36.6313C61.0637 36.5204 61.0908 36.4144 61.1456 36.3127C61.2007 36.2102 61.2771 36.1316 61.3745 36.0773C61.4729 36.0218 61.5736 35.9944 61.6758 35.9944ZM61.6758 36.0993C61.5902 36.0993 61.5066 36.1224 61.4249 36.1689C61.3434 36.2142 61.28 36.2798 61.2342 36.3656C61.1885 36.4502 61.1655 36.5389 61.1655 36.6309C61.1655 36.7229 61.1877 36.8109 61.2323 36.8949C61.2777 36.9787 61.3408 37.0444 61.4223 37.0918C61.503 37.138 61.5872 37.1613 61.6758 37.1613C61.7637 37.1613 61.8486 37.138 61.9292 37.0918C62.0099 37.0444 62.073 36.9787 62.1178 36.8949C62.1628 36.8102 62.1848 36.7229 62.1848 36.6309C62.1848 36.5389 62.162 36.4502 62.1163 36.3656C62.0709 36.2798 62.0075 36.2142 61.9256 36.1689C61.8445 36.1227 61.7615 36.0993 61.6758 36.0993ZM61.408 36.9829V36.2978H61.6344C61.7114 36.2978 61.7677 36.3042 61.8019 36.3173C61.8364 36.3296 61.8635 36.3516 61.8846 36.3833C61.9053 36.4149 61.9158 36.448 61.9158 36.4836C61.9158 36.5336 61.8983 36.5773 61.8637 36.6142C61.83 36.6511 61.7846 36.6724 61.7278 36.6764C61.7504 36.6867 61.7692 36.6989 61.7837 36.7127C61.81 36.7398 61.8424 36.7851 61.8808 36.8484L61.9612 36.9827H61.8313L61.7735 36.8749C61.7274 36.7898 61.6905 36.7369 61.6623 36.7153C61.6429 36.6996 61.6146 36.6918 61.5772 36.6918H61.5151V36.9831L61.408 36.9829ZM61.5143 36.5973H61.6431C61.7048 36.5973 61.7464 36.5878 61.7686 36.5687C61.791 36.55 61.8027 36.5244 61.8027 36.4927C61.8027 36.4724 61.7974 36.4542 61.7867 36.4389C61.7758 36.4224 61.7607 36.4107 61.7413 36.4024C61.7219 36.3947 61.6871 36.3907 61.635 36.3907H61.5145V36.5973" fill="white"/>
</g>
<defs>
<clipPath id="clip0_988_91924">
<rect width="64" height="40" fill="white" transform="translate(0 12)"/>
</clipPath>
</defs>
</svg>
