<svg width="18" height="18" viewBox="0 0 18 18" fill="none" xmlns="http://www.w3.org/2000/svg">
<g clip-path="url(#clip0_60_1046)">
<path d="M17.4443 12.15L15.4943 5.12176C15.0779 3.61832 14.1706 2.29736 12.9168 1.36912C11.663 0.440881 10.1347 -0.0413 8.57516 -0.000680233C7.01566 0.0399395 5.51455 0.601026 4.31075 1.59328C3.10694 2.58553 2.26963 3.95193 1.93206 5.47501L0.423809 12.2625C0.350828 12.5913 0.352608 12.9324 0.429018 13.2604C0.505427 13.5885 0.654516 13.8952 0.865285 14.1579C1.07605 14.4207 1.34312 14.6327 1.64679 14.7785C1.95046 14.9242 2.28298 14.9999 2.61981 15H5.32506C5.4972 15.8477 5.95711 16.6099 6.62687 17.1573C7.29662 17.7047 8.13504 18.0038 9.00006 18.0038C9.86508 18.0038 10.7035 17.7047 11.3733 17.1573C12.043 16.6099 12.5029 15.8477 12.6751 15H15.2776C15.6241 14.9999 15.966 14.9196 16.2765 14.7656C16.5869 14.6116 16.8576 14.3879 17.0674 14.112C17.2773 13.8362 17.4205 13.5156 17.486 13.1752C17.5515 12.8349 17.5375 12.484 17.4451 12.15H17.4443ZM9.00006 16.5C8.53636 16.4981 8.08459 16.3529 7.70653 16.0844C7.32848 15.8159 7.04262 15.4372 6.88806 15H11.1121C10.9575 15.4372 10.6716 15.8159 10.2936 16.0844C9.91553 16.3529 9.46375 16.4981 9.00006 16.5ZM15.8738 13.2038C15.8038 13.2965 15.7131 13.3716 15.609 13.4231C15.5048 13.4745 15.39 13.5009 15.2738 13.5H2.61981C2.5075 13.5 2.39664 13.4747 2.29539 13.4262C2.19415 13.3776 2.10511 13.3068 2.03485 13.2192C1.96459 13.1316 1.9149 13.0294 1.88945 12.92C1.864 12.8106 1.86344 12.6969 1.88781 12.5873L3.39606 5.79976C3.66182 4.60441 4.31954 3.53221 5.26465 2.75359C6.20976 1.97498 7.38803 1.53464 8.61214 1.50257C9.83625 1.4705 11.036 1.84854 12.0205 2.57661C13.0051 3.30467 13.7181 4.34097 14.0461 5.52076L15.9961 12.549C16.0279 12.6601 16.0334 12.7772 16.0122 12.8908C15.991 13.0045 15.9436 13.1116 15.8738 13.2038Z" fill="white"/>
</g>
<defs>
<clipPath id="clip0_60_1046">
<rect width="18" height="18" fill="white"/>
</clipPath>
</defs>
</svg>
