<svg width="237" height="187" viewBox="0 0 237 187" fill="none" xmlns="http://www.w3.org/2000/svg">
<g clip-path="url(#clip0_432_45574)">
<path d="M14.6617 176.998C14.6617 176.998 -7.51133 161.891 2.68488 142.902C12.8882 123.913 66.1232 101.48 55.92 86.6186C45.7238 71.7572 33.6551 8.00111 92.2815 0.711278C139.051 -5.1065 171.922 26.3067 179.165 42.6472C188.732 64.2068 139.715 105.523 184.429 110.714C229.15 115.905 254.693 137.345 222.663 172.279C208.665 187.549 14.6617 176.998 14.6617 176.998Z" fill="#C6C7F7"/>
<path d="M132.275 173.857C158.292 182.57 180.882 176.879 174.982 162.348C169.082 147.825 173.809 146.592 179.992 142.902C186.174 139.204 200.328 128.59 189.276 114.031C178.211 99.4797 188.139 96.6835 192.901 89.3514C206.793 67.9539 161.528 53.6066 171.767 75.8142C179.455 92.4857 177.639 104.403 165.082 111.087C152.512 117.771 149.721 121.715 149.156 131.611C148.598 141.507 150.343 162.848 138.514 160.686C126.707 158.51 118.927 169.385 132.275 173.857Z" fill="#3E42C2"/>
<path opacity="0.2" d="M190.916 86.0129C192.407 83.8013 193.961 72.3419 182.712 71.715C175.865 71.3347 178.381 80.991 179.137 88.2879C179.893 95.5848 177.61 106.671 174.261 110.974C168.071 118.905 168.799 122.61 174.508 130.618C174.508 130.618 177.292 136.408 170.417 141.542C163.549 146.677 164.199 162.961 156.667 164.764C149.142 166.567 144.45 171.653 149.346 172.709C154.243 173.766 174.558 177.999 170.636 163.933C164.913 143.451 180.91 139.317 185.213 135.38C189.156 131.773 193.141 123.188 184.196 110.89C177.271 101.367 186.323 92.8168 190.916 86.0129Z" fill="#F6F5F7"/>
<path d="M94.3449 164.398C62.6823 175.005 35.1886 168.075 42.3676 150.396C49.5466 132.717 43.7949 131.217 36.2626 126.723C28.7373 122.23 11.5175 109.312 24.9641 91.5912C38.4248 73.8773 26.349 70.4824 20.5549 61.5515C3.64603 35.5053 58.7395 18.0449 46.2751 45.0772C36.9268 65.3619 39.1243 79.8711 54.4151 88.0062C69.7129 96.1412 73.1046 100.945 73.7971 112.982C74.4754 125.019 72.3556 151.002 86.749 148.36C101.121 145.719 110.59 158.953 94.3449 164.398Z" fill="#F2F3FF"/>
<path d="M22.9786 57.4875C21.1626 54.797 19.269 40.8512 32.9628 40.0905C41.3007 39.6257 38.234 51.3739 37.3084 60.2626C36.3828 69.1512 39.1668 82.6392 43.2438 87.8724C50.7762 97.5288 49.8858 102.029 42.94 111.777C42.94 111.777 39.5554 118.828 47.9215 125.075C56.2806 131.33 55.4892 151.142 64.6537 153.34C73.8113 155.538 79.5276 161.722 73.5569 163.01C67.5932 164.299 42.8693 169.448 47.653 152.326C54.6201 127.399 35.1462 122.363 29.9103 117.574C25.1125 113.186 20.2582 102.734 31.1539 87.7738C39.5766 76.1805 28.5607 65.7705 22.9786 57.4875Z" fill="#C6C7F7"/>
<path d="M70.8435 175.273L70.3277 177.47C69.8542 177.351 58.5063 174.442 46.3033 166.539C30.0657 156.023 20.244 141.648 17.9122 124.948L20.025 124.596C25.4446 163.377 70.3842 175.153 70.8435 175.273Z" fill="#3E42C2"/>
<path d="M19.4313 127.181C19.4313 127.181 7.62409 120.856 12.6197 106.46C12.6197 106.467 23.0774 115.031 19.4313 127.181Z" fill="#3E42C2"/>
<path d="M23.1552 138.986C23.1552 138.986 6.98821 144.275 0.529907 126.075C0.529907 126.075 9.15747 122.976 23.1552 138.986Z" fill="#3E42C2"/>
<path d="M22.604 139.056C22.604 139.056 37.6333 130.808 30.2706 113.017C30.2706 113.017 22.067 117.201 22.604 139.056Z" fill="#3E42C2"/>
<path d="M31.4859 152.551C31.4859 152.551 15.8913 159.552 7.68066 142.176C7.68066 142.176 15.9549 138.148 31.4859 152.551Z" fill="#3E42C2"/>
<path d="M30.9348 152.671C30.9348 152.671 45.1021 142.852 36.0152 125.956C36.0081 125.956 28.2497 131.013 30.9348 152.671Z" fill="#3E42C2"/>
<path d="M44.8123 164.37C44.8123 164.37 30.5673 174.068 19.6504 158.453C19.6433 158.453 27.1545 152.988 44.8123 164.37Z" fill="#3E42C2"/>
<path d="M44.2824 164.588C44.2824 164.588 56.6479 152.368 44.9608 137.387C44.9608 137.387 38.1279 143.754 44.2824 164.588Z" fill="#3E42C2"/>
<path d="M58.5416 171.815C58.5416 171.815 47.1654 185.07 32.7296 173.019C32.7296 173.012 38.6509 165.701 58.5416 171.815Z" fill="#3E42C2"/>
<path d="M58.0965 172.167C58.0965 172.167 67.042 157.002 52.0268 145.782C52.0268 145.782 46.9887 153.791 58.0965 172.167Z" fill="#3E42C2"/>
<path d="M222.564 180.323C222.564 184.014 174.876 187 116.059 187C57.2343 187 9.5531 184.014 9.5531 180.323C9.5531 176.632 57.2343 173.646 116.059 173.646C174.876 173.639 222.564 176.632 222.564 180.323Z" fill="#7B7EE8"/>
<path d="M168.418 173.737L167.209 171.209C207.478 152.121 216.184 113.848 216.268 113.447L219.01 114.038C218.918 114.44 209.965 154.044 168.418 173.737Z" fill="#3E42C2"/>
<path d="M216.735 115.764C216.735 115.764 218.12 99.9446 226.648 102.41C230.266 103.445 230.619 110.827 216.735 115.764Z" fill="#3E42C2"/>
<path d="M214.883 121.342C214.883 121.342 226.606 109.178 230.457 116.94C232.082 120.258 227.256 126.618 214.883 121.342Z" fill="#3E42C2"/>
<path d="M215.357 122.842C215.357 122.842 220.162 107.263 210.926 108.559C206.991 109.094 203.769 116.257 215.357 122.842Z" fill="#3E42C2"/>
<path d="M208.743 135.034C208.743 135.034 214.304 119.581 205.055 120.448C201.119 120.814 197.565 127.843 208.743 135.034Z" fill="#3E42C2"/>
<path d="M202.631 144.649C202.631 144.649 208.121 129.203 198.872 130.076C194.929 130.449 191.41 137.493 202.631 144.649Z" fill="#3E42C2"/>
<path d="M193.212 155.08C193.212 155.08 201.296 140.5 192.265 139.746C188.414 139.422 183.751 145.881 193.212 155.08Z" fill="#3E42C2"/>
<path d="M184.585 162.468C184.585 162.468 192.265 147.705 183.171 147.219C179.306 147.022 174.805 153.587 184.585 162.468Z" fill="#3E42C2"/>
<path d="M172.106 170.293C172.106 170.293 183.341 157.679 175.088 154.685C171.562 153.403 165.563 158.714 172.106 170.293Z" fill="#3E42C2"/>
<path d="M210.502 131.893C210.502 131.893 222.239 119.715 226.076 127.505C227.708 130.808 222.875 137.154 210.502 131.893Z" fill="#3E42C2"/>
<path d="M204.284 141.88C204.284 141.88 216.028 129.717 219.872 137.5C221.504 140.803 216.671 147.156 204.284 141.88Z" fill="#3E42C2"/>
<path d="M196.837 150.699C196.837 150.699 210.722 141.155 212.538 149.839C213.336 153.53 207.287 158.813 196.837 150.699Z" fill="#3E42C2"/>
<path d="M187.609 159.609C187.609 159.609 202.242 151.438 203.097 160.383C203.451 164.194 196.992 168.885 187.609 159.609Z" fill="#3E42C2"/>
<path d="M177.208 166.997C177.208 166.997 192.59 160.855 192.117 170.019C191.898 173.921 184.938 177.717 177.208 166.997Z" fill="#3E42C2"/>
<path d="M115.479 106.093C142.337 106.093 164.114 74.9972 164.114 36.6393H66.8512C66.8512 74.9972 88.6215 106.093 115.479 106.093Z" fill="#F6F5F7"/>
<path d="M115.479 102.917C142.337 102.917 164.114 134.013 164.114 172.371H66.8512C66.8512 134.013 88.6215 102.917 115.479 102.917Z" fill="#F6F5F7"/>
<path d="M115.585 106.093C132.438 106.093 146.096 88.2034 146.096 66.1367H85.0814C85.0814 88.2034 98.7329 106.093 115.585 106.093Z" fill="#F67933"/>
<path d="M145.481 66.1367C145.481 67.6299 131.915 68.8343 115.175 68.8343C98.4362 68.8343 84.8695 67.6299 84.8695 66.1367C84.8695 64.6506 98.4362 63.4391 115.175 63.4391C131.915 63.4391 145.481 64.6506 145.481 66.1367Z" fill="#F67933"/>
<path d="M115.175 102.917C132.028 102.917 157.373 134.013 157.373 172.371H74.9135C74.9135 134.013 98.323 102.917 115.175 102.917Z" fill="#F67933"/>
<path d="M115.451 106.305C127.555 106.305 145.764 137.401 145.764 175.759H86.537C86.537 137.394 103.347 106.305 115.451 106.305Z" fill="#F67933"/>
<path d="M173.95 176.491C173.95 179.513 171.046 181.978 167.464 181.978H63.5019C59.9195 181.978 57.0154 179.513 57.0154 176.491C57.0154 173.463 59.9195 171.005 63.5019 171.005H167.464C171.046 171.005 173.95 173.463 173.95 176.491Z" fill="#A14F21"/>
<path d="M173.95 30.1665C173.95 33.7375 171.046 36.6323 167.464 36.6323H63.5019C59.9195 36.6323 57.0154 33.7375 57.0154 30.1665C57.0154 26.5955 59.9195 23.7007 63.5019 23.7007H167.464C171.046 23.7007 173.95 26.5955 173.95 30.1665Z" fill="#A14F21"/>
</g>
<defs>
<clipPath id="clip0_432_45574">
<rect width="237" height="187" fill="white"/>
</clipPath>
</defs>
</svg>
