<svg fill="none" height="54" viewBox="0 0 54 54" width="54" xmlns="http://www.w3.org/2000/svg"><circle cx="27" cy="27" fill="#ececf9" r="27"/><g fill="#c2c2c2"><path d="m30.8781 16.6478c-1.0943.9654-2.1739 1.9308-3.2223 2.8961l3.1489 3.1541c1.1126-.8917 2.2547-1.7797 3.4279-2.664-1.0777-1.1441-2.1959-2.2716-3.3545-3.3862z"/><path d="m35.002 20.8685-3.4959 2.5627c.5417.643 1.0833 1.2859 1.6231 1.9289 1.3073 1.5531 2.3649 3.1338 3.0975 4.8508 1.4009 3.2756.2387 6.8405-2.7927 9.2724 2.5393-1.0538 4.5241-2.1482 5.9746-4.2392 3.6484-5.2709-.8794-10.0756-4.4066-14.3756z"/><path d="m26.8792 13c-1.109.9598-2.1849 1.9307-3.2297 2.9145l3.2297 2.8888 3.2279-2.8888c-1.0429-.9838-2.1189-1.9547-3.2279-2.9145z"/><path d="m14.3497 35.2423c1.4487 2.091 3.4353 3.1853 5.9746 4.2391-3.0314-2.4318-4.1918-5.9967-2.7927-9.2723.7345-1.7152 1.7902-3.2978 3.0975-4.8509.5417-.6429 1.0815-1.2859 1.6231-1.9289l-3.4959-2.5608c-3.5271 4.3-8.0568 9.1047-4.4066 14.3738z"/><path d="m19.5258 20.034c1.1732.8843 2.3153 1.7723 3.4279 2.664l3.1489-3.1541c-1.0484-.9653-2.128-1.9307-3.2223-2.8961-1.1586 1.1146-2.2768 2.2421-3.3545 3.3862z"/><path d="m20.3517 27.5911c-2.9671 4.2926-3.1452 6.0833-.1946 10.3427-1.6121-4.1655 2.7597-8.2683 5.9673-11.216l-3.0736-2.5626c-1.076 1.2877-1.9389 2.3378-2.6991 3.4359z"/><path d="m26.8793 20.3179-3.0718 3.0693c1.0484.853 2.0729 1.7096 3.0718 2.5682 1.0006-.8586 2.0234-1.7152 3.0718-2.5682z"/><path d="m33.4046 27.5911c-.7583-1.0981-1.6212-2.1482-2.699-3.4359l-3.0736 2.5626c3.2076 2.9477 7.5793 7.0505 5.9673 11.216 2.9506-4.2594 2.7743-6.0501-.1947-10.3427z"/><path d="m32.0938 35.738c0 2.8887-2.3337 5.2321-5.2145 5.2321-2.879 0-5.2145-2.3415-5.2145-5.2321 0-.5325 0-3.5631 5.2145-7.1593 0 0 5.2145 3.3015 5.2145 7.1593z"/></g></svg>