<svg width="24" height="24" viewBox="0 0 24 24" fill="none" xmlns="http://www.w3.org/2000/svg">
<path d="M7.79339 -6.10352e-05C8.23559 0.147339 8.53653 0.423715 8.58566 0.908908C8.65936 1.67662 8.2233 2.15567 7.44945 2.16181C6.11671 2.16795 4.77782 2.16181 3.44508 2.16181C3.32839 2.16181 3.21784 2.16181 3.10114 2.16795C2.59138 2.19866 2.20446 2.5733 2.18603 3.08306C2.16761 3.51298 2.17989 3.9429 2.17989 4.37281C2.17989 5.39233 2.18603 6.41185 2.17989 7.43137C2.17375 8.21136 1.70084 8.64742 0.933131 8.57372C0.429513 8.53073 0.153138 8.22979 0.0057373 7.78759C0.0057373 6.11091 0.0057373 4.44037 0.0057373 2.76369C0.0180207 2.70228 0.0364457 2.647 0.0487291 2.58559C0.275971 1.48623 0.896281 0.687807 1.93422 0.245606C2.19832 0.135056 2.48698 0.0797808 2.76949 -6.10352e-05C4.44617 -6.10352e-05 6.11671 -6.10352e-05 7.79339 -6.10352e-05Z" fill="white"/>
<path d="M23.5901 7.78765C23.4427 8.22985 23.1663 8.53079 22.6811 8.57992C21.9134 8.65362 21.4343 8.21757 21.4343 7.43757C21.4282 6.08026 21.4343 4.72295 21.4343 3.36564C21.4343 3.23052 21.4405 3.08926 21.4098 2.95415C21.3238 2.5058 20.9676 2.19872 20.507 2.17415C20.3596 2.16801 20.2183 2.16801 20.0709 2.16801C18.7689 2.16801 17.4607 2.16801 16.1586 2.16801C15.3786 2.16801 14.9487 1.68896 15.0224 0.91511C15.0593 0.423776 15.3602 0.1474 15.8086 0C17.4852 0 19.1558 0 20.8325 0C20.8816 0.0122834 20.9369 0.0307084 20.986 0.0368501C22.2143 0.288659 23.0373 1.00109 23.4488 2.18644C23.5102 2.37069 23.5471 2.56722 23.5962 2.76376C23.5901 4.44043 23.5901 6.11097 23.5901 7.78765Z" fill="white"/>
<path d="M0.00614168 15.8024C0.159684 15.3295 0.466768 15.0347 0.98881 15.0101C1.70739 14.9732 2.15573 15.3847 2.16801 16.1095C2.1803 16.7482 2.16801 17.3808 2.16801 18.0195C2.16801 18.7872 2.16801 19.5549 2.16801 20.3226C2.17415 21.0474 2.5488 21.422 3.27966 21.4281C4.64311 21.4343 6.0127 21.4281 7.37616 21.4343C7.54198 21.4343 7.71395 21.4466 7.87363 21.4957C8.38953 21.6431 8.65977 22.1344 8.57378 22.7363C8.50623 23.2277 8.10702 23.59 7.59111 23.6023C7.12435 23.6146 6.65758 23.6084 6.18467 23.6084C5.19586 23.6084 4.20705 23.6084 3.21824 23.6084C1.59684 23.6023 0.350076 22.5644 0.0368501 20.9675C0.0307084 20.9245 0.0122834 20.8815 0 20.8385C0.00614168 19.1496 0.00614168 17.4729 0.00614168 15.8024Z" fill="white"/>
<path d="M23.5901 20.8201C23.5348 21.0351 23.4918 21.25 23.4181 21.4588C22.9882 22.7179 21.8152 23.5777 20.4886 23.59C19.0146 23.6023 17.5406 23.5961 16.0727 23.59C15.4831 23.59 15.0593 23.2092 15.0163 22.6503C14.9672 21.9686 15.2927 21.5325 15.9253 21.4343C16.0297 21.4158 16.1403 21.4158 16.2447 21.4158C17.5713 21.4158 18.8979 21.4158 20.2245 21.4158C20.3719 21.4158 20.5193 21.4158 20.6605 21.3851C21.1334 21.2807 21.4221 20.9184 21.4221 20.4025C21.4282 19.2294 21.4282 18.0563 21.4282 16.8833C21.4282 16.6069 21.416 16.3305 21.4344 16.0542C21.4774 15.2189 22.2451 14.7521 23.0128 15.0899C23.326 15.2312 23.4857 15.4891 23.5901 15.7962C23.5901 17.4729 23.5901 19.1496 23.5901 20.8201Z" fill="white"/>
<path d="M19.3155 7.51126C19.3155 8.21141 19.3155 8.90542 19.3155 9.60557C19.3155 10.318 18.8978 10.7356 18.1854 10.7356C16.7912 10.7418 15.3909 10.7418 13.9968 10.7356C13.2843 10.7356 12.8606 10.318 12.8606 9.60557C12.8544 8.19913 12.8544 6.79883 12.8606 5.39238C12.8606 4.69223 13.2843 4.28074 13.9845 4.2746C15.3909 4.2746 16.7912 4.2746 18.1977 4.2746C18.904 4.2746 19.3155 4.68609 19.3216 5.38624C19.3155 6.09868 19.3155 6.80497 19.3155 7.51126ZM15.0286 7.4867C15.0286 7.77535 15.0347 8.07016 15.0286 8.35881C15.0224 8.50007 15.0531 8.56763 15.2128 8.56149C15.7963 8.55535 16.3797 8.55535 16.9632 8.56149C17.1106 8.56149 17.1475 8.51236 17.1475 8.37724C17.1413 7.79378 17.1413 7.21032 17.1475 6.62686C17.1475 6.47946 17.0922 6.44261 16.9571 6.44875C16.3736 6.45489 15.7901 6.45489 15.2067 6.44875C15.0593 6.44875 15.0224 6.50403 15.0286 6.63914C15.0347 6.92166 15.0286 7.20418 15.0286 7.4867Z" fill="white"/>
<path d="M4.28068 7.48668C4.28068 6.78653 4.28068 6.09252 4.28068 5.39237C4.28068 4.69221 4.69217 4.27458 5.39846 4.27458C6.80491 4.26844 8.20521 4.27458 9.61165 4.27458C10.3118 4.27458 10.7356 4.68607 10.7356 5.38622C10.7417 6.79881 10.7417 8.2114 10.7356 9.62398C10.7356 10.3057 10.3118 10.7295 9.62394 10.7356C8.21135 10.7418 6.79877 10.7418 5.38618 10.7356C4.68603 10.7356 4.27454 10.3119 4.27454 9.60556C4.28068 8.89926 4.28068 8.19297 4.28068 7.48668ZM7.53577 6.44873C7.23483 6.44873 6.94002 6.45488 6.63908 6.44873C6.52239 6.44873 6.45483 6.4733 6.45483 6.61456C6.46097 7.2103 6.46097 7.81219 6.45483 8.40793C6.45483 8.53076 6.50397 8.56761 6.62066 8.56147C7.2164 8.55533 7.81828 8.55533 8.41403 8.56147C8.53686 8.56147 8.57371 8.51848 8.57371 8.40179C8.56757 7.80605 8.56757 7.20416 8.57371 6.60842C8.57371 6.48558 8.53072 6.44873 8.41403 6.44873C8.11923 6.45488 7.82443 6.44873 7.53577 6.44873Z" fill="white"/>
<path d="M4.28076 16.0665C4.28076 15.3664 4.28076 14.6724 4.28076 13.9722C4.28076 13.2721 4.6984 12.8544 5.39855 12.8483C6.80499 12.8422 8.20529 12.8422 9.61174 12.8483C10.3242 12.8483 10.7418 13.2721 10.7418 13.9845C10.748 15.3787 10.748 16.779 10.7418 18.1731C10.7418 18.8856 10.3242 19.3032 9.61174 19.3032C8.21758 19.3032 6.81728 19.3032 5.42311 19.3032C4.69225 19.3032 4.2869 18.8917 4.2869 18.1547C4.28076 17.4607 4.28076 16.7667 4.28076 16.0665ZM7.53585 15.0225C7.22877 15.0225 6.92168 15.0286 6.6146 15.0225C6.49791 15.0225 6.44877 15.0593 6.45492 15.1821C6.46106 15.7779 6.46106 16.3798 6.45492 16.9755C6.45492 17.0922 6.49177 17.1352 6.6146 17.1352C7.21034 17.129 7.81223 17.129 8.40797 17.1352C8.52466 17.1352 8.56765 17.0983 8.56765 16.9755C8.56151 16.3798 8.56151 15.7779 8.56765 15.1821C8.56765 15.0409 8.50624 15.0225 8.3834 15.0225C8.10703 15.0286 7.81837 15.0225 7.53585 15.0225Z" fill="white"/>
<path d="M16.6254 19.3094C16.091 19.3094 15.5506 19.3155 15.0162 19.3094C13.9476 19.3033 13.7388 18.2285 14.0827 17.6327C14.2792 17.2949 14.5986 17.1475 14.9671 17.1414C16.0726 17.1291 17.172 17.123 18.2775 17.1414C18.9346 17.1537 19.3277 17.6143 19.3154 18.2715C19.3031 18.8918 18.8732 19.2971 18.2345 19.3094C18.2222 19.3094 18.2038 19.3094 18.1915 19.3094C17.6633 19.3094 17.1413 19.3094 16.6254 19.3094Z" fill="white"/>
<path d="M17.6819 15.0225C17.4976 15.0225 17.3134 15.0286 17.1291 15.0225C16.5088 15.004 16.085 14.5864 16.0789 13.9722C16.0666 13.3335 16.4535 12.8852 17.08 12.8545C17.4915 12.836 17.9091 12.8299 18.3206 12.8545C18.9471 12.8913 19.3278 13.3397 19.3156 13.9784C19.3033 14.5864 18.8795 15.004 18.2592 15.0225C18.0627 15.0286 17.8723 15.0225 17.6819 15.0225Z" fill="white"/>
<path d="M15.0285 14.4882C15.0285 14.6724 15.0347 14.8567 15.0285 15.0409C15.0101 15.6551 14.5986 16.0727 13.9967 16.085C13.3334 16.0973 12.8912 15.7165 12.8605 15.0839C12.8421 14.6786 12.8421 14.2671 12.8605 13.8617C12.8912 13.2414 13.3395 12.8361 13.966 12.8484C14.5802 12.8606 15.0039 13.2783 15.0224 13.8924C15.0347 14.089 15.0285 14.2916 15.0285 14.4882Z" fill="white"/>
<rect x="5.25635" y="5.25635" width="4.67239" height="4.08834" fill="#3E42C2"/>
<rect x="14.0171" y="5.25635" width="4.67239" height="4.08834" fill="#3E42C2"/>
<rect x="5.25635" y="14.0171" width="4.67239" height="4.08834" fill="#3E42C2"/>
</svg>
