<?xml version="1.0" encoding="UTF-8"?>
<!DOCTYPE svg PUBLIC "-//W3C//DTD SVG 1.1//EN" "http://www.w3.org/Graphics/SVG/1.1/DTD/svg11.dtd">
<svg xmlns="http://www.w3.org/2000/svg" version="1.1" width="320px" height="300px" style="shape-rendering:geometricPrecision; text-rendering:geometricPrecision; image-rendering:optimizeQuality; fill-rule:evenodd; clip-rule:evenodd" xmlns:xlink="http://www.w3.org/1999/xlink">
<g><path style="opacity:0.882" fill="#be0000" d="M 242.5,127.5 C 246.328,129.238 250.328,130.738 254.5,132C 257.024,133.883 258.358,136.383 258.5,139.5C 255.603,139.319 252.77,139.652 250,140.5C 248.779,139.728 247.779,138.728 247,137.5C 246.505,139.473 246.338,141.473 246.5,143.5C 257.671,144.846 261.504,150.846 258,161.5C 255.081,165.198 251.247,166.864 246.5,166.5C 246.5,168.167 246.5,169.833 246.5,171.5C 245.167,171.5 243.833,171.5 242.5,171.5C 242.5,169.833 242.5,168.167 242.5,166.5C 235.106,166.32 230.773,162.653 229.5,155.5C 232.817,154.779 236.151,154.612 239.5,155C 240.46,156.419 241.293,157.919 242,159.5C 242.497,156.854 242.664,154.187 242.5,151.5C 231.683,149.532 228.516,143.532 233,133.5C 235.424,131.348 238.257,130.015 241.5,129.5C 242.298,129.043 242.631,128.376 242.5,127.5 Z M 241.5,137.5 C 242.598,138.601 242.765,139.934 242,141.5C 240.232,140.318 240.065,138.985 241.5,137.5 Z M 246.5,153.5 C 248.484,153.484 249.484,154.484 249.5,156.5C 249.547,158 248.881,159 247.5,159.5C 246.534,157.604 246.201,155.604 246.5,153.5 Z"/></g>
<g><path style="opacity:0.896" fill="#be0000" d="M 165.5,129.5 C 175.499,128.161 182.499,131.995 186.5,141C 183.185,141.941 179.852,142.774 176.5,143.5C 173.866,138.84 170.199,137.674 165.5,140C 162.66,145.134 162.327,150.301 164.5,155.5C 170.887,159.374 175.054,157.707 177,150.5C 180.005,152.002 183.171,153.002 186.5,153.5C 183.238,165.231 175.572,169.398 163.5,166C 155.29,162.939 151.29,156.939 151.5,148C 151.755,138.263 156.422,132.096 165.5,129.5 Z"/></g>
<g><path style="opacity:0.907" fill="#be0000" d="M 20.5,130.5 C 29.1731,130.334 37.8397,130.5 46.5,131C 52.5249,134.277 54.3582,139.111 52,145.5C 50.9596,148.04 49.1263,149.707 46.5,150.5C 50.2546,155.003 53.2546,160.003 55.5,165.5C 51.1667,166.833 46.8333,166.833 42.5,165.5C 40.1324,161.626 37.9657,157.626 36,153.5C 34.9887,152.663 33.8221,152.33 32.5,152.5C 32.5,157.167 32.5,161.833 32.5,166.5C 28.5,166.5 24.5,166.5 20.5,166.5C 20.5,154.5 20.5,142.5 20.5,130.5 Z M 32.5,138.5 C 35.1873,138.336 37.854,138.503 40.5,139C 41.8333,140.667 41.8333,142.333 40.5,144C 37.854,144.497 35.1873,144.664 32.5,144.5C 32.5,142.5 32.5,140.5 32.5,138.5 Z"/></g>
<g><path style="opacity:0.915" fill="#be0000" d="M 59.5,130.5 C 69.5,130.5 79.5,130.5 89.5,130.5C 89.5,133.5 89.5,136.5 89.5,139.5C 83.5,139.5 77.5,139.5 71.5,139.5C 71.5,140.5 71.5,141.5 71.5,142.5C 77.1667,142.5 82.8333,142.5 88.5,142.5C 88.5,145.5 88.5,148.5 88.5,151.5C 82.8333,151.5 77.1667,151.5 71.5,151.5C 71.5,153.5 71.5,155.5 71.5,157.5C 77.8333,157.5 84.1667,157.5 90.5,157.5C 90.5,160.5 90.5,163.5 90.5,166.5C 80.1667,166.5 69.8333,166.5 59.5,166.5C 59.5,154.5 59.5,142.5 59.5,130.5 Z"/></g>
<g><path style="opacity:0.914" fill="#be0000" d="M 96.5,130.5 C 104.174,130.334 111.841,130.5 119.5,131C 127.079,134.317 130.413,140.151 129.5,148.5C 129.88,157.94 125.547,163.773 116.5,166C 109.842,166.5 103.175,166.666 96.5,166.5C 96.5,154.5 96.5,142.5 96.5,130.5 Z M 108.5,139.5 C 115.511,138.676 118.845,141.843 118.5,149C 118.377,155.624 115.044,158.457 108.5,157.5C 108.5,151.5 108.5,145.5 108.5,139.5 Z"/></g>
<g><path style="opacity:0.912" fill="#be0000" d="M 201.5,130.5 C 205.884,130.174 210.217,130.508 214.5,131.5C 219.132,143.089 223.465,154.756 227.5,166.5C 223.445,166.824 219.445,166.491 215.5,165.5C 214.691,163.929 214.357,162.262 214.5,160.5C 210.486,160.334 206.486,160.501 202.5,161C 201.139,162.584 200.472,164.418 200.5,166.5C 196.445,166.824 192.445,166.491 188.5,165.5C 193.125,153.921 197.458,142.255 201.5,130.5 Z M 207.5,141.5 C 209.339,144.529 210.672,147.862 211.5,151.5C 209.235,152.647 206.902,152.814 204.5,152C 206.042,148.666 207.042,145.166 207.5,141.5 Z"/></g>
<g><path style="opacity:0.923" fill="#be0000" d="M 265.5,130.5 C 269.5,130.5 273.5,130.5 277.5,130.5C 277.5,134.5 277.5,138.5 277.5,142.5C 281.167,142.5 284.833,142.5 288.5,142.5C 288.5,138.5 288.5,134.5 288.5,130.5C 292.167,130.5 295.833,130.5 299.5,130.5C 299.5,142.5 299.5,154.5 299.5,166.5C 295.833,166.5 292.167,166.5 288.5,166.5C 288.5,161.833 288.5,157.167 288.5,152.5C 284.833,152.5 281.167,152.5 277.5,152.5C 277.5,157.167 277.5,161.833 277.5,166.5C 273.5,166.5 269.5,166.5 265.5,166.5C 265.5,154.5 265.5,142.5 265.5,130.5 Z"/></g>
</svg>
