<?xml version="1.0" encoding="UTF-8"?>
<!DOCTYPE svg PUBLIC "-//W3C//DTD SVG 1.1//EN" "http://www.w3.org/Graphics/SVG/1.1/DTD/svg11.dtd">
<svg xmlns="http://www.w3.org/2000/svg" version="1.1" width="320px" height="300px" style="shape-rendering:geometricPrecision; text-rendering:geometricPrecision; image-rendering:optimizeQuality; fill-rule:evenodd; clip-rule:evenodd" xmlns:xlink="http://www.w3.org/1999/xlink">
<g><path style="opacity:1" fill="#be0000" d="M -0.5,-0.5 C 106.167,-0.5 212.833,-0.5 319.5,-0.5C 319.5,99.5 319.5,199.5 319.5,299.5C 212.833,299.5 106.167,299.5 -0.5,299.5C -0.5,199.5 -0.5,99.5 -0.5,-0.5 Z"/></g>
<g><path style="opacity:1" fill="#fcf3f3" d="M 242.5,127.5 C 243.833,127.5 245.167,127.5 246.5,127.5C 246.5,128.5 246.5,129.5 246.5,130.5C 252.052,130.273 256.052,132.606 258.5,137.5C 258.291,138.086 257.957,138.586 257.5,139C 253.901,139.957 250.568,139.457 247.5,137.5C 246.231,139.695 246.231,141.861 247.5,144C 259.177,146.351 262.177,152.684 256.5,163C 253.664,165.584 250.331,166.751 246.5,166.5C 246.5,168.167 246.5,169.833 246.5,171.5C 245.167,171.5 243.833,171.5 242.5,171.5C 242.5,169.833 242.5,168.167 242.5,166.5C 235.868,166.206 231.535,162.872 229.5,156.5C 232.497,155.752 235.497,155.085 238.5,154.5C 239.934,155.936 241.1,157.602 242,159.5C 243.794,153.44 241.628,149.94 235.5,149C 231.633,145.34 230.466,140.84 232,135.5C 235.584,132.737 239.084,130.07 242.5,127.5 Z"/></g>
<g><path style="opacity:1" fill="#fcf5f5" d="M 166.5,129.5 C 173.491,128.996 179.325,131.329 184,136.5C 185.009,138.025 185.509,139.692 185.5,141.5C 183.354,141.878 181.187,142.212 179,142.5C 176.395,142.093 174.229,140.927 172.5,139C 166.005,137.989 162.672,140.823 162.5,147.5C 161.756,155.928 165.423,159.095 173.5,157C 174.889,155.043 176.389,153.21 178,151.5C 180.724,152.687 183.557,153.353 186.5,153.5C 183.038,164.905 175.371,169.071 163.5,166C 156.99,163.833 153.157,159.333 152,152.5C 149.795,140.235 154.628,132.568 166.5,129.5 Z"/></g>
<g><path style="opacity:1" fill="#dd9999" d="M 21.5,130.5 C 21.5,142.167 21.5,153.833 21.5,165.5C 24.8333,165.5 28.1667,165.5 31.5,165.5C 31.5,160.833 31.5,156.167 31.5,151.5C 32.791,151.263 33.791,151.596 34.5,152.5C 32.5636,156.715 31.8969,161.381 32.5,166.5C 28.5,166.5 24.5,166.5 20.5,166.5C 20.1716,154.322 20.5049,142.322 21.5,130.5 Z"/></g>
<g><path style="opacity:1" fill="#fdfafa" d="M 21.5,130.5 C 28.8409,130.334 36.1742,130.5 43.5,131C 51.5542,132.593 54.3875,137.426 52,145.5C 50.1266,147.709 47.96,149.542 45.5,151C 50.1644,154.8 53.4977,159.633 55.5,165.5C 51.5411,166.66 47.5411,166.827 43.5,166C 40.8487,161.176 37.8487,156.676 34.5,152.5C 33.791,151.596 32.791,151.263 31.5,151.5C 31.5,156.167 31.5,160.833 31.5,165.5C 28.1667,165.5 24.8333,165.5 21.5,165.5C 21.5,153.833 21.5,142.167 21.5,130.5 Z"/></g>
<g><path style="opacity:1" fill="#fcf9f9" d="M 60.5,130.5 C 70.1667,130.5 79.8333,130.5 89.5,130.5C 89.5,133.5 89.5,136.5 89.5,139.5C 83.5,139.5 77.5,139.5 71.5,139.5C 71.5,140.5 71.5,141.5 71.5,142.5C 77.1667,142.5 82.8333,142.5 88.5,142.5C 88.5,145.5 88.5,148.5 88.5,151.5C 82.8333,151.5 77.1667,151.5 71.5,151.5C 71.5,153.5 71.5,155.5 71.5,157.5C 77.5,157.5 83.5,157.5 89.5,157.5C 89.5,160.167 89.5,162.833 89.5,165.5C 79.8333,165.5 70.1667,165.5 60.5,165.5C 60.5,153.833 60.5,142.167 60.5,130.5 Z"/></g>
<g><path style="opacity:1" fill="#df9d9d" d="M 97.5,130.5 C 97.5,142.167 97.5,153.833 97.5,165.5C 103.5,165.5 109.5,165.5 115.5,165.5C 109.355,166.49 103.022,166.823 96.5,166.5C 96.1716,154.322 96.5049,142.322 97.5,130.5 Z"/></g>
<g><path style="opacity:1" fill="#fdfafa" d="M 97.5,130.5 C 105.228,130.189 112.895,130.689 120.5,132C 125.626,134.066 128.459,137.9 129,143.5C 131.032,151.734 128.866,158.567 122.5,164C 120.323,165.202 117.989,165.702 115.5,165.5C 109.5,165.5 103.5,165.5 97.5,165.5C 97.5,153.833 97.5,142.167 97.5,130.5 Z"/></g>
<g><path style="opacity:1" fill="#fbf4f4" d="M 201.5,130.5 C 205.884,130.174 210.217,130.508 214.5,131.5C 218.833,142.833 223.167,154.167 227.5,165.5C 223.555,166.491 219.555,166.824 215.5,166.5C 215.643,164.738 215.309,163.071 214.5,161.5C 210.217,160.508 205.884,160.174 201.5,160.5C 201.167,162.5 200.833,164.5 200.5,166.5C 196.833,166.5 193.167,166.5 189.5,166.5C 192.951,154.277 196.951,142.277 201.5,130.5 Z"/></g>
<g><path style="opacity:1" fill="#e3abab" d="M 266.5,130.5 C 266.5,142.167 266.5,153.833 266.5,165.5C 269.833,165.5 273.167,165.5 276.5,165.5C 276.5,160.833 276.5,156.167 276.5,151.5C 280.833,151.5 285.167,151.5 289.5,151.5C 289.5,156.167 289.5,160.833 289.5,165.5C 292.833,165.5 296.167,165.5 299.5,165.5C 296.038,166.482 292.371,166.815 288.5,166.5C 288.5,161.833 288.5,157.167 288.5,152.5C 284.833,152.5 281.167,152.5 277.5,152.5C 277.5,157.167 277.5,161.833 277.5,166.5C 273.5,166.5 269.5,166.5 265.5,166.5C 265.172,154.322 265.505,142.322 266.5,130.5 Z"/></g>
<g><path style="opacity:1" fill="#fefefe" d="M 266.5,130.5 C 269.833,130.5 273.167,130.5 276.5,130.5C 276.5,134.833 276.5,139.167 276.5,143.5C 280.833,143.5 285.167,143.5 289.5,143.5C 289.5,139.167 289.5,134.833 289.5,130.5C 292.833,130.5 296.167,130.5 299.5,130.5C 299.5,142.167 299.5,153.833 299.5,165.5C 296.167,165.5 292.833,165.5 289.5,165.5C 289.5,160.833 289.5,156.167 289.5,151.5C 285.167,151.5 280.833,151.5 276.5,151.5C 276.5,156.167 276.5,160.833 276.5,165.5C 273.167,165.5 269.833,165.5 266.5,165.5C 266.5,153.833 266.5,142.167 266.5,130.5 Z"/></g>
<g><path style="opacity:1" fill="#d28a8a" d="M 39.5,138.5 C 37.1667,138.5 34.8333,138.5 32.5,138.5C 32.5,140.833 32.5,143.167 32.5,145.5C 31.5269,143.052 31.1936,140.385 31.5,137.5C 34.3854,137.194 37.0521,137.527 39.5,138.5 Z"/></g>
<g><path style="opacity:1" fill="#be0b06" d="M 39.5,138.5 C 41.3769,139.659 41.8769,141.326 41,143.5C 38.4355,145.179 35.6021,145.846 32.5,145.5C 32.5,143.167 32.5,140.833 32.5,138.5C 34.8333,138.5 37.1667,138.5 39.5,138.5 Z"/></g>
<g><path style="opacity:1" fill="#be140e" d="M 240.5,137.5 C 241.649,137.791 242.316,138.624 242.5,140C 242.333,140.833 242.167,141.667 242,142.5C 240.731,141.095 240.231,139.429 240.5,137.5 Z"/></g>
<g><path style="opacity:1" fill="#c1180e" d="M 107.5,139.5 C 115.09,137.76 118.757,140.76 118.5,148.5C 118.63,155.952 114.964,158.952 107.5,157.5C 107.5,151.5 107.5,145.5 107.5,139.5 Z"/></g>
<g><path style="opacity:1" fill="#e1a7a7" d="M 276.5,130.5 C 277.483,134.298 277.817,138.298 277.5,142.5C 281.167,142.5 284.833,142.5 288.5,142.5C 288.183,138.298 288.517,134.298 289.5,130.5C 289.5,134.833 289.5,139.167 289.5,143.5C 285.167,143.5 280.833,143.5 276.5,143.5C 276.5,139.167 276.5,134.833 276.5,130.5 Z"/></g>
<g><path style="opacity:1" fill="#c0180f" d="M 207.5,140.5 C 209.276,143.889 210.609,147.556 211.5,151.5C 209.257,152.474 206.924,152.808 204.5,152.5C 205.809,148.596 206.809,144.596 207.5,140.5 Z"/></g>
<g><path style="opacity:1" fill="#c42a1c" d="M 246.5,152.5 C 251.213,154.331 251.546,156.664 247.5,159.5C 246.526,157.257 246.192,154.924 246.5,152.5 Z"/></g>
<g><path style="opacity:1" fill="#da9897" d="M 60.5,130.5 C 60.5,142.167 60.5,153.833 60.5,165.5C 70.1667,165.5 79.8333,165.5 89.5,165.5C 89.5,162.833 89.5,160.167 89.5,157.5C 90.4767,160.287 90.81,163.287 90.5,166.5C 80.1667,166.5 69.8333,166.5 59.5,166.5C 59.1716,154.322 59.5049,142.322 60.5,130.5 Z"/></g>
</svg>
