<svg width="58" height="51" viewBox="0 0 58 51" fill="none" xmlns="http://www.w3.org/2000/svg">
<rect x="13.2106" y="8.80103" width="43.7895" height="28.6316" rx="2" fill="#FFDFB3"/>
<path d="M22.7492 36.9776H3.48C2.11033 36.9776 1 35.8672 1 34.4976V7.49159C1 6.12193 2.11033 5.0116 3.48 5.0116H54.1645C55.5342 5.0116 56.6445 6.12193 56.6445 7.4916V34.4976C56.6445 35.8672 55.5342 36.9776 54.1645 36.9776H33.6238" stroke="#2E3192" stroke-width="1.5" stroke-linecap="round"/>
<circle cx="29.5458" cy="21.3235" r="9.51526" fill="#FFA426"/>
<path d="M25.8765 8.92211C26.0674 8.91979 26.2557 8.88657 26.4307 8.82439C26.633 8.75477 26.825 8.66659 27.0028 8.56154C27.3952 8.32776 27.7333 8.03889 28.0013 7.70847C28.1295 7.55601 28.2357 7.39208 28.318 7.21989C28.3916 7.0664 28.4308 6.90341 28.4337 6.73864C28.4336 6.50348 28.3691 6.27129 28.2448 6.05903L28.1171 6.08883C28.0999 6.18775 28.0673 6.28446 28.0199 6.37661C27.9705 6.47346 27.9004 6.56245 27.813 6.63946C27.7173 6.71922 27.6037 6.78324 27.4784 6.82805C27.3268 6.88037 27.1632 6.90569 26.9986 6.90232C26.8135 6.9041 26.6299 6.87535 26.4589 6.81779C26.3039 6.76683 26.1631 6.69094 26.0449 6.59465C25.9267 6.49837 25.8335 6.38366 25.771 6.25739C25.71 6.12765 25.6791 5.98982 25.6798 5.85089C25.6831 5.72481 25.7077 5.59969 25.753 5.47908C25.8058 5.33435 25.8996 5.20178 26.0271 5.09213C26.1805 4.95875 26.3675 4.85393 26.5752 4.78481C26.8664 4.69405 27.177 4.65185 27.4886 4.66071C27.8781 4.65262 28.2649 4.71538 28.6208 4.84442C28.9213 4.95336 29.1877 5.11601 29.4005 5.3203C29.6086 5.5204 29.7639 5.75323 29.8569 6.00431C29.9587 6.26395 30.0101 6.53496 30.0092 6.80753C30.0119 7.13171 29.9459 7.45384 29.8143 7.75978C29.6865 8.05078 29.5104 8.32614 29.2907 8.57815C29.0772 8.82475 28.8279 9.04949 28.5483 9.2475C28.2838 9.4391 27.9963 9.60851 27.6901 9.75318C27.4131 9.88514 27.1191 9.99165 26.8133 10.0708C26.5576 10.1391 26.2907 10.1758 26.0217 10.1797C25.8517 10.1773 25.6826 10.1609 25.5167 10.1309C25.3089 10.096 25.1074 10.0398 24.917 9.96376C24.6972 9.88103 24.4924 9.77418 24.3082 9.64618C24.0972 9.50246 23.9163 9.33165 23.7727 9.1405C23.6023 8.91252 23.4732 8.66568 23.3895 8.40763C23.286 8.08059 23.2368 7.74373 23.2431 7.40604V4.25031H21.5543V3.13488H23.2377V1.49325L23.2012 1.47859C23.1619 1.48917 23.1219 1.4975 23.0812 1.50351C23.0412 1.50677 23.0027 1.50839 22.9655 1.50839C22.8609 1.50882 22.7573 1.49221 22.6608 1.45954C22.4687 1.38908 22.3149 1.26378 22.2284 1.10727C22.1836 1.02446 22.1608 0.9349 22.1612 0.844414C22.1632 0.747177 22.1881 0.651152 22.2344 0.561526C22.2866 0.459985 22.3626 0.367711 22.4581 0.289875C22.566 0.202757 22.6932 0.133121 22.8329 0.0846718C22.9999 0.0258255 23.1806 -0.00284417 23.3625 0.000636002C23.6103 -0.00665073 23.8548 0.0488243 24.0624 0.159425C24.2506 0.263303 24.4051 0.402779 24.5128 0.565923C24.6306 0.744232 24.7128 0.936705 24.7562 1.1361C24.8049 1.34697 24.8294 1.56108 24.8294 1.77565V3.13488H30.2347V4.25031H24.8294V7.24579C24.8262 7.47313 24.8444 7.70034 24.884 7.9254C24.916 8.08445 24.967 8.24057 25.0363 8.39151C25.0888 8.49737 25.1606 8.59619 25.2492 8.68466C25.3195 8.74659 25.4003 8.80006 25.4891 8.84345C25.5565 8.87679 25.6306 8.90027 25.708 8.91282C25.7639 8.91848 25.8202 8.92158 25.8765 8.92211Z" fill="#EFFDD9"/>
<path d="M28.1863 36.2764V49.8696M28.1863 49.8696L33.6236 43.9792M28.1863 49.8696L22.749 43.9792" stroke="#2E3192" stroke-width="1.5" stroke-linecap="round" stroke-linejoin="round"/>
</svg>
