<svg height="255.45" width="245.29" xmlns="http://www.w3.org/2000/svg"><path d="m164.47 43c6.76 5.51 14.79 8.94 22.14 13.49 4.46 2.76 9.39 4.73 13.5 8.07-.15.48-.44.86-.84 1.16-10.43 5.63-20.52 11.86-30.91 17.58-1.54.85-2.94 2.27-4.98 1.46-1.46-7.99-.52-16.05-.56-24.07-.03-5.88-.99-11.84.65-17.68.33-.01.67-.01 1-.01z" fill="#f9a01d"/><path d="m167.79 154.32c-.55-2.05-3.16-.77-4.84-.93-2.13-.21-4.3-.05-6.45-.05-13.42-.01-26.84-.05-40.26-.01-3.92.01-6.89-1.69-8.25-5.21-1.46-3.76.52-6.78 3.4-9.1 1.67-1.34 3.5-2.55 5.41-3.49 8.76-4.28 17.85-7.26 27.75-5.35 4.9.95 6.17 3.84 3.47 7.78-1.22 1.78-.9 2.44.52 3.48 1.47 1.07 2.88 2.23 4.24 3.44 2.38 2.11 4.09 1.2 5.76-.99 3.29-4.32 2.73-10.25-1.67-14.32-4.68-4.33-10.33-6.62-16.68-6.68-12.51-.11-24.3 2.94-35.04 9.34-9.41 5.61-10.77 11.15-5.33 21.11h-4.47c-15.08 0-30.16-.01-45.23 0-4.88 0-8.01 2.15-7.1 5.63.91 3.54 4.42.91 6.69 1.52 1.24.33 2.63.06 3.96.06 8.45 0 16.9-.01 25.35.02 1.26 0 3.15-.46 3.39 1.15.28 1.93-1.73 2.04-3.15 2.39-1.29.31-2.58.61-3.85.97-9.24 2.64-17.36 7.27-24.42 13.77-2.82 2.6-3.35 5.45-.35 8.08 10.92 9.6 23.1 17.12 36.93 21.83 3.17 1.08 4.39.41 4.33-3.25-.19-12.25-.07-24.5-.07-36.76 0-8.52 0-8.4 8.57-8.26 2.93.05 4.23.88 4.17 3.96-.22 11.91-.28 23.83-.47 35.74-.02 1.51-.16 3.02.52 4.38 1.5 3.02 4.61 4.33 7.36 4.05 2.11-.21 1.04-3.37 1.05-5.17.1-12.75.19-25.51-.03-38.25-.07-3.78 1.12-4.81 4.8-4.73 10.6.23 21.2.06 31.81.11 1.38.01 3.56-.7 3.86 1.15.38 2.33-2.03 2.06-3.54 2.42-10.54 2.49-19.77 7.37-27.77 14.71-2.9 2.66-3.3 5.04-.33 7.9 10.44 10.06 22.73 17.02 36.29 21.88 3.52 1.26 5.11.42 5.05-3.72-.18-13.08-.08-26.17-.05-39.25 0-2.17-.6-4.36 2.4-5.72 1.79-.82 2.76-3.76 2.27-5.63zm-86.43 42.75c-2.95 1.25-5.95-2.54-8.79-4.39-2.21-1.43-4.21-3.21-6.2-4.95-3.88-3.4-3.81-4.26.58-7.29 3.74-2.57 8.07-3.75 12.33-5.1 2.42-.77 2.85.43 2.79 2.47-.08 2.98-.02 5.96-.02 8.94 0 .49.04.99 0 1.48-.28 3.08 1.35 7.98-.69 8.84zm71.02-10.73c0 3.14-.02 6.28 0 9.42.01 1.9-.79 2.36-2.45 1.5-5.76-3.01-10.76-7.07-15.49-11.47-1.56-1.44-.28-2.3.72-3.16 4.23-3.61 9.22-5.74 14.49-7.3 1.92-.57 2.79.04 2.74 2.09-.06 2.97-.01 5.95-.01 8.92z" fill="#db2127"/><path d="m163.38 84.75c10.01-5.78 20-11.59 30.03-17.33 1.84-1.05 3.58-2.43 5.85-2.51 1.11 1.22 1.41 2.69 1.39 4.27-.04 8.88.03 17.77-.02 26.64-.01 1.88-.22 3.79 1.06 5.45 1.04 1.35.8 2.65-.39 3.8-.32.32-.69.58-1.09.8-.42.16-.87.22-1.32.18-10.58-6.12-21.17-12.22-31.72-18.39-1.37-.79-3.19-1.09-3.79-2.91z" fill="#eb6824"/><path d="m198.88 106.07.47.03c1.76 1.93 1.23 4.34 1.27 6.59.2 11.66-.3 23.33.29 34.99-1.11 1.13-2.11.36-3.1-.2-11.36-6.41-22.71-12.83-34.78-19.66 12.32-7.48 24.09-14.62 35.85-21.75z" fill="#da1c61"/><path d="m70.45 213.27c-.03 4.52-3.05 9.11-6.17 8.92-3.74-.22-5.52-2.75-5.69-6.25-.2-4.04 3.68-9.23 6.68-9.31 2.88-.07 5.2 2.9 5.18 6.64z" fill="#db2628"/><path d="m200.92 147.67c-2.26-.98-1.59-3.01-1.59-4.7-.03-12.29.01-24.58.03-36.87.3-.28.6-.57.91-.86.21.23.42.47.64.7.3.56.49 1.15.57 1.78-.57 12.49.11 25.01-.37 37.5.32-9.02.09-18.04.16-27.06.01-1.81-.01-3.63.02-5.44.03-1.71.16-3.35 2.23-3.9 1.23-.12 2.37 0 2.94 1.33-.13 1.25-1.21 2.16-.84 3.7 1.93 7.92.6 16 .92 24.01.09 2.22-1.29 4.04-1.58 6.15-.13.52-.35 1-.67 1.43-1.13.74-2.25 1.49-3.37 2.23z" fill="#a42524"/><path d="m218.19 137.51c-1.41 1.41-3.11 2.3-5.01 2.84-1.07-7.66-.01-15.34-.05-23 0-.81.54-1.53 1.22-2.06 2.96-.71 4.98.56 6.4 3.07 1.18 4.46.67 9.02.73 13.55.03 2.57-1.37 4.22-3.29 5.6z" fill="#cd242b"/><path d="m204.28 145.43c-.01-.36-.03-.72-.04-1.08 1.84-2.71 2.05-5.73 2.03-8.92-.07-7.59-.16-15.19.01-22.79.19-.56.52-1.03.97-1.42.54-.24 1.1-.32 1.69-.26 1.48.42 2.58 1.19 2.76 2.86-.14 3.02-.14 6.05-.14 9.07 0 2.88-.02 5.75.04 8.63-.21 3.8 1.19 7.94-2.33 11.04-1.42 1.38-3.01 2.46-4.99 2.87z" fill="#b42227"/><path d="m209.27 142.56c1.61-3.6.67-7.42.93-11.13 1.57-2.98 1.57-5.96 0-8.94.44-2.99-1.02-6.19 1.03-8.99 1.54-.66 2.83-.09 4.04.83.24.47.18.89-.25 1.23-1.6 5.78-.47 11.69-.84 17.54-.16 2.45.42 4.99-1 7.26-1.02 1.22-2.34 1.94-3.91 2.2z" fill="#c0242a"/><path d="m218.19 137.51c3.53-5.42 1.49-11.42 1.77-17.18.03-.61.08-1.22.11-1.82.37-.34.8-.48 1.3-.4 1.45.42 2.61 1.28 3.61 2.39 2.8 3.33 1.05 7.11 1.08 10.73-.35 1.64-1.96 2.2-2.87 3.35-1.33 1.55-3.15 2.27-5 2.93z" fill="#db2730"/><path d="m223.19 134.58c.64-1.05 1.28-2.1 1.92-3.15 2.76-2.24 5.85-3.94 9.07-5.41.5-.01.93.16 1.29.49.16.31.33.63.49.94-4.08 2.7-8.24 5.24-12.77 7.13z" fill="#da2a3a"/><path d="m235.86 84.86c-.14.39-.29.78-.43 1.16-1.14 2.6-3.31 2.6-5.63 2.21-7.86-.3-15.71-.04-23.56-.14-1.79-.02-3.61.15-5.32-.6-.51-.26-.86-.67-1.03-1.22 1-1.57 2.36-1.07 3.75-.77-1.11-.67-2.66.22-3.67-.86-.24-1.35-.39-2.69.16-4.01 6.23-.84 12.48.01 18.71-.28 2.45-.11 4.96.3 7.31-.75 2.58 1.34 5.63 2.03 7.08 4.98-.95.94-2.16.54-3.27.65 1.13-.03 2.33.32 3.26-.67.88.09 1.76.2 2.64.3z" fill="#e13e26"/><path d="m226.15 79.59c.03.73.72 2.04-.42 2-8.49-.25-17.05 1.32-25.47-.84-.62-.84-.53-1.67.03-2.49 1.5-1.94 3.69-1.87 5.79-1.91 5.04-.1 10.08-.16 15.1.32 1.82.69 3.58 1.49 4.97 2.92z" fill="#df3727"/><path d="m221.17 76.67c-2.39 2.17-5.28.76-7.93 1.08-4.31.51-8.78-.93-12.99 1.02-.78-1.72-.66-3.46-.07-5.2 4.55-2.61 9.3-.48 13.96-.62 2.71.57 4.9 2.09 7.03 3.72z" fill="#df3127"/><path d="m214.15 72.95c-4.54 1.76-9.28.44-13.9.85-1.15-1.5.22-3.49-.97-4.98 0-1.3-.01-2.6-.01-3.91.31-.05.59-.17.84-.35 5.08 2.12 9.55 5.27 14.04 8.39z" fill="#dd2d28"/><path d="m231.16 87.79c1.42-.59 2.84-1.18 4.27-1.76.66 13.5.5 27 .05 40.5-.49.01-.98.02-1.47.03-4.93.81-6.83-3.51-9.89-5.86-1-.72-2-1.44-3-2.16 2.83-5.61 1.16-11.63 1.57-17.46.15-2.13-.05-4.27-.14-6.4-.13-1.39.37-2.52 1.43-3.41.55-.45 1.16-.82 1.78-1.17 1.59-.74 2.9-2.08 4.75-2.31z" fill="#7b215b"/><path d="m199.28 68.82c1.61 1.41.71 3.31.97 4.98 0 1.66 0 3.31.01 4.97v1.99 3.98c.36.22.48.44.37.66-.12.22-.24.34-.36.34v.97c.33.37.6.78.83 1.23.24.71.35 1.44.4 2.18.06.48.11.97.17 1.45.56 2.97 2.92 2.61 5.03 2.76 3.41.25 6.94-.69 10.23.92.98 1.16.19 2-.5 2.87-1.4 1.13-3.04 1.63-4.81 1.8-4.17-.47-8.88 1.97-12.36-2.26.01-9.62.01-19.23.02-28.84z" fill="#e45625"/><path d="m199.27 97.65c4.22 1.99 8.73.51 13.07 1.06.19.44.17.87-.08 1.28-1.46 1.47-3.28 2.41-5.05 3.42-2.31.81-4.2 2.89-6.96 2.4.08-.19.08-.37 0-.57-.08-1.23 2.74-2.34.05-3.73-1.56-.8-.9-2.51-1.03-3.86z" fill="#e25d25"/><path d="m204.34 109.48c-2.69.46-2.08 2.58-2.08 4.29-.04 8.92.02 17.85-.06 26.77-.01 1.66.77 3.64-1.9 5.46 0-13.49 0-26.39 0-39.3 2.24-.36 3.6.54 4.04 2.78z" fill="#961c1f"/><path d="m207.21 111.67c0 8.85-.06 17.69.04 26.54.03 2.65-.35 4.9-3 6.14-1.2-.93-.5-1.77-.21-2.95 2.15-8.84 1.61-17.77.31-26.68-.04-.28-.49-.47-.61-.76-1.02-2.36-.16-3.45 2.34-3.38.66.07 1.03.44 1.13 1.09z" fill="#a42022"/><path d="m207.21 111.67c-.38-.36-.75-.73-1.13-1.09-.23-.91-.99-1-1.74-1.1-1.35-.93-2.69-1.86-4.04-2.78.04-.3.02-.6-.04-.9 2.3-1.13 4.6-2.27 6.91-3.4 1.88 2.81 2.22 5.8 1.03 8.96-.34.11-.66.21-.99.31z" fill="#2f1c41"/><path d="m215.83 97.41c.49-.57.98-1.13 1.47-1.7 1.4-1.83 3.08-2.98 5.52-2.3 1.94 1.48 1.22 3.61 1.25 5.49.08 5.26-.02 10.52.05 15.78.03 2.2-.14 4.02-3.02 3.84-.35-.01-.69-.01-1.04-.02-1.68-.99-3.36-1.97-5.04-2.96-.05-.27-.11-.54-.17-.8-.1-5.79 1.31-11.51.98-17.33z" fill="#4e1c50"/><path d="m215.83 97.41c2.81 5.96 1.15 11.66-.97 17.34-1.21-.42-2.42-.83-3.62-1.25-.66-.65-1.32-1.31-1.98-1.96 2.01-.89 2.85-2.33 2.7-4.62-.16-2.43-.35-4.91.13-7.35.08-.29.17-.58.26-.87 1.15-.43 2.31-.86 3.48-1.29z" fill="#41194c"/><path d="m212.09 99.57c2.27 3.44.95 7.28.95 10.89 0 2.87-2.58.37-3.78 1.08-.35-.06-.71-.12-1.06-.18-1.23-2.88-.95-5.94-1.03-8.96 1.45-1.26 3.02-2.32 4.92-2.83z" fill="#361948"/><path d="m210.2 122.49c2.83 2.63 2.83 6.3 0 8.94 0-2.98 0-5.96 0-8.94z" fill="#be2b2b"/><path d="m224.11 120.69c3.3 1.95 6.6 3.91 9.89 5.86-2.55 2.38-5.2 4.58-8.9 4.88-.48-3.56 1.2-7.33-.99-10.74z" fill="#d82334"/><path d="m200.26 87.72c0-.34 0-.67 0-1.01 8.59 0 17.19-.03 25.78.04 1.74.01 3.69-.64 5.12 1.04 0 0-.02-.03-.02-.03-10.3 1.99-20.59 2.39-30.88-.04z" fill="#e2502c"/><path d="m200.26 85.73c0-.33 0-.67-.01-1h3.88c.01.27.03.53.04.8-1.3.07-2.61.14-3.91.2z" fill="#e34c2c"/><path d="m218.67 85.1c-1.51.81-2.51.81-3.61.22.94-.95 1.95-.58 3.61-.22z" fill="#e24b2b"/><path d="m233.22 84.55c-1.21 1.45-2.62 1.48-4.69.44 1.91-.17 3.3-.29 4.7-.42 0 0-.01-.02-.01-.02z" fill="#e45935"/><path d="m222.82 93.42c-1.84.77-3.68 1.53-5.52 2.3-4.09-.02-8.19-.31-12.25.02-4.06.34-5.32-1.34-4.79-5.04 1.93-1.73 4.32-1.36 6.6-1.38 4.45-.04 8.91-.12 13.35.05 1.81.07 4.14-.58 4.85 2.15-.75.63-1.49 1.26-2.24 1.9z" fill="#e45025"/><path d="m200.26 87.72c10.3.01 20.59.02 30.89.04-1.37 1.51-3.08 2.46-5 3.07-5.83-1.41-11.76-.26-17.63-.65-2.75-.18-5.56.53-8.26-.49 0-.66 0-1.31 0-1.97z" fill="#e04526"/><path d="m200.26 89.69c7.1 0 14.21-.02 21.31.04 1.58.01 3.36-.56 4.57 1.1-.36.23-.73.46-1.09.69-6.24-1.8-12.61-.39-18.91-.8-1.95-.13-3.92-.02-5.89-.01 0-.35.01-.68.01-1.02z" fill="#e2552d"/></svg>