<svg fill="none" height="48" viewBox="0 0 48 48" width="48" xmlns="http://www.w3.org/2000/svg"><clipPath id="a"><path d="m0 0h48v48h-48z"/></clipPath><g clip-path="url(#a)" fill="#3e42c2"><path d="m30.111 12.528h-26.34699c-.49668-.0087-.99002.0827-1.45061.2688-.46058.1861-.87898.463-1.23024.8143-.351266.3513-.628198.7697-.814288 1.2303-.1860893.4605-.27752615.9539-.26885793 1.4506v22.583c-.00866822.4967.08276863.99.26885793 1.4506.18609.4606.463022.879.814288 1.2302.35126.3513.76966.6282 1.23024.8143.46059.1861.95393.2775 1.45061.2689h35.12999c.4967.0086.99-.0828 1.4506-.2689s.879-.463 1.2303-.8143c.3512-.3512.6282-.7696.8143-1.2302.186-.4606.2775-.9539.2688-1.4506v-1.254h-10.163c-1.6443-.0294-3.2113-.7032-4.3638-1.8764-1.1524-1.1732-1.7982-2.7521-1.7982-4.3966 0-1.6446.6458-3.2234 1.7982-4.3966 1.1525-1.1733 2.7195-1.8471 4.3638-1.8764h10.162v-2.886c-.8113.2565-1.6581.3834-2.509.376-2.6595-.0079-5.2079-1.068-7.0885-2.9485-1.8806-1.8806-2.9406-4.429-2.9485-7.0885z"/><path d="m28.857 31.347c-.0125.4871.0721.9718.249 1.4259.1768.4541.4423.8684.7809 1.2187.3387.3504.7437.6298 1.1915.822s.9293.2933 1.4166.2974h10.162v-7.528h-10.162c-.4873.0041-.9688.1051-1.4166.2973s-.8528.4716-1.1915.822c-.3386.3504-.6041.7647-.7809 1.2187-.1769.4541-.2615.9388-.249 1.426zm4.893 0c.0099.1673-.0157.3348-.0753.4914-.0596.1567-.1517.2989-.2704.4174-.1186.1184-.2609.2103-.4177.2696-.1567.0594-.3243.0848-.4916.0746-.3327-.0006-.6516-.133-.8868-.3682-.2353-.2352-.3677-.5541-.3682-.8868.0092-.3266.1454-.6367.3797-.8645.2343-.2277.5481-.3551.8748-.3551s.6406.1274.8748.3551c.2343.2278.3705.5379.3797.8645zm6.399-26.34703c-1.4889 0-2.9443.44151-4.1823 1.2687-1.238.82718-2.2029 2.0029-2.7727 3.37846-.5697 1.37557-.7188 2.88917-.4283 4.34947.2904 1.4603 1.0074 2.8017 2.0602 3.8545s2.3942 1.7698 3.8545 2.0602c1.4603.2905 2.9739.1414 4.3495-.4284 1.3755-.5697 2.5512-1.5346 3.3784-2.7726s1.2687-2.6934 1.2687-4.1823c-.0058-1.9948-.8008-3.9062-2.2113-5.31672s-3.3219-2.20551-5.3167-2.21131zm3.388 7.15103c-.1133.1188-.2495.2134-.4004.2781-.1509.0646-.3134.0979-.4776.0979s-.3266-.0333-.4776-.0979c-.1509-.0647-.2871-.1593-.4004-.2781l-.376-.376v4.391c.0047.1677-.0242.3347-.0851.491s-.1526.2989-.2695.4192c-.117.1203-.2569.2159-.4115.2812-.1545.0653-.3206.099-.4884.099s-.3339-.0337-.4884-.099c-.1546-.0653-.2945-.1609-.4114-.2812-.117-.1203-.2087-.2629-.2696-.4192s-.0898-.3233-.0851-.491v-4.391l-.376.376c-.1153.1157-.2523.2076-.4031.2705-.1508.0628-.3125.0953-.4759.0956-.33.0007-.6467-.1298-.8805-.3626-.1157-.1153-.2077-.2523-.2705-.4031-.0628-.1509-.0953-.3126-.0956-.476-.0007-.3299.1298-.6466.3626-.8804l2.509-2.50903c.125-.125.251-.251.376-.251.3215-.12561.6785-.12561 1 0 .125.125.251.125.376.251l2.509 2.50903c.1188.1133.2135.2495.2781.4004s.098.3134.098.4776-.0334.3266-.098.4775c-.0646.151-.1593.2872-.2781.4005z"/></g></svg>