<svg fill="none" height="48" viewBox="0 0 48 48" width="48" xmlns="http://www.w3.org/2000/svg"><path d="m36.0267 2.39899.275.55 2.079 5.528c.0807.21515.2065.41052.369.573s.3579.2883.573.369l5.337 2.00001c1.1196.42 2.0438 1.2403 2.5937 2.3022.5498 1.0619.6864 2.29.3833 3.4468l-.15.471-2.483 5.49c-.0951.2091-.1443.4362-.1443.666 0 .2297.0492.4568.1443.666l2.358 5.19c.4946 1.0888.5678 2.3223.2056 3.462-.3622 1.1396-1.1342 2.1045-2.1666 2.708l-.55.275-5.528 2.079c-.2152.0806-.4106.2064-.5731.3689s-.2883.3579-.3689.5731l-2 5.337c-.42 1.1196-1.2403 2.0438-2.3022 2.5937-1.0619.5498-2.29.6864-3.4468.3833l-.471-.15-5.494-2.482c-.2091-.0951-.4362-.1443-.666-.1443s-.4569.0492-.666.1443l-5.19 2.358c-1.0886.4951-2.322.569-3.4619.2073s-2.1051-1.1332-2.7091-2.1653l-.276-.55-2.079-5.528c-.0807-.2152-.20652-.4105-.369-.573s-.35786-.2883-.573-.369l-5.337-2c-1.12076-.4203-2.04563-1.2416-2.595435-2.3048-.54981-1.0633-.6854225-2.2927-.380565-3.4502l.15-.471 2.483-5.491c.09497-.2092.14411-.4363.14411-.666s-.04914-.4568-.14411-.666l-2.358-5.19c-.494518-1.0894-.5673271-2.3235-.204335-3.4634.362991-1.14 1.135975-2.1048 2.169335-2.7076l.55-.276 5.528-2.07901c.21514-.0807.41052-.20652.573-.369s.2883-.35785.369-.573l2-5.337c.4202-1.11925 1.2404-2.04298 2.3021-2.592656 1.0616-.54967366 2.2894-.686254 3.4459-.383341l.471.15 5.491 2.482997c.2092.09498.4363.14411.666.14411s.4568-.04913.666-.14411l5.19-2.357997c1.0894-.4945181 2.3235-.567327 3.4634-.204335 1.14.362991 2.1047 1.135972 2.7076 2.169332zm-21.389 1.868-2 5.337c-.2422.64541-.6196 1.23151-1.1071 1.71891-.4874.4875-1.0735.8649-1.7189 1.1071l-5.337 2-.353.185c-.30945.2152-.53365.532-.6336.8955-.09994.3634-.0693.7503.0866 1.0935l2.355 5.195c.28564.6281.43344 1.31.43344 2s-.1478 1.3719-.43344 2l-2.38 5.24-.1.331c-.06658.371-.00098.7535.18539 1.0812.18637.3276.4817.5794.83461.7118l5.337 2c.6454.2422 1.2314.6197 1.7189 1.1071.4874.4875.8649 1.0735 1.1071 1.7189l2 5.337.185.353c.2152.3094.5321.5336.8955.6336.3634.0999.7503.0693 1.0935-.0866l5.19-2.358c.6281-.2856 1.31-.4333 2-.4333s1.3719.1477 2 .4333l5.24 2.38.331.1c.3709.0668.7534.0015 1.0811-.1847.3276-.1862.5795-.4815.7119-.8343l2-5.337c.2423-.6453.6198-1.2314 1.1072-1.7188s1.0735-.8649 1.7188-1.1072l5.337-2 .353-.185c.3094-.2152.5337-.5321.6336-.8955s.0693-.7503-.0866-1.0935l-2.353-5.193c-.2856-.6281-.4333-1.31-.4333-2s.1477-1.3719.4333-2l2.38-5.24.1-.331c.0666-.3709.0012-.7533-.185-1.0809s-.4813-.5796-.834-.7121l-5.337-2c-.6454-.2422-1.2314-.6197-1.7189-1.1071-.4874-.4875-.8649-1.0735-1.1071-1.71891l-2-5.337-.185-.353c-.2152-.30945-.5321-.53365-.8955-.63359-.3634-.09995-.7503-.06931-1.0935.08659l-5.191 2.353c-.6281.28565-1.31.43344-2 .43344s-1.3719-.14779-2-.43344l-5.19-2.358-.1-.042c-.1981-.07473-.4091-.10964-.6207-.10273-.2117.00692-.4199.05552-.6127.14302-.1929.0875-.3666.21219-.5111.36692-.1446.15473-.2573.33647-.3315.53479zm5.678 24.38401 11.488-13.128c.2631-.299.6276-.4899 1.0231-.536.3956-.046.7942.0561 1.1189.2866s.5525.5732.6395.9618.027.7956-.1685 1.1426l-.189.266-12.624 14.424c-.2546.2911-.6055.4809-.9885.5347s-.7725-.032-1.0975-.2417l-.265-.215-5.409-5.409c-.2813-.2823-.4479-.6588-.4677-1.0569-.0199-.398.1085-.7892.3603-1.0981.2518-.3088.6091-.5134 1.003-.5742.3938-.0608.7962.0266 1.1294.2452l.253.206 4.192 4.192 11.49-13.128z" fill="#fff"/></svg>