<svg width="64" height="64" viewBox="0 0 64 64" fill="none" xmlns="http://www.w3.org/2000/svg">
<g clip-path="url(#clip0_989_92038)">
<path d="M27.7333 41.7259H22.5488L25.7916 23.3334H30.9757L27.7333 41.7259Z" fill="#00579F"/>
<path d="M46.5273 23.783C45.5047 23.4109 43.8827 23 41.8772 23C36.7574 23 33.1521 25.5044 33.13 29.0849C33.0875 31.7266 35.7113 33.1938 37.6737 34.0747C39.6795 34.9747 40.3613 35.5622 40.3613 36.3645C40.3409 37.5967 38.7405 38.1646 37.2479 38.1646C35.178 38.1646 34.0689 37.8718 32.3835 37.1863L31.7008 36.8924L30.9753 41.0211C32.1913 41.5293 34.4315 41.9802 36.7574 42C42.1973 42 45.7388 39.5344 45.7808 35.7188C45.8015 33.625 44.416 32.0207 41.429 30.7097C39.6157 29.8682 38.5052 29.3007 38.5052 28.4397C38.5265 27.6569 39.4445 26.8551 41.4914 26.8551C43.1768 26.8159 44.4152 27.1875 45.3533 27.5594L45.8222 27.7547L46.5273 23.783Z" fill="#00579F"/>
<path d="M53.4179 35.2101C53.8449 34.1535 55.4878 30.064 55.4878 30.064C55.4662 30.1033 55.9139 28.9879 56.1699 28.3031L56.5322 29.8879C56.5322 29.8879 57.514 34.2905 57.7272 35.2101C56.9169 35.2101 54.4419 35.2101 53.4179 35.2101ZM59.8175 23.3334H55.8073C54.5707 23.3334 53.6311 23.6657 53.0976 24.8594L45.3967 41.7256H50.8366C50.8366 41.7256 51.7322 39.4556 51.9247 38.9667C52.5215 38.9667 57.8134 38.9667 58.5811 38.9667C58.7299 39.6124 59.1997 41.7256 59.1997 41.7256H64L59.8175 23.3334Z" fill="#00579F"/>
<path d="M18.2186 23.3334L13.1414 35.8753L12.5865 33.3317C11.6479 30.3966 8.70395 27.2078 5.4187 25.6222L10.0693 41.7064H15.5517L23.7008 23.3334H18.2186Z" fill="#00579F"/>
<path d="M8.42661 23.3334H0.0853345L0 23.705C6.50671 25.2313 10.816 28.9104 12.5865 33.3324L10.7732 24.8794C10.4746 23.7048 9.55722 23.3721 8.42661 23.3334Z" fill="#FAA61A"/>
</g>
<defs>
<clipPath id="clip0_989_92038">
<rect width="64" height="19" fill="white" transform="translate(0 23)"/>
</clipPath>
</defs>
</svg>
